<svg width="21" height="19" viewBox="0 0 21 19" fill="none" xmlns="http://www.w3.org/2000/svg">
<path fill-rule="evenodd" clip-rule="evenodd" d="M1.73106 2.57448C1.53169 2.56833 1.37345 2.53144 1.21205 2.33157C1.05065 2.12863 1.09496 1.79962 1.09496 1.55671C1.09496 1.31994 1.09496 1.08318 1.09496 0.846415C1.09812 0.572753 1.0918 0.366738 1.29433 0.151498C1.45257 -0.0176195 1.5412 0.00697935 1.75007 0.0100542H6.43374C6.72805 0.0100542 6.98758 -0.0606674 7.2091 0.173022C7.44012 0.415935 7.39898 0.588127 7.40214 0.892538C7.40214 1.2154 7.4654 2.10096 7.29135 2.34387C7.1521 2.53451 6.97806 2.56834 6.78818 2.57756C6.804 2.719 6.8388 2.8789 6.85779 2.98652C6.87045 3.05109 6.88311 3.11258 6.89893 3.17716C6.92741 3.29708 6.96858 3.417 7.00656 3.52769L7.13945 3.8813C7.57301 4.9206 8.16798 6.04292 8.38318 7.14065L8.42749 7.35281C8.4623 7.59573 8.47811 7.83556 8.49393 8.07848C8.53191 8.0385 8.56987 8.00468 8.59835 7.97701C9.41483 7.28209 9.79144 7.52193 10.513 7.74639C10.6649 7.45121 10.9339 7.0484 11.0858 6.85776C11.2061 6.70709 11.5194 6.37808 11.6776 6.27354C11.7852 6.19974 11.8928 6.13209 11.9972 6.0583C12.2788 5.86151 12.589 5.75389 12.9403 5.74774C13.3865 5.74159 13.5764 5.76311 13.9656 5.9722C14.222 6.1075 14.4277 6.26431 14.6397 6.45495C14.9277 6.71017 15.2188 7.07607 15.4055 7.41123C15.4309 7.45736 15.4783 7.59573 15.5195 7.62955C15.8264 7.5742 15.8169 7.49118 16.1935 7.5373C17.1777 7.65415 18.0006 8.83489 18.355 9.65588C18.5038 10.0003 18.8012 10.6337 18.7284 10.9996C18.6968 11.1687 18.7379 11.5623 18.7411 11.756C18.7411 11.7745 18.7411 11.796 18.7411 11.8144C18.8708 11.8175 19.0829 11.8021 19.162 11.8021C19.3519 11.8021 19.605 11.839 19.7981 11.8206C20.0481 11.7991 20.2665 11.8974 20.4595 12.045C20.9975 12.4601 21.0734 13.0966 20.9469 13.7147C20.8741 14.0683 20.5545 14.4465 20.219 14.591C19.8487 14.7509 19.4785 14.6863 19.0987 14.6986L18.9911 15.5504C18.9152 16.1438 18.7189 17.0755 18.5037 17.6382L18.2696 18.1825C18.2031 18.3116 18.162 18.3977 18.0639 18.5145C17.7189 18.9235 17.5923 18.9481 17.0448 18.9788C16.5765 19.0034 15.0732 19.0373 14.6903 18.8804C14.1587 18.6652 13.6144 17.383 13.4118 16.8633C13.3612 16.7281 13.2979 16.5866 13.2473 16.4482L12.5415 16.4636L12.4593 16.6727C12.3295 17.054 12.1903 17.4199 12.0194 17.7858C11.8042 18.244 11.4814 18.9143 10.8927 18.9696C10.2345 19.0311 9.54142 18.9788 8.87684 18.9727C8.19011 18.9665 8.08255 18.9911 7.6838 18.3546C7.67114 18.3331 7.64897 18.2962 7.62999 18.2593C7.58885 18.2993 7.5477 18.3393 7.50973 18.3762C7.28187 18.5914 7.06666 18.7236 6.78501 18.8651C6.51918 19.0004 6.4717 18.9635 6.18688 18.9665H2.73427C2.18995 18.9665 2.13296 19.0434 1.63927 18.7913C1.19305 18.5637 0.778492 18.204 0.500002 17.795C0.481014 17.7643 0.443038 17.6997 0.420886 17.6782C0.395568 17.6536 0.379734 17.629 0.37024 17.5952C0.237325 17.2077 0.0221356 16.9771 0.0221356 16.5282C0.0253003 15.3966 0.126586 13.7485 0 12.6508L0.0126324 7.84479C0.0664316 7.66645 0.0411313 7.26057 0.0696132 7.04533C0.231011 5.78771 1.63295 3.67221 1.73106 2.57756V2.57448ZM2.26904 1.14775V1.42756L6.23436 1.43371V1.1539L2.2722 1.14775H2.26904ZM1.24686 7.14065H7.1996C7.03504 6.498 6.57931 5.58169 6.34828 5.03129C6.10461 4.46245 5.78182 3.74908 5.68688 3.14026C5.66156 2.97114 5.65209 2.7682 5.6236 2.58986L2.883 2.57141C2.87351 2.66673 2.87035 2.7805 2.8577 2.88197C2.73744 3.65376 2.35134 4.49012 2.01272 5.19734L1.87345 5.4833C1.70573 5.83076 1.57601 6.19052 1.43043 6.5472C1.41144 6.5964 1.38927 6.64559 1.37028 6.69787C1.35446 6.74707 1.33863 6.80241 1.32281 6.86391L1.29433 6.94693L1.24686 7.13757V7.14065ZM3.90835 3.7952C3.74378 4.64386 3.63935 4.84373 3.23744 5.61859C2.84502 6.37501 1.85449 5.93223 2.13931 5.23424C2.24058 4.98825 2.38615 4.76686 2.49375 4.52702C2.68996 4.08731 2.69626 3.74908 2.81968 3.3063C2.88298 3.07261 2.87665 2.92194 3.13932 2.82355C3.35451 2.7436 3.64883 2.76205 3.81656 2.93117C3.97796 3.09414 3.97164 3.33705 3.94632 3.54614C3.93683 3.62916 3.92734 3.71526 3.91151 3.7952H3.90835ZM2.16145 5.97528C2.32601 5.91993 2.46526 5.96913 2.60134 6.05215C2.74691 6.13824 2.81971 6.24894 2.85136 6.40883C2.91149 6.71632 2.71209 7.01765 2.38929 7.06993C1.69307 7.17755 1.3956 6.24279 2.15828 5.97528H2.16145ZM13.2378 11.7837C13.2884 10.8335 13.1112 10.9012 13.5922 9.74198C13.8422 9.14545 14.1492 8.70575 14.5511 8.21992C14.4024 7.86016 13.915 7.30669 13.6492 7.11297L13.4087 6.96846C12.9688 6.73784 12.589 6.96846 12.2726 7.27902C11.9814 7.56498 11.82 7.78637 11.6301 8.1369L11.5383 8.31832C11.5225 8.35214 11.4529 8.47821 11.4497 8.51511C11.4655 8.56738 11.7155 8.90869 11.763 8.98864C11.9687 9.34532 12.1491 9.70508 12.2947 10.0894C12.5985 10.8827 12.4339 11.1595 12.4941 11.7868C12.5352 11.7868 12.5764 11.7868 12.6207 11.7868C12.8232 11.7868 13.0289 11.7929 13.2314 11.7898L13.2378 11.7837ZM1.17408 8.28449L1.16774 12.8476L5.14891 12.8507C5.2027 12.4817 5.41157 12.2172 5.74386 11.9835C6.08565 11.7468 6.37679 11.7806 6.76921 11.7806L6.93374 11.7745C6.95589 11.5346 6.93058 11.1441 6.94324 10.9381C6.97489 10.4154 7.29136 9.93569 7.30719 9.68048L7.32619 8.28449H1.17091H1.17408ZM2.94628 10.7136C2.87349 10.1571 3.43998 9.30227 3.75328 8.85027C4.11405 8.32754 4.56026 8.5889 4.85458 8.98864C5.03813 9.2377 5.18686 9.54826 5.32294 9.825C5.56345 10.32 5.69321 10.7044 5.28813 11.3163L5.17421 11.4454L5.10143 11.5039C4.62989 11.9005 4.06974 11.9559 3.5444 11.6176C3.23427 11.4147 2.99058 11.0795 2.94311 10.7167L2.94628 10.7136ZM4.24695 10.2493C4.19948 10.3508 4.15518 10.4584 4.13619 10.5076C4.02859 10.7874 4.48433 10.8274 4.35774 10.4922C4.3166 10.3815 4.28176 10.3108 4.24695 10.2493ZM8.16163 11.7775L9.74712 11.7837C10.0889 11.7837 10.9339 11.836 11.3453 11.7991C11.4212 11.0888 11.2725 10.5507 10.9465 9.88649C10.763 9.51443 10.0478 8.32139 9.4813 8.75802L9.09839 9.11471C9.05092 9.1639 9.00027 9.21003 8.9623 9.2623L8.60469 9.80655C8.41481 10.1448 8.31671 10.4461 8.21861 10.8151C8.14266 11.1072 8.12682 11.4608 8.16163 11.7745V11.7775ZM14.3929 11.7775L17.5828 11.7837C17.6493 11.058 17.5195 10.5783 17.1841 9.88957C17.0195 9.55441 16.4182 8.66578 16.0005 8.64733C15.7948 8.6381 15.4783 8.97326 15.3486 9.09933L14.9403 9.64666L14.5732 10.4338C14.5574 10.4738 14.5447 10.5107 14.5289 10.5507C14.4973 10.6368 14.4783 10.7229 14.4593 10.812C14.4213 10.9904 14.396 11.1872 14.3834 11.3686C14.3739 11.4977 14.377 11.6422 14.396 11.7806L14.3929 11.7775ZM19.8044 12.9583C19.0386 12.8568 17.8487 12.9275 17.0353 12.9245C15.779 12.9183 14.5226 12.9214 13.2662 12.9214C11.2282 12.9214 9.18383 12.8876 7.14578 12.9398C6.99388 12.946 6.36411 12.9337 6.27234 13.0013C6.28816 13.1827 6.30398 13.2565 6.31348 13.4841C6.89894 13.6224 8.3452 13.5671 9.01294 13.5671C10.2693 13.5609 11.5289 13.5671 12.7852 13.5671C14.8644 13.5671 17.8234 13.7762 19.8139 13.5486C19.8234 13.524 19.8013 13.4933 19.8044 13.4656C19.8202 13.3273 19.8202 13.1858 19.8044 13.0474C19.8013 13.0228 19.7981 12.9736 19.8013 12.9644L19.8044 12.9583ZM7.84516 14.7202C7.84516 14.7232 7.84516 14.7232 7.84516 14.7232L7.8705 14.8585L7.95279 15.3259C7.96228 15.369 7.96859 15.4089 7.97492 15.4489C8.05404 15.9501 8.18694 16.5466 8.35784 17.0171L8.72178 17.8442H10.6681C10.7946 17.6474 10.9023 17.4045 11.0035 17.2016C11.1807 16.8387 11.494 15.6734 11.6744 15.4674C11.9054 15.2029 13.203 15.2952 13.5732 15.3075C13.896 15.3198 14.0226 15.329 14.165 15.6273C14.4657 16.2576 14.6397 16.8633 14.9942 17.4875C15.048 17.5829 15.1524 17.8135 15.1302 17.8442L17.1461 17.8411C17.2347 17.6997 17.3645 17.3553 17.4088 17.2354C17.6113 16.6912 17.8898 15.4151 17.9215 14.7263C17.5828 14.6894 17.1746 14.7048 16.855 14.7048H10.2282C9.43699 14.7048 8.63949 14.6833 7.84833 14.7171L7.84516 14.7202ZM1.15511 13.9914C1.14561 14.219 1.16457 14.4588 1.16457 14.6802C1.16457 15.2829 1.10127 16.5497 1.39559 17.0571C1.47787 17.1985 1.65195 17.3953 1.77537 17.506C1.88613 17.6044 2.12033 17.7889 2.2216 17.8319C3.07605 17.9549 4.9432 17.8473 5.89893 17.8288C6.09197 17.8258 6.36095 17.8534 6.51285 17.7182C6.67425 17.5767 6.81349 17.4691 6.94007 17.2938C6.96539 17.26 7.02554 17.1985 7.0382 17.1708L6.77867 16.067C6.69956 15.6918 6.64893 15.0799 6.54449 14.6986C6.24068 14.6925 6.016 14.6894 5.72169 14.4957C5.46535 14.3266 5.40207 14.1974 5.26283 13.9884H1.15824L1.15511 13.9914Z" fill="#fff"/>
</svg>
