<svg width="19" height="17" viewBox="0 0 19 17" fill="none" xmlns="http://www.w3.org/2000/svg">
<path fill-rule="evenodd" clip-rule="evenodd" d="M12.3446 9.01597C12.613 9.07028 13.2034 8.69009 13.4181 8.52715C13.5791 8.41853 13.6328 8.30989 13.7401 8.20127C13.7938 8.14695 13.8475 8.09266 13.9011 7.98403C14.3842 8.58147 14.9209 8.96165 15.726 9.07028C15.9407 9.07028 16.4774 9.12459 16.6384 9.07028H16.6921V15.9137H12.2373V9.07028C12.3446 9.07028 12.291 9.07028 12.291 9.01597H12.3446ZM6.49435 1.2492C6.54802 1.2492 6.54802 1.24921 6.49435 1.19489H8.85593V4.5623H5.68927L5.90395 3.7476C5.95763 3.47603 6.49435 1.35782 6.49435 1.2492ZM11.1102 9.07028V15.9137H2.14689V9.07028H2.20057C2.36158 9.12459 2.89831 9.12459 3.11299 9.07028C3.75706 8.96165 4.4548 8.58146 4.88418 8.03833C4.93785 7.98402 4.93785 8.03833 4.93785 7.92971C4.99153 7.98402 5.0452 8.09265 5.15254 8.14696C5.4209 8.41853 5.58192 8.52715 5.85028 8.69009C6.60169 9.12459 7.78249 9.12459 8.5339 8.69009C8.74859 8.58146 8.85593 8.47285 9.01695 8.36422C9.17797 8.20128 9.44633 7.92971 9.44633 7.92971C9.44633 7.98402 9.55367 8.03832 9.55367 8.09264C9.71469 8.25558 9.87571 8.41852 10.0904 8.58146C10.1977 8.69008 10.3588 8.7444 10.5198 8.79871C10.6271 8.85303 10.8955 8.96165 11.0028 8.96165C11.0565 9.01596 10.9492 8.96166 11.0565 9.01597L11.1102 9.07028ZM13.9011 12.5463C14.7062 12.5463 14.6525 11.4057 13.9548 11.4057H13.8475C13.5791 11.4057 13.3107 11.7316 13.3644 12.0032C13.3644 12.3291 13.5791 12.5463 13.9011 12.5463ZM3.27401 11.8946C3.27401 12.2747 3.4887 12.5463 3.86441 12.5463C4.13277 12.5463 4.24011 12.3834 4.40113 12.2204L5.25989 11.3514C5.4209 11.1885 5.58192 11.0799 5.58192 10.8083C5.58192 10.4824 5.31356 10.2109 4.99153 10.2109C4.72316 10.2109 4.61582 10.3738 4.4548 10.5367L3.64972 11.3514C3.54237 11.4601 3.32768 11.623 3.32768 11.8946H3.27401ZM7.72881 14.1757C7.72881 14.3387 7.78249 14.5016 7.88983 14.6102C8.05085 14.7732 8.21186 14.7732 8.37288 14.7732C8.64124 14.7732 9.01695 14.2843 9.28531 14.0671L9.87571 13.4153C10.0904 13.0895 9.98305 12.492 9.39266 12.492C9.12429 12.492 9.01695 12.655 8.85593 12.8179L7.99718 13.6869C7.88983 13.7955 7.67514 13.9585 7.67514 14.23L7.72881 14.1757ZM4.34746 14.1757C4.34746 14.4473 4.56215 14.7188 4.88418 14.7188C5.25989 14.7188 5.31356 14.6102 5.58192 14.3387L8.48023 11.4057C8.64124 11.2428 8.85593 11.0799 8.85593 10.754C8.85593 10.4281 8.58757 10.2109 8.31921 10.2109C7.99718 10.2109 7.88983 10.4281 7.72881 10.5911L6.22599 12.1118C5.90396 12.4377 5.58192 12.7636 5.25989 13.0895C5.09887 13.2524 4.93785 13.4153 4.77684 13.5783C4.61582 13.7412 4.40113 13.9042 4.40113 14.1757H4.34746ZM2.73729 0H16.1554C16.4774 0 16.6384 0.217242 16.7458 0.434494L18.3559 3.69329C18.4633 3.91054 18.9463 4.88818 18.9463 5.05112V6.46325C18.9463 6.6805 18.8927 7.00639 18.839 7.16933C18.678 7.65814 18.517 7.82107 18.2486 8.20127C18.0876 8.41852 17.8729 8.52714 17.8729 8.58146V15.9137C18.1949 15.9137 18.5706 15.8594 18.7853 16.0224C18.9463 16.1853 19 16.3482 19 16.5112C19 16.7827 18.7316 17 18.4633 17H0.590395C0.214689 17 0 16.7827 0 16.5112V16.3482C0 16.1853 0.107345 16.0224 0.214689 15.968C0.483051 15.8051 0.805085 15.8594 1.12712 15.8594V8.52715C0.966102 8.47284 0.483051 7.92971 0.375706 7.65814C0.161017 7.27795 0 6.89776 0 6.40895V5.05112C0 4.88818 0.536723 3.91054 0.644068 3.69329L2.25424 0.38019C2.36158 0.162938 2.46893 0 2.84463 0H2.73729ZM7.19209 7.92971C6.33333 7.92971 5.52825 7.16932 5.52825 6.35462V5.70287H8.85593C8.85593 6.51757 8.9096 6.78914 8.48023 7.38658C8.42655 7.4409 8.42655 7.4409 8.37288 7.49521C8.05085 7.82109 7.62147 7.98403 7.19209 7.98403V7.92971ZM14.4915 6.13738V5.64857H17.8192C17.8192 6.1917 17.8729 6.46325 17.6582 6.95207C17.6045 7.06069 17.5508 7.115 17.4972 7.22363C17.4435 7.27794 17.4435 7.27794 17.3898 7.33226C16.9605 7.87539 16.048 8.09265 15.404 7.76677C14.7599 7.44089 14.4379 6.84345 14.4379 6.13738H14.4915ZM9.98305 5.97443V5.70287H13.3107C13.3107 6.19169 13.3644 6.57189 13.1497 7.00639C12.774 7.82109 11.8079 8.20128 10.9492 7.76677C10.8418 7.71246 10.7345 7.65813 10.6808 7.60382C10.4124 7.38657 10.1977 7.11501 10.0904 6.78914C10.0367 6.57188 9.98305 6.30031 9.98305 5.97443ZM1.01977 5.97443V5.70287H4.34746C4.34746 6.19169 4.40113 6.57189 4.18644 7.00639C3.75706 7.92972 2.57627 8.25558 1.66384 7.60382C1.39548 7.38657 1.18079 7.11501 1.07345 6.78914C1.01977 6.57188 0.966102 6.30031 0.966102 5.97443H1.01977ZM9.98305 1.14057H12.291C12.3446 1.14057 12.3983 1.35782 12.452 1.52076C12.5057 1.62939 12.5057 1.79234 12.5593 1.95527L13.2034 4.50798H10.0367V1.14057H9.98305ZM4.50847 4.50798H1.39548L3.05932 1.14057H5.31356C5.31356 1.2492 4.93785 2.66134 4.88418 2.82428C4.83051 2.98722 4.4548 4.39935 4.4548 4.50798H4.50847ZM13.5254 1.14057H15.7797C15.9407 1.41214 16.048 1.68371 16.209 1.95527C16.3701 2.22684 16.4774 2.49839 16.6384 2.76996L17.2288 4.01916C17.2825 4.12778 17.3898 4.34505 17.4435 4.45367H14.3305C14.3305 4.34505 14.2768 4.12778 14.2232 4.01916L13.9011 2.71565C13.8475 2.44409 13.7401 2.17251 13.6864 1.90095C13.6328 1.79232 13.6328 1.6294 13.5791 1.46646L13.4718 1.03194L13.5254 1.14057Z" fill="black"/>
</svg>
