<svg width="20" height="20" viewBox="0 0 20 20" fill="none" xmlns="http://www.w3.org/2000/svg">
<path d="M8.3121 0.208344C10.6046 0.208344 12.6841 1.14058 14.189 2.64357C15.692 4.15226 16.6223 6.22981 16.6223 8.52044C16.6223 10.4477 15.9621 12.2284 14.8549 13.6382L19.0841 17.5993C19.5236 18.0102 19.5465 18.7008 19.1355 19.1403C18.7246 19.5798 18.034 19.6026 17.5945 19.1917L13.2948 15.164C11.904 16.2104 10.1766 16.8287 8.31019 16.8287C6.02147 16.8287 3.94202 15.8965 2.43903 14.3954C0.932233 12.8924 0 10.813 0 8.52044C0 6.22791 0.932233 4.14846 2.43522 2.64357C3.93821 1.14058 6.01766 0.208344 8.31019 0.208344H8.3121ZM12.6403 4.19031C11.5331 3.08495 10.0015 2.39814 8.3121 2.39814C6.62456 2.39814 5.09114 3.08685 3.98577 4.19221C2.87851 5.29758 2.1917 6.83101 2.1917 8.52044C2.1917 10.208 2.87851 11.7414 3.98577 12.8468C5.08733 13.954 6.62266 14.6389 8.3121 14.6389C10.0034 14.6389 11.5369 13.954 12.6403 12.8487C13.7476 11.7433 14.4306 10.2099 14.4306 8.52044C14.4306 6.8291 13.7476 5.29567 12.6403 4.19221V4.19031Z" fill="#72777A"/>
</svg>
