<svg width="15" height="15" viewBox="0 0 15 15" fill="none" xmlns="http://www.w3.org/2000/svg">
<path fill-rule="evenodd" clip-rule="evenodd" d="M8.23681 4.48736C8.23681 4.7419 8.28843 4.94126 8.3703 5.12282C8.90245 6.31897 10.5702 6.29227 11.1041 5.14596C11.4512 4.40548 11.1415 3.54219 10.4456 3.17907C9.41506 2.64329 8.23681 3.41225 8.23681 4.48558V4.48736ZM1.5395 9.67604C1.5395 7.98149 1.5395 6.28337 1.5395 4.58704C1.5395 3.48167 1.47543 3.14881 1.94708 2.44927C2.22294 2.03987 2.90993 1.53969 3.58269 1.53969H11.4156C11.7733 1.53969 12.1987 1.72303 12.4283 1.86721C13.5922 2.60057 13.4588 3.64365 13.4588 4.85582C13.4588 6.65183 13.4588 8.44963 13.4588 10.2456L11.5312 7.85511C11.4743 7.78213 11.4547 7.75899 11.3978 7.68779C11.3372 7.61125 11.2945 7.57031 11.25 7.50089L8.64622 10.0872L5.48527 6.26735C5.41764 6.18369 5.31617 6.09469 5.28948 5.99501C5.17201 6.02705 5.12754 6.10715 5.04745 6.18725L2.48631 8.74866C2.32079 8.9142 2.18199 9.05304 2.01825 9.21858C1.87943 9.35564 1.68722 9.57992 1.5395 9.67782V9.67604ZM0 3.18085V11.8192C0 12.3051 0.0871887 12.8088 0.24559 13.147C0.808002 14.3485 1.80824 15 3.18224 15H11.8196C13.6901 15 15 13.6828 15 11.8192V3.18085C15 2.14667 14.6458 1.43467 14.1208 0.913136C13.5085 0.302599 12.7949 0 11.8534 0H3.14843C1.75842 0 0.751059 0.729797 0.256279 1.82983C0.0907587 2.20185 0.00173807 2.65753 0.00173807 3.18263L0 3.18085Z" fill="black"/>
</svg>
