<svg width="13" height="16" viewBox="0 0 13 16" fill="none" xmlns="http://www.w3.org/2000/svg">
<path fill-rule="evenodd" clip-rule="evenodd" d="M6.64167 0H6.1071C5.47166 0.0228302 4.84379 0.131274 4.25971 0.329136C4.06566 0.393822 3.89446 0.456604 3.72133 0.530802C3.5463 0.606903 3.38076 0.677296 3.21714 0.768617C3.13533 0.814277 3.06113 0.859938 2.98123 0.903696C2.89752 0.949356 2.83094 0.995017 2.75294 1.04448C2.39146 1.27659 2.02238 1.56197 1.71988 1.86447L1.44593 2.15555C1.40408 2.19741 1.40024 2.21073 1.36409 2.25258C1.11486 2.55128 0.94744 2.78148 0.747676 3.11823C0.504154 3.53107 0.33295 3.96104 0.199774 4.42335C0.00761936 5.08353 0 5.43739 0 6.07093V6.19079C0 6.8015 0.184537 7.72422 0.372886 8.31781C0.498452 8.71543 0.612627 9.02364 0.778146 9.40985C1.17767 10.3459 1.67039 11.1621 2.21832 11.9535C2.28871 12.0543 2.35342 12.1457 2.42761 12.2446L3.79361 13.877C4.30729 14.3849 5.03977 15.1231 5.65999 15.4941C5.95297 15.6672 6.1242 15.8004 6.46665 15.8004C6.8053 15.8004 7.72042 15.1003 8.002 14.8358L9.26525 13.6011C9.33564 13.5098 9.42315 13.4261 9.50116 13.3385C9.78463 13.0208 10.1347 12.5642 10.3897 12.2256L11.183 11.0384C11.2496 10.93 11.3105 10.8291 11.3675 10.7226L11.9535 9.56966C11.9783 9.50878 12.0011 9.45171 12.0277 9.40034C12.0791 9.2938 12.1247 9.16062 12.1723 9.04457C12.3949 8.49284 12.5033 8.0838 12.6365 7.51114C12.7906 6.84906 12.8001 6.36202 12.8001 5.69233C12.8001 4.9142 12.4938 3.89065 12.1076 3.22477L11.9041 2.88041C11.691 2.56269 11.6358 2.50371 11.4284 2.24497C11.3904 2.19931 11.3809 2.1879 11.3371 2.14223L10.8786 1.68373C10.7511 1.55816 10.618 1.45162 10.4753 1.34508C10.3992 1.288 10.3421 1.24044 10.2603 1.18907C10.2127 1.15673 10.1937 1.13961 10.148 1.10726L9.57157 0.764813C8.70783 0.300599 7.68045 0.0399533 6.64357 0.00190292L6.64167 0ZM9.59057 6.3525C9.59057 5.42408 9.25192 4.69922 8.6355 4.0828C7.8783 3.3275 6.74631 3.00788 5.69422 3.2476C4.94273 3.41882 4.22548 3.87733 3.7917 4.50516L3.63954 4.73917C3.02693 5.76653 3.06875 7.1763 3.79361 8.13707C3.85259 8.21697 3.90017 8.28166 3.96105 8.35395C4.21599 8.67167 4.71255 9.03505 5.10066 9.19677C5.85215 9.50878 6.61503 9.57156 7.40268 9.30902C7.51873 9.27097 7.58723 9.24243 7.69377 9.19677C8.30257 8.94373 8.81819 8.4624 9.15493 7.90115C9.40036 7.49021 9.58867 6.91755 9.58867 6.3525H9.59057Z" fill="black"/>
</svg>
