<svg width="16" height="17" viewBox="0 0 16 17" fill="none" xmlns="http://www.w3.org/2000/svg">
<path fill-rule="evenodd" clip-rule="evenodd" d="M8.02902 16.357C7.76435 16.2777 7.74709 16.0908 7.54572 15.7453C6.52158 13.9893 5.84266 12.0237 5.6643 9.9392L4.70345 10.2451C3.27656 10.6529 1.55049 10.8965 0.624162 11.9841C0.566626 12.052 0.514844 12.1087 0.468815 12.1597C-0.0720211 12.7771 -0.0432533 13.808 0.0603111 14.6067C0.112093 15.0259 0.26744 15.1392 0.58964 15.3318C1.4124 15.8133 2.49407 16.1758 3.40889 16.425C6.26842 17.2011 9.69755 17.1841 12.6146 16.4194C13.4489 16.1984 14.6111 15.8076 15.3936 15.3374C16.2681 14.8106 16.0495 13.0773 15.6525 12.3353C14.87 10.8908 12.8102 10.6869 11.251 10.2168C10.831 10.0865 10.6526 9.96186 10.3189 9.85423C10.1406 11.4063 10.0658 12.086 9.54796 13.4512C9.18549 14.4028 8.55259 15.7056 8.03477 16.3627L8.02902 16.357ZM7.23502 10.534C7.20625 10.8342 7.25228 11.4403 7.58024 11.5592C7.68956 11.5989 7.86792 11.6102 8.01176 11.6102C8.11532 11.6102 8.30519 11.5989 8.403 11.5706C8.51807 11.5366 8.58711 11.4573 8.64465 11.3383C8.75972 11.1004 8.79424 10.8172 8.77698 10.5283C8.37998 10.3697 7.6838 10.4094 7.22927 10.534H7.23502ZM7.95997 15.2185C8.08655 15.1618 8.11532 15.1109 8.21888 14.9466L8.56985 14.2159C8.64465 14.0629 8.69068 13.9723 8.77123 13.825C8.96685 13.4682 8.89205 13.3719 8.79424 12.9074C8.75972 12.7261 8.65616 12.1427 8.5641 11.9897L7.45941 11.9784C7.39037 12.4316 7.09694 13.4682 7.21201 13.7684C7.32133 14.0573 7.77586 15.0202 7.96573 15.2185H7.95997ZM6.91858 0.0433614C5.65279 0.252947 4.80701 0.796737 4.39276 1.9353C4.16837 2.54706 4.26618 3.27211 4.28344 3.94052C4.30645 4.71655 4.11083 4.41067 4.01302 4.72222C3.81164 5.39063 4.76098 6.12701 4.97962 6.98234C5.22127 7.90565 5.77937 8.9026 6.53309 9.37842C6.57336 9.40107 6.60213 9.41807 6.6309 9.43506C7.06242 9.6843 7.18899 9.74661 7.73558 9.75794C8.64465 9.77493 8.94384 9.74094 9.59974 9.27079C9.61125 9.26513 9.62276 9.2538 9.63426 9.24813L9.91619 8.98757C9.92194 8.97624 9.93345 8.96491 9.93921 8.95925L10.48 8.09825C10.8483 7.34487 10.9288 6.71611 11.0496 6.45555C11.1129 6.3196 11.205 6.23463 11.2855 6.14967C11.5962 5.82679 11.7688 5.51524 11.8149 5.00544C11.8782 4.26906 11.6538 4.70522 11.6077 4.09913C11.5157 2.84161 11.8149 1.85599 10.434 0.898697C10.2154 0.745756 9.13946 0.349243 8.85753 0.247283C8.28793 0.0376969 7.56298 -0.0642636 6.90132 0.0433614H6.91858Z" fill="white"/>
</svg>
