<svg width="23" height="23" viewBox="0 0 23 23" fill="none" xmlns="http://www.w3.org/2000/svg">
<path fill-rule="evenodd" clip-rule="evenodd" d="M0.394043 17.1871C0.394043 17.5645 0.456941 17.6274 0.456941 18.0047L1.14882 22.5963C1.14882 22.7221 1.21172 22.8479 1.21172 22.9737H21.5279C21.5908 22.9737 21.5279 22.9108 21.5908 22.6592C21.8423 21.0868 22.0939 19.5143 22.2826 17.9418C22.3455 17.6902 22.4084 17.4387 22.3455 17.1871C22.2826 16.7468 21.9052 16.3065 21.4021 16.3065H1.33752C1.08592 16.3065 0.834331 16.4323 0.708534 16.5581C0.582738 16.6839 0.394043 16.9355 0.394043 17.1871ZM11.2125 15.2372C11.2125 15.4888 11.1496 15.6775 11.2754 15.6775H16.9992C17.6282 15.6775 17.6282 15.1114 17.6282 14.8598C17.6911 14.5453 17.8169 14.1051 17.3766 13.9793C17.2508 13.9793 12.4705 13.9793 12.156 13.9793C12.156 14.0422 12.0302 14.2938 12.0302 14.4195C11.6528 15.1743 11.2125 15.1114 11.2125 15.3001V15.2372ZM12.156 12.4697H17.5024C17.754 12.4697 18.0056 12.2181 18.0685 11.9665C18.1313 11.7149 18.1942 11.2117 18.1942 10.8972C18.1942 10.6456 18.0056 10.457 17.754 10.457C16.9363 10.457 15.867 10.457 15.0493 10.457C13.8543 10.457 12.6592 10.457 11.4641 10.457C11.527 10.7714 11.6528 10.8344 11.7786 11.5262L11.8415 12.0294C11.8415 12.0923 11.9044 12.0923 12.0302 12.281C12.0931 12.3439 12.0931 12.4697 12.156 12.4697ZM5.30011 2.0915H16.7476C16.8105 2.0915 16.8734 1.83991 16.8734 1.65121C16.9363 1.46252 17.0621 0.896414 16.9992 0.770618C16.9363 0.644821 16.8734 0.519043 16.6847 0.519043H5.4259C5.04851 0.519043 5.04851 0.896423 5.11141 1.14802C5.17431 1.33671 5.30011 1.96569 5.30011 2.02859V2.0915ZM3.97924 4.48162H18.1942C18.2571 4.48162 18.32 4.10422 18.3829 3.91553C18.3829 3.78973 18.5087 3.41235 18.5087 3.28656C18.5087 3.16076 18.32 2.97207 18.1942 2.97207H3.91634C3.79055 2.97207 3.66475 3.09787 3.60185 3.22367C3.53896 3.41236 3.72765 3.91555 3.79055 4.10424C3.85345 4.29294 3.85345 4.48162 3.91634 4.48162H3.97924ZM6.62097 11.8407V12.3439C6.62097 12.4697 6.62097 12.4697 6.62097 12.5955C6.30648 12.5955 6.24358 12.6584 6.24358 13.0987C6.24358 13.9793 6.80966 14.734 7.18705 14.6082C7.31285 14.8598 7.81604 15.6146 8.00473 15.6146H10.2062C10.2691 15.6146 10.5207 15.2372 10.5836 15.1743C10.6465 15.0485 10.8981 14.734 10.8981 14.6082C11.0867 14.6711 11.1496 14.6711 11.2754 14.4824C11.3383 14.4195 11.4012 14.2938 11.4641 14.2309C11.7157 13.7906 11.6528 13.6648 11.6528 13.2245C11.6528 12.6584 11.4641 12.6584 11.2125 12.6584L11.1496 12.0294C10.9609 10.5199 10.2691 9.51349 8.63371 9.51349C8.00473 9.51349 7.50155 9.76507 7.12416 10.2054C6.80966 10.5827 6.62097 11.2746 6.62097 11.9036V11.8407ZM0.582738 8.31841C0.582738 8.8216 0.771432 9.70217 0.834331 10.2054C1.02303 11.7778 1.33752 13.4132 1.52621 14.9856C1.52621 15.1114 1.58911 15.3001 1.58911 15.4259H2.97287L2.0923 9.32478C2.0294 8.7587 1.8407 8.38131 2.0923 7.87813C2.34389 7.37494 2.84707 6.99755 3.47606 6.99755H19.1377C20.0183 6.99755 20.7102 7.75233 20.7102 8.44421C20.7102 8.6958 20.5215 9.95376 20.5215 10.2054C20.4586 10.5198 20.4586 10.7715 20.3957 11.086C20.3328 11.4004 20.3328 11.652 20.2699 11.9665L20.0183 13.6648C19.9554 13.9793 19.9554 14.2309 19.8925 14.5454L19.7667 15.4259H21.1505C21.1505 15.1743 21.8423 10.2054 21.9681 9.51349C22.031 8.88451 22.1568 8.63291 22.031 8.00393C21.9052 7.37494 21.5908 6.80886 21.1505 6.43147C20.7102 6.05408 20.0183 5.6767 19.3264 5.6767H3.35026C2.28099 5.6767 1.14882 6.49436 0.834331 7.31204C0.708534 7.62653 0.582738 8.00392 0.582738 8.44421V8.31841Z" fill="#30BA29"/>
</svg>
