<svg width="26" height="21" viewBox="0 0 26 21" fill="none" xmlns="http://www.w3.org/2000/svg">
<path fill-rule="evenodd" clip-rule="evenodd" d="M7.80331 12.9338V13.437H7.99201C8.11781 13.437 8.2436 13.5628 8.2436 13.6886V20.1671H8.68389V18.0286C8.68389 17.9028 8.80969 17.777 8.93548 17.777H24.7858C24.9116 17.777 25.0374 17.9028 25.0374 18.0286V20.1671H25.5406V13.6886C25.5406 13.5628 25.6664 13.437 25.7922 13.437H25.9809V12.9338H7.80331ZM11.0111 18.7834V18.406H9.43867V19.4753C9.43867 19.7268 9.69026 19.9784 9.94185 20.0413C10.2563 20.1671 10.5079 20.1042 10.8224 19.9155C10.9482 19.8526 11.0111 19.7269 11.0111 19.6011C11.074 19.4753 11.074 19.4124 11.074 19.2866C11.074 18.7834 11.074 19.2237 11.074 18.7205L11.0111 18.7834ZM12.5207 18.3431C12.5207 18.406 12.5207 19.8526 12.5207 19.9155C12.5207 20.1671 12.8352 20.23 12.961 20.0413C13.0239 19.9155 13.0239 18.4689 12.961 18.3431H12.5207ZM19.2508 11.9904C20.7604 11.9904 22.2699 11.9904 23.7795 11.9904C23.8424 11.9904 23.9053 11.9904 23.9682 11.9904C23.9682 11.9275 24.0311 11.4243 24.094 11.2985L24.66 8.34226V8.27937C24.66 8.27937 24.5971 8.27937 24.5342 8.27937H20.0685C19.8798 8.27937 19.8798 8.90834 19.8169 9.09703L19.3137 11.613C19.3137 11.8017 19.2508 11.9275 19.1879 11.9904H19.2508ZM9.06128 11.9904H10.0677C10.0048 11.8646 10.0048 11.8017 10.0048 11.4872C10.0048 10.7324 11.0111 8.21646 11.4514 7.65038C11.5772 7.46168 11.7659 7.27299 11.8917 7.08429C10.8853 7.02139 9.43867 7.1472 8.68389 7.1472C8.55809 7.1472 8.3694 7.33589 8.3694 7.46169C8.3694 8.84545 8.99838 10.6695 9.06128 12.0533V11.9904ZM4.5955 8.09066C4.6584 8.15356 4.7213 8.15356 4.7842 8.21646C4.90999 8.27936 5.03579 8.34227 5.16159 8.40517C5.16159 8.09068 5.22449 7.71327 5.28738 7.39878L5.09869 7.33589C5.09869 7.52458 5.03579 7.65039 4.90999 7.83909C4.8471 7.96488 4.7213 8.09068 4.5955 8.15357V8.09066ZM16.4833 18.406H14.6592C14.4705 18.7205 14.156 19.2866 14.156 19.4753C14.156 19.9784 14.4076 20.3558 14.9108 20.3558H14.9737C15.1624 20.3558 15.414 20.2929 15.5398 20.1042C15.6656 19.9155 16.2317 18.8463 16.4833 18.3431V18.406ZM19.125 18.406H17.3009C17.1123 18.7205 16.7978 19.2866 16.7978 19.4753C16.7978 19.9784 17.0494 20.3558 17.5525 20.3558H17.6154C17.8041 20.3558 18.0557 20.2929 18.1815 20.1042C18.3073 19.9784 18.4331 19.6639 18.5589 19.4753C18.6847 19.2866 18.9992 18.7205 19.125 18.406ZM7.61462 20.1042V14.066H7.42593C7.30013 14.066 7.17433 13.9402 7.17433 13.8144V13.3112H6.98564V19.1608C6.98564 19.6011 7.17433 19.9784 7.61462 20.0413V20.1042ZM12.0804 11.9904H15.6656C15.6656 11.9275 15.6656 11.8646 15.7285 11.8017C15.7285 11.7388 15.7914 11.6759 15.9172 11.613C15.9801 11.613 16.043 11.613 16.1059 11.613C16.1059 11.5501 16.1059 11.5501 16.1059 11.4872C16.1059 11.3614 16.1688 11.1098 16.1688 10.984C16.1059 10.7953 15.5398 10.1034 15.3511 9.85183C15.2253 9.72603 15.1624 9.60023 15.0366 9.47443L14.9108 9.34863C14.8479 9.34863 14.5963 9.53733 14.5334 9.60023L12.1433 11.9275L12.0804 11.9904ZM13.8415 7.52458C14.5334 7.33588 15.0366 7.02139 15.7914 7.39878C16.2317 6.89559 16.4204 7.0214 16.4204 5.88923C16.4204 5.07156 15.5398 4.37966 14.7221 4.37966C13.9044 4.37966 13.0868 5.07155 13.0868 5.95212C13.0868 6.7069 13.2755 7.0843 13.8415 7.46169V7.52458ZM1.63929 2.42983C1.63929 3.18461 2.26827 4.12809 3.08595 4.12809C3.77783 4.12809 4.02942 4.12809 4.53261 3.562C5.97926 2.05245 3.71493 -0.211908 2.14247 1.23475C1.82798 1.48634 1.63929 1.98953 1.63929 2.36692V2.42983ZM7.36303 2.42983C7.36303 3.43621 8.1807 4.12809 9.12418 4.12809C10.0677 4.12809 10.6966 3.2475 10.6966 2.36692C10.6966 1.48635 9.87896 0.794466 9.06128 0.794466C8.1807 0.794466 7.42593 1.54926 7.42593 2.42983H7.36303ZM5.41318 6.7698C5.53898 6.39242 5.60188 6.01502 5.79057 5.63763C5.85347 5.57474 5.85347 5.44893 5.91637 5.38604C5.66477 5.26024 5.47608 5.07155 5.16159 5.07155H1.51349C0.821608 5.07155 0.00393114 5.88924 0.00393114 6.58112C0.00393114 7.1472 -0.0589671 7.52458 0.318422 7.96486C0.821608 8.59385 1.2619 8.53096 1.89088 8.15357C2.89725 7.52459 4.21811 7.71327 4.40681 7.52458C4.53261 7.46168 4.5955 7.33589 4.5955 7.21009C4.5955 6.32951 2.77145 6.7698 2.39406 6.95849C2.01668 7.08429 1.45059 7.52457 1.0732 7.39878C1.0103 7.39878 0.947405 7.3359 0.947405 7.273C0.947405 7.2101 0.947405 7.14719 1.0103 7.08429C1.32479 6.644 2.77145 6.20372 3.33754 6.20372C4.46971 6.20372 4.09232 6.07793 4.97289 6.58112L5.53898 6.8956L5.41318 6.7698ZM16.5462 7.58749C16.4833 7.65039 16.4204 7.77619 16.2946 7.83909C16.4833 8.02778 16.7349 8.27937 16.9236 8.46806C17.0494 8.59386 17.2381 8.78255 17.3638 9.03415C17.1123 8.40516 16.7978 7.77618 16.5462 7.58749ZM17.5525 9.41154C17.5525 9.47444 17.5525 9.53733 17.4896 9.60023C17.4896 9.66313 17.4267 9.72603 17.3638 9.72603C17.3009 9.72603 17.2381 9.72603 17.1752 9.72603C16.672 9.34864 16.3575 8.40515 15.4769 7.96486C14.3447 7.39878 13.1497 8.84545 12.332 9.47443C12.2062 9.60023 12.0804 9.78892 11.8917 9.91472C11.703 10.1034 11.4514 10.2292 11.3256 9.85183C11.1998 9.53734 12.2062 8.78255 12.4578 8.59386C12.5836 8.46806 12.7723 8.27937 12.961 8.15357C13.0239 8.09068 13.1497 7.96487 13.2755 7.90198C12.961 7.58748 12.8352 7.14719 12.332 7.52458C11.7659 7.90197 10.5708 10.8582 10.6337 11.5501C10.6337 11.7388 10.8224 11.9275 11.0111 11.9275C11.4514 11.9275 11.5772 11.5501 11.8917 11.2985L13.0868 10.1034C13.2126 9.97761 13.4013 9.85183 13.5271 9.72603C14.4076 8.90835 14.8479 8.40516 15.7285 9.34863L16.4204 10.2921C16.7978 10.7953 17.0494 11.2985 17.3638 11.8017C17.6154 12.179 18.2444 11.9904 18.2444 11.613C18.2444 11.2985 17.9299 10.4179 17.5525 9.47443V9.41154ZM11.9546 6.45532C11.8917 6.20373 11.7659 5.95213 11.6401 5.76343C11.3885 5.32315 11.074 5.07155 10.5079 5.07155H7.61462C5.79057 5.07155 5.97926 8.46806 5.85347 9.60023L5.91637 12.1161C5.91637 12.3048 5.91637 12.3677 6.04216 12.4935C6.10506 12.5564 6.23086 12.6822 6.35665 12.6822C6.67115 12.6822 6.67115 12.6193 6.67115 12.3049C6.67115 12.1791 6.79694 12.0533 6.92274 12.0533H8.4952C8.4952 11.9275 8.4323 11.8646 8.4323 11.7388C8.2436 10.4808 7.80331 8.65674 7.80331 7.39878C7.80331 7.08429 8.05491 6.76981 8.3065 6.58112C8.87258 6.26663 11.1369 6.58111 12.0175 6.45532H11.9546ZM5.16159 8.97123C5.09869 8.97123 5.03579 8.97124 5.03579 8.90835L3.77783 8.27937C3.58913 8.15358 3.65203 8.15356 3.33754 8.21646C2.51986 8.34226 2.01668 8.90835 1.32479 9.03415C1.32479 9.78893 1.32479 10.5437 1.2619 11.3614L1.0732 13.6257C1.0103 14.0031 1.0732 14.3805 1.0103 14.8208C0.947405 15.1982 0.947405 15.5756 0.947405 15.9529C0.884507 17.148 0.695812 18.2802 0.695812 19.4753C0.695812 19.6639 0.75871 19.8526 0.884507 19.9784C1.199 20.3558 1.95378 20.2929 2.20537 19.8527C2.39406 19.5382 2.45696 18.1544 2.45696 17.7141L2.96015 11.8646C2.96015 11.7388 3.08595 11.6759 3.21174 11.6759H3.77783C3.90362 11.6759 4.02942 11.8017 4.02942 11.9275C4.02942 12.3048 4.09232 12.6822 4.15522 13.0596C4.15522 13.437 4.15522 13.8144 4.21811 14.1918C4.28101 14.5692 4.28101 14.9466 4.28101 15.3869L4.5955 18.8463C4.6584 19.1608 4.5955 19.5382 4.7213 19.8527C5.09869 20.6074 6.23086 20.23 6.23086 19.6639L5.79057 14.2547C5.79057 14.066 5.79057 13.1854 5.66477 13.0596C5.28738 12.5564 5.28738 12.4306 5.28738 11.8017C5.28738 11.3614 5.28738 10.8582 5.22449 10.4179C5.16159 9.97763 5.28738 9.53732 5.28738 9.09703L5.16159 8.97123Z" fill="#30BA29"/>
</svg>
