<svg width="24" height="23" viewBox="0 0 24 23" fill="none" xmlns="http://www.w3.org/2000/svg">
<path fill-rule="evenodd" clip-rule="evenodd" d="M2.024 3.57011C1.77241 3.57011 1.64661 3.50721 1.45792 3.25562C1.26922 3.00403 1.33212 2.62664 1.33212 2.37505C1.33212 2.12346 1.33212 1.80896 1.33212 1.55736C1.33212 1.24287 1.33212 0.991286 1.58371 0.739693C1.77241 0.550998 1.83531 0.550994 2.0869 0.550994H7.37035C7.68484 0.550994 7.99933 0.4881 8.25093 0.739693C8.50252 0.991286 8.43962 1.24287 8.43962 1.55736C8.43962 1.93475 8.50252 2.94113 8.31383 3.25562C8.18803 3.50721 7.93644 3.50721 7.74774 3.50721C7.74774 3.6959 7.81064 3.8846 7.81064 4.01039C7.81064 4.07329 7.81064 4.13619 7.87354 4.19909C7.93644 4.32489 7.93644 4.45068 7.99933 4.57648L8.12513 5.01678C8.62832 6.21184 9.2573 7.5327 9.50889 8.79066L9.57179 9.04226C9.63469 9.29385 9.63469 9.60834 9.63469 9.85993C9.69759 9.79703 9.69759 9.79704 9.76048 9.73414C10.704 8.91647 11.0813 9.23095 11.899 9.48255C12.0877 9.16805 12.4022 8.66487 12.528 8.47617C12.6538 8.28748 13.0312 7.91009 13.2199 7.78429C13.3457 7.72139 13.4715 7.5956 13.5973 7.5327C13.9118 7.28111 14.2892 7.15531 14.6665 7.15531C15.1697 7.15531 15.3584 7.15531 15.7987 7.4069C16.1132 7.5956 16.3019 7.7214 16.5535 7.97299C16.868 8.28748 17.1825 8.66487 17.4341 9.10516C17.4341 9.16806 17.497 9.29385 17.5599 9.35675C17.8744 9.29385 17.8744 9.16805 18.3146 9.23095C19.4468 9.35674 20.3274 10.7405 20.7677 11.684C20.9564 12.0614 21.2709 12.8162 21.208 13.2564C21.1451 13.4451 21.208 13.8854 21.208 14.137V14.1999C21.3338 14.1999 21.5854 14.1999 21.7112 14.1999C21.8998 14.1999 22.2143 14.2628 22.403 14.1999C22.6546 14.1999 22.9062 14.2628 23.1578 14.4515C23.7868 14.9547 23.8497 15.6466 23.7239 16.4014C23.661 16.8416 23.2836 17.2819 22.9062 17.4077C22.4659 17.5964 22.0885 17.5335 21.6483 17.5335L21.5225 18.5399C21.4596 19.2318 21.208 20.301 20.9564 20.9929L20.7048 21.6219C20.6419 21.7477 20.579 21.8735 20.4532 21.9993C20.0758 22.5025 19.95 22.5025 19.321 22.5654C18.8178 22.5654 17.1196 22.6283 16.6793 22.4396C16.0503 22.188 15.4842 20.6784 15.2326 20.1124C15.1697 19.9237 15.1068 19.7979 15.0439 19.6092H14.2263L14.1634 19.8608C14.0376 20.301 13.8489 20.7413 13.6602 21.1816C13.4086 21.6848 13.0312 22.5025 12.4022 22.5654C11.6474 22.6283 10.8927 22.5654 10.1379 22.5654C9.38309 22.5654 9.2573 22.5654 8.81701 21.8735C8.81701 21.8735 8.75411 21.8106 8.75411 21.7477C8.69121 21.8106 8.69121 21.8735 8.62832 21.8735C8.37672 22.1251 8.12513 22.2509 7.81064 22.4396C7.49615 22.6283 7.43325 22.5654 7.11876 22.5654H3.21907C2.59008 22.5654 2.52719 22.6283 1.9611 22.3767C1.45792 22.1251 1.01763 21.6848 0.703137 21.2445C0.703137 21.1816 0.640239 21.1187 0.640239 21.1187C0.640239 21.1187 0.577341 21.0558 0.577341 20.9929C0.451544 20.5526 0.199951 20.301 0.199951 19.735C0.199951 18.4141 0.325748 16.5271 0.199951 15.2063V9.60835C0.262849 9.41965 0.262849 8.91647 0.262849 8.66487C0.451544 7.21821 2.024 4.76517 2.1498 3.50721L2.024 3.57011ZM2.65298 1.93475V2.24925H7.11876V1.93475H2.65298ZM1.52081 8.91646H8.25093C8.06223 8.16168 7.55905 7.09242 7.30745 6.46343C7.05586 5.77155 6.67847 4.95387 6.55267 4.26199C6.55267 4.0733 6.48978 3.8217 6.48978 3.63301H3.40776C3.40776 3.7588 3.40776 3.8846 3.40776 4.01039C3.28197 4.89097 2.84168 5.89734 2.46429 6.71502L2.33849 7.02952C2.1498 7.40691 2.024 7.84719 1.83531 8.28748C1.83531 8.35037 1.77241 8.41328 1.77241 8.47617C1.77241 8.53907 1.70951 8.60198 1.70951 8.66487V8.79066L1.64661 9.04226L1.52081 8.91646ZM4.53993 5.01678C4.35124 6.02315 4.22544 6.21183 3.78515 7.15531C3.34486 8.03588 2.2127 7.5327 2.52719 6.71502C2.65298 6.40053 2.77878 6.14894 2.90458 5.89735C3.15617 5.39416 3.15617 5.01677 3.28197 4.45069C3.34486 4.1991 3.34486 4.0104 3.65935 3.88461C3.91095 3.75881 4.22544 3.8217 4.41413 4.01039C4.60283 4.19909 4.60283 4.45068 4.53993 4.70228C4.53993 4.82807 4.53993 4.89098 4.47703 5.01678H4.53993ZM2.59008 7.5327C2.77878 7.46981 2.90458 7.5327 3.09327 7.5956C3.28197 7.7214 3.34486 7.84719 3.34486 8.03589C3.40776 8.41328 3.21907 8.72776 2.84168 8.79066C2.0869 8.91646 1.70951 7.84719 2.59008 7.5327ZM15.1068 14.2628C15.1697 13.1306 14.981 13.2564 15.4842 11.8727C15.7358 11.1808 16.1132 10.6776 16.5535 10.1115C16.3648 9.67124 15.8616 9.04226 15.5471 8.85356L15.2955 8.66487C14.7923 8.41328 14.3521 8.66487 14.0376 9.04226C13.7231 9.35675 13.5344 9.60834 13.2828 10.0486L13.157 10.2373C13.157 10.3002 13.0312 10.426 13.0312 10.4889C13.0312 10.5518 13.3457 10.9292 13.4086 11.055C13.6602 11.4953 13.8489 11.8727 14.0376 12.313C14.3521 13.2564 14.1634 13.5709 14.2892 14.2628C14.3521 14.2628 14.415 14.2628 14.415 14.2628C14.6665 14.2628 14.8552 14.2628 15.1068 14.2628ZM1.45792 10.1744V15.4579H5.92369C5.98659 15.0176 6.23818 14.7031 6.61557 14.4515C6.99296 14.1999 7.30745 14.1999 7.74774 14.1999H7.93644C7.93644 13.9483 7.93644 13.4451 7.93644 13.2564C7.99933 12.6275 8.31382 12.1243 8.37672 11.8098V10.1744H1.45792ZM3.47066 13.0048C3.40776 12.3759 4.03674 11.3695 4.35124 10.8663C4.72863 10.2373 5.23181 10.5518 5.6092 11.055C5.7979 11.3695 5.98659 11.684 6.11239 11.9985C6.36398 12.5646 6.55267 13.0049 6.04949 13.7596L5.92369 13.8854L5.86079 13.9483C5.35761 14.3886 4.66573 14.4515 4.09964 14.0741C3.72225 13.8225 3.47066 13.4451 3.40776 13.0048H3.47066ZM4.91732 12.4388C4.85442 12.5646 4.79152 12.6904 4.79152 12.7533C4.66573 13.0677 5.16891 13.1306 5.04312 12.7533C4.98022 12.6275 4.98022 12.5646 4.91732 12.5017V12.4388ZM9.3202 14.1999H11.0813C11.4587 14.1999 12.4022 14.2628 12.9054 14.1999C12.9683 13.3822 12.8425 12.7533 12.4651 11.9985C12.2764 11.5582 11.4587 10.1744 10.8298 10.6776L10.3895 11.1179C10.3266 11.1808 10.2637 11.2437 10.2637 11.3066L9.88628 11.9356C9.69759 12.313 9.57179 12.6904 9.44599 13.1306C9.38309 13.4451 9.3202 13.8854 9.38309 14.2628L9.3202 14.1999ZM16.3648 14.1999H19.95C20.0129 13.3822 19.8871 12.8162 19.5097 11.9985C19.321 11.6211 18.6291 10.5518 18.1889 10.5518C17.9373 10.5518 17.6228 10.9292 17.4341 11.055L16.9938 11.684L16.5535 12.6275C16.5535 12.6904 16.4906 12.6904 16.4906 12.7533C16.4277 12.8791 16.4277 12.9419 16.4277 13.0677C16.3648 13.2564 16.3648 13.508 16.3648 13.6967C16.3648 13.8225 16.3648 14.0112 16.3648 14.1999ZM22.4659 15.5837C21.5854 15.4579 20.2645 15.5208 19.321 15.5208C17.8744 15.5208 16.4906 15.5208 15.0439 15.5208C12.7167 15.5208 10.4524 15.4579 8.12513 15.5208C7.93644 15.5208 7.24455 15.5208 7.11876 15.5837C7.11876 15.7724 7.18166 15.8982 7.18166 16.1498C7.81064 16.3385 9.44599 16.2756 10.2008 16.2756C11.6474 16.2756 13.0312 16.2756 14.4779 16.2756C16.8051 16.2756 20.1387 16.5272 22.403 16.2756C22.403 16.2756 22.403 16.2127 22.403 16.1498C22.403 15.9611 22.403 15.8353 22.403 15.6466C22.403 15.6466 22.403 15.5837 22.403 15.5208L22.4659 15.5837ZM8.94281 17.6593V17.7851L9.00571 18.3512C9.00571 18.4141 9.00571 18.477 9.00571 18.477C9.0686 19.0431 9.2573 19.735 9.44599 20.301L9.88628 21.2445H12.0877C12.2135 20.9929 12.3393 20.7413 12.4651 20.4897C12.6538 20.0495 13.0312 18.7286 13.2199 18.477C13.4715 18.1625 14.9181 18.2883 15.3584 18.2883C15.7358 18.2883 15.8616 18.2883 16.0503 18.6657C16.3648 19.4205 16.6164 20.1123 16.9938 20.8042C17.0567 20.93 17.1825 21.1816 17.1196 21.2445H19.3839C19.5097 21.0558 19.6355 20.6784 19.6984 20.5526C19.95 19.9237 20.2645 18.4141 20.2645 17.6593C19.8871 17.5964 19.4468 17.6593 19.0694 17.6593H11.5845C10.704 17.6593 9.76048 17.6593 8.87991 17.6593H8.94281ZM1.39502 16.8416C1.39502 17.0932 1.39502 17.4077 1.39502 17.6593C1.39502 18.3512 1.33212 19.8608 1.64661 20.4268C1.70951 20.6155 1.9611 20.8042 2.0869 20.93C2.2127 21.0558 2.46429 21.2445 2.59008 21.3074C3.53356 21.4332 5.6721 21.3074 6.74137 21.3074C6.93006 21.3074 7.24455 21.3074 7.43325 21.1816C7.62194 20.9929 7.74774 20.8671 7.93644 20.6784C7.93644 20.6155 8.06223 20.5526 8.06223 20.5526L7.74774 19.2947C7.68484 18.8544 7.62194 18.1625 7.49615 17.7222C7.18166 17.7222 6.93006 17.7222 6.55267 17.4706C6.23818 17.2819 6.17528 17.0932 6.04949 16.9045H1.39502V16.8416Z" fill="#30BA29"/>
</svg>
