<svg width="53" height="53" viewBox="0 0 53 53" fill="none" xmlns="http://www.w3.org/2000/svg">
<path fill-rule="evenodd" clip-rule="evenodd" d="M29.1034 15.8553C29.1034 16.7547 29.2858 17.4591 29.575 18.1006C31.4553 22.327 37.3479 22.2327 39.2345 18.1824C40.4608 15.566 39.3665 12.5157 36.9076 11.2327C33.2665 9.33962 29.1034 12.0566 29.1034 15.8491V15.8553ZM5.43956 34.1887C5.43956 28.2013 5.43956 22.2013 5.43956 16.2075C5.43956 12.3019 5.21319 11.1258 6.87967 8.65409C7.8544 7.20755 10.2818 5.44025 12.6588 5.44025H40.335C41.599 5.44025 43.102 6.08805 43.9132 6.59748C48.0259 9.18868 47.5543 12.8742 47.5543 17.1572C47.5543 23.5031 47.5543 29.8553 47.5543 36.2013L40.7437 27.7547C40.5425 27.4969 40.4733 27.4151 40.2721 27.1635C40.0583 26.8931 39.9073 26.7484 39.7501 26.5031L30.55 35.6415L19.3813 22.1447C19.1423 21.8491 18.7838 21.5346 18.6895 21.1824C18.2744 21.2956 18.1173 21.5786 17.8343 21.8616L8.78497 30.9119C8.20013 31.4969 7.7097 31.9874 7.13115 32.5723C6.64064 33.0566 5.96151 33.8491 5.43956 34.195V34.1887ZM0 11.239V41.761C0 43.478 0.308067 45.2579 0.86775 46.4528C2.85494 50.6981 6.38912 53 11.2439 53H41.7625C48.3718 53 53 48.3459 53 41.761V11.239C53 7.58491 51.7486 5.06918 49.8935 3.22642C47.7302 1.06918 45.2086 0 41.882 0H11.1245C6.21308 0 2.65374 2.57862 0.905518 6.46541C0.320681 7.77987 0.00614119 9.38994 0.00614119 11.2453L0 11.239Z" fill="#EBEDEC"/>
</svg>
