<svg width="11" height="19" viewBox="0 0 11 19" fill="none" xmlns="http://www.w3.org/2000/svg">
<path fill-rule="evenodd" clip-rule="evenodd" d="M9.09838 15.9181L1.47308 15.9219C1.44264 14.457 1.80602 12.9673 2.4738 12.0541C2.80484 11.6013 3.27286 11.295 3.80366 10.9678C4.28119 10.6729 4.74733 10.2486 4.73211 9.45338C4.70738 8.0322 3.33756 8.09498 2.44147 6.88498C1.75086 5.95085 1.38746 4.12443 1.46927 2.98673C2.01149 2.97531 9.00513 2.96009 9.07553 3.00004C9.15543 3.04761 9.1136 3.20742 9.10219 3.36152C9.05653 4.04262 9.02037 4.5563 8.85676 5.2336C8.15282 8.15016 6.30167 7.60794 5.90405 9.04815C5.76326 9.56373 5.89453 10.0774 6.13424 10.4123C6.69549 11.1961 7.93023 11.2075 8.62085 12.9978C8.89291 13.7036 9.15355 15.062 9.09838 15.9162V15.9181ZM5.08976 9.695L5.08595 13.7569C4.32685 13.8044 3.00082 13.7664 2.11044 13.7702C1.95633 14.0232 1.846 15.18 1.83839 15.5586C3.96541 15.5871 6.18943 15.5624 8.33356 15.5643L8.7502 15.5605C8.72928 14.9079 8.61515 14.3486 8.49339 13.7664H5.50264L5.49312 9.60558C5.49312 7.85146 6.67269 7.8058 7.59731 6.8945C6.50717 6.85454 4.7378 6.88498 3.62103 6.88689L2.99128 6.88879C3.67428 7.73731 5.08976 7.67453 5.08976 9.695ZM0.812909 2.8935C0.868082 5.06047 1.19154 6.99343 2.78965 8.2548C3.31855 8.67335 4.02438 8.88453 4.07004 9.42675C4.14424 10.3457 2.66215 10.2505 1.70708 11.9495C1.02788 13.1538 0.888998 14.3181 0.801483 15.9714C0.571278 16.1027 0.464752 16.1807 0.341088 16.409C0.0347831 16.9645 0.183187 18.0547 1.20484 18.0547L9.26768 18.0585C9.62345 18.0585 9.81943 18.0471 10.042 17.8682C10.3978 17.5771 10.5215 16.917 10.2855 16.4413C10.1257 16.1236 10.0572 16.1255 9.78707 15.9543C9.7357 13.8805 9.34192 11.8487 7.74 10.6805C7.18257 10.2753 6.49192 10.0356 6.51475 9.45338C6.5566 8.41651 8.83201 8.75706 9.55497 5.15369C9.71097 4.37176 9.72052 3.74583 9.7833 2.92965C9.80423 2.88589 10.5462 2.60242 10.375 1.63404C10.3293 1.38671 10.1809 1.16602 10.042 1.04045C9.71859 0.745562 9.0508 0.831175 8.60561 0.833077L1.14585 0.836883C0.0975624 0.836883 -0.14786 2.41407 0.814813 2.89541L0.812909 2.8935Z" fill="#000"/>
</svg>
