<svg width="19" height="13" viewBox="0 0 19 13" fill="none" xmlns="http://www.w3.org/2000/svg">
<path d="M10.6307 12.7548V0.124023H8.55311V8.90604L1.95899 0.124023H0.187744V12.7548H2.26529V3.99184L8.85942 12.7548H10.6307ZM11.6238 4.08316C11.6238 6.01612 13.123 7.31744 15.1834 7.31744C17.2438 7.31744 18.743 6.01612 18.743 4.08316C18.743 2.13118 17.2438 0.866005 15.1834 0.866005C13.123 0.866005 11.6238 2.13118 11.6238 4.08316ZM13.5567 4.08316C13.5567 3.14332 14.2797 2.54783 15.1834 2.54783C16.0871 2.54783 16.791 3.14332 16.791 4.08316C16.791 5.04013 16.1061 5.63562 15.1834 5.63562C14.2987 5.63562 13.5567 5.04013 13.5567 4.08316ZM12.2916 10.1179H18.0562V8.18499H12.2916V10.1179Z" fill="black"/>
</svg>
