<svg width="18" height="17" viewBox="0 0 18 17" fill="none" xmlns="http://www.w3.org/2000/svg">
<path fill-rule="evenodd" clip-rule="evenodd" d="M7.08343 9.79887L7.52562 7.48773C7.55937 7.29648 7.50873 7.24138 7.64375 7.19276C7.73151 7.16358 10.56 7.18627 10.911 7.18627L10.533 9.15059C10.5094 9.29969 10.4959 9.34507 10.4689 9.49742C10.4385 9.68867 10.4858 9.74377 10.3508 9.79239C10.263 9.82481 7.43447 9.79887 7.08343 9.79887ZM5.25403 4.57043C4.31907 4.57043 3.38071 4.57691 2.44574 4.57043C0.393549 4.56071 0.616317 7.11496 2.18922 7.18627C3.0128 7.22517 3.95116 7.18627 4.78486 7.18627L4.32244 9.64328C4.28194 9.84425 4.28531 9.8086 4.02203 9.80536L1.37913 9.79887C0.643312 9.79563 0.0796511 10.2656 0.00539401 11.0144C-0.0654877 11.747 0.575808 12.3499 1.12936 12.4115L3.80601 12.4147C3.74863 12.5282 3.21195 15.3904 3.21195 15.8053C3.21195 16.3466 3.80264 16.9916 4.48783 16.9916C5.89534 16.9916 5.91559 15.9446 6.09449 15.1019L6.61426 12.4147H9.93223C9.92885 12.5573 9.8917 12.6546 9.86469 12.8004L9.48328 14.8426C9.35502 15.5362 9.15926 15.9446 9.70269 16.5605C10.2495 17.1829 11.3701 17.1634 11.8933 16.379C12.116 16.0451 12.1397 15.5719 12.2342 15.1148C12.2814 14.8879 12.7405 12.6384 12.7405 12.4147H15.8019C16.396 12.4147 17.0373 11.8637 17.0373 11.0663C17.0373 10.405 16.4533 9.82805 15.8053 9.79887C14.9817 9.76322 14.0467 9.79887 13.2096 9.79887C13.3649 9.15707 13.5269 8.03229 13.6721 7.34186C13.7126 7.14089 13.7092 7.17979 13.9725 7.18303L16.6153 7.18951C17.9013 7.18951 18.5258 5.67252 17.4524 4.82975C17.0744 4.53478 16.6322 4.57367 15.974 4.57367C15.38 4.57367 14.7826 4.57367 14.1885 4.57367L14.7826 1.34844C14.7826 0.651529 14.2931 0 13.5067 0C12.0992 0 12.0789 1.04699 11.9 1.88976L11.3802 4.57691H8.06228C8.18717 4.06801 8.26482 3.52669 8.37283 2.99509C8.47071 2.50563 8.65972 1.64665 8.65972 1.18637C8.65972 0.645047 8.06566 0 7.38384 0C6.83029 0 6.43875 0.139382 6.11472 0.619115C5.9122 0.920569 5.59829 2.77143 5.51728 3.23172L5.25737 4.57367L5.25403 4.57043Z" fill="#000"/>
</svg>
