<svg width="21" height="13" viewBox="0 0 21 13" fill="none" xmlns="http://www.w3.org/2000/svg">
<path fill-rule="evenodd" clip-rule="evenodd" d="M18.1833 10.1887C18.1833 11.9401 15.518 11.87 15.5882 10.1187C15.6583 8.43743 18.1833 8.36738 18.1833 10.1887ZM7.24174 10.1887C7.24174 11.9401 4.64664 11.87 4.64664 10.1187C4.64664 8.43743 7.24174 8.36738 7.24174 10.1887ZM12.0111 6.54601C12.0111 6.82622 12.0111 7.10644 12.0111 7.38665H13.4139C13.484 5.70539 12.9931 5.9856 14.6764 5.9856C14.8868 5.9856 14.8868 5.9856 14.8868 6.19575C14.8868 7.73691 14.9569 7.4567 14.3257 7.4567C14.0451 7.4567 13.7646 7.4567 13.4139 7.4567V8.85775H11.941V7.4567H10.5382C10.5382 7.73691 10.6084 8.64759 10.4681 8.85775C10.398 8.9278 9.20561 8.9278 9.06533 8.9278V7.52675C8.78478 7.52675 8.50422 7.52675 8.22367 7.52675C7.66257 7.52675 7.66257 7.5968 7.66257 7.31659V6.2658C7.66257 6.05565 7.66257 6.05565 7.87298 6.05565H8.92505C9.13547 6.05565 9.13547 6.05565 9.13547 6.2658V7.52675H10.5382V6.1257H10.7486C12.2917 6.05565 12.0111 6.05565 12.0111 6.68612V6.54601ZM7.24174 4.16423C6.82092 4.16423 6.54036 3.95407 6.40009 3.67386C6.25981 3.3236 6.40009 2.90329 6.54036 2.62308C6.82091 1.92255 6.82092 1.15197 7.73271 1.15197H12.9931C13.975 1.15197 14.6062 1.64234 14.9569 2.13271C15.1673 2.41292 15.8687 3.67386 15.8687 4.16423C13.0632 4.23428 10.0473 4.16423 7.24174 4.16423ZM3.59457 11.4497L3.73485 11.6598L3.80498 11.8C3.87512 11.8 3.87512 11.8 3.87512 11.87C3.94526 11.87 3.94526 11.87 3.94526 11.9401C4.0154 11.9401 4.0154 11.9401 4.0154 12.0101L4.08554 12.0802C4.15567 12.0802 4.15567 12.0802 4.15567 12.1502C4.22581 12.1502 4.22581 12.1502 4.22581 12.2203L4.29595 12.2903C4.43622 12.4304 4.5765 12.5005 4.85705 12.6406C6.18967 13.4112 7.87298 12.9208 8.57436 11.3796C8.71464 11.0294 8.71464 10.7492 8.78478 10.6791C8.92505 10.6091 13.975 10.6091 14.466 10.6791C14.6062 11.3096 14.7465 11.87 15.3076 12.2903C17.0611 13.8315 19.586 12.5705 19.7263 10.6791C20.0068 10.6791 20.7082 10.7492 20.9186 10.6791C20.9888 10.6091 20.9888 10.3989 20.9888 10.3288C20.9888 10.1887 20.9888 10.0486 20.9888 9.90853C20.9888 9.13796 21.0589 8.08717 20.8485 7.38665C20.1471 5.35512 18.6041 5.28507 18.043 4.7947C17.6923 4.51449 17.4117 4.23428 17.2715 3.74391C16.6402 1.9926 15.7284 0.451449 13.6944 0.101187C13.1333 0.0311344 5.76885 0.0311344 4.71678 0.0311344C4.15567 0.0311344 3.45429 -0.038918 2.96333 0.0311344C2.40223 0.101187 1.9814 0.591554 2.19181 1.15197C2.5425 2.41292 4.43622 1.29208 5.06747 2.13271C5.41816 2.62308 5.20774 3.1835 4.78691 3.39365C4.43622 3.60381 1.70085 3.46371 1.0696 3.46371C-0.403293 3.46371 -0.263017 5.21502 0.929328 5.28507C1.56057 5.28507 2.26195 5.28507 2.89319 5.28507C4.22581 5.28507 4.15567 6.40591 3.66471 6.82622C3.45429 7.03638 3.31402 7.03638 2.89319 7.03638C2.33209 7.03638 1.56057 6.96633 1.20988 7.24654C0.789052 7.5968 0.789052 8.22727 1.20988 8.57754C1.9814 9.27806 3.59457 8.01712 3.59457 9.97859C3.59457 11.3096 3.66471 10.7492 3.87512 11.5898L3.59457 11.4497Z" fill="black"/>
</svg>
