<svg width="18" height="17" viewBox="0 0 18 17" fill="none" xmlns="http://www.w3.org/2000/svg">
<path fill-rule="evenodd" clip-rule="evenodd" d="M9.3068 13.9652C8.03211 13.9271 6.71365 13.9556 5.43516 13.9537C4.77498 13.9518 4.11673 13.948 3.45656 13.9461C2.67082 13.9442 2.40827 13.8948 2.12289 13.3449C1.96308 13.0367 1.98211 6.47494 2.02777 5.68159L14.1506 5.6892L14.1639 8.44595L15.2407 8.72372C15.2959 8.30136 15.2408 4.58574 15.2313 3.86659C15.2179 2.94767 15.1456 2.57859 14.6757 2.01734C14.3466 1.62352 13.791 1.34575 13.0719 1.27156C12.9977 1.77002 13.1632 2.37882 12.952 2.82781C12.7789 3.1931 12.5239 3.46896 11.9532 3.47087C10.5377 3.47467 10.8897 1.75289 10.8288 1.27346L9.56366 1.26585C9.49136 1.26585 9.41714 1.26775 9.34484 1.27917C8.90916 1.35146 9.40194 2.22282 9.08612 2.86396C8.92631 3.18929 8.5629 3.4956 8.05493 3.46896C6.79546 3.40618 7.06563 2.36741 6.9705 1.27346L5.34955 1.28107C5.29438 1.72055 5.40095 2.50439 5.23353 2.85065C5.08323 3.16076 4.68749 3.48609 4.21566 3.46896C2.97332 3.4214 3.14263 2.38833 3.1141 1.27726C2.63466 1.30961 2.1914 1.42186 1.89841 1.67109C0.676993 2.70605 0.943338 3.4176 0.939533 5.32582C0.935728 7.38054 0.931923 9.43906 0.939533 11.4938C0.943338 12.5839 0.831093 13.3659 1.37141 14.1668C1.91743 14.9754 2.76216 15.0287 3.57644 15.0401C5.60643 15.0667 7.71821 15.1029 9.74439 15.0629C9.67399 14.8365 9.43046 14.241 9.3087 13.9671L9.3068 13.9652ZM3.67914 1.36668V1.42376C3.68104 1.89939 3.59924 2.64137 3.97023 2.83352C4.21375 2.95909 4.49532 2.86967 4.6304 2.71366C4.82445 2.49487 4.7579 1.71484 4.7579 1.3058C4.7579 0.780707 4.81876 0.185219 4.21376 0.185219C3.62588 0.187121 3.67724 0.814953 3.67914 1.36478V1.36668ZM7.86277 0.234685C7.41758 0.468694 7.53555 1.19355 7.54507 1.77382C7.55458 2.34077 7.52414 3.15124 8.31179 2.85255C8.84069 2.65088 8.63902 0.630409 8.54579 0.468695C8.43735 0.282248 8.16908 0.0748738 7.86277 0.236588V0.234685ZM11.4015 1.3077C11.4015 1.91841 11.2493 2.85255 11.8961 2.8944C12.6552 2.94197 12.4935 1.88036 12.4935 1.13458C12.4935 0.620896 12.4555 0.149071 11.8961 0.185219C11.3501 0.221367 11.4053 0.771195 11.4034 1.30961L11.4015 1.3077ZM4.67796 8.42312C5.4656 8.42312 5.86327 8.49541 5.86137 7.6507C5.86137 6.71656 5.56834 6.79837 4.67796 6.79837C3.94739 6.79837 3.67343 6.79837 3.67533 7.59172C3.67913 8.4098 3.90934 8.42312 4.67796 8.42312ZM10.709 6.84213C10.4597 6.94867 10.3284 7.05901 10.2999 7.41478C10.279 7.68875 10.2771 8.0312 10.4464 8.22716C10.669 8.4859 11.7553 8.50493 12.1568 8.37936C12.6762 8.21765 12.4878 7.13892 12.3356 6.9753C12.0826 6.69754 10.8517 6.78125 10.7071 6.84403L10.709 6.84213ZM7.40047 6.84593C6.70605 7.13892 7.03899 8.14916 7.11319 8.24238C7.28442 8.46117 8.4735 8.51254 8.83688 8.37365C9.28017 8.20433 9.26685 7.23214 9.02523 6.96769C8.82547 6.7489 7.69726 6.71846 7.39857 6.84403L7.40047 6.84593ZM7.02187 10.2115C7.13032 10.7651 7.91038 10.6567 8.52299 10.6319C9.18316 10.6053 9.28966 10.0536 9.14697 9.40862C9.03092 8.88733 8.21666 8.98817 7.644 9.00909C6.99905 9.03192 6.89441 9.56463 7.02187 10.2115ZM3.71532 12.4222C3.83328 12.9682 4.59806 12.8636 5.20687 12.8408C5.88797 12.8141 5.9755 12.2757 5.83851 11.6155C5.73197 11.0943 4.89678 11.1932 4.32983 11.216C3.68868 11.2426 3.57834 11.7925 3.71532 12.4241V12.4222ZM7.02568 12.4222C7.13983 12.9777 7.91038 12.8579 8.52489 12.837C8.85212 12.8274 9.05759 12.7761 9.13559 12.5154C9.19457 12.3138 9.19644 11.8305 9.14888 11.6193C9.03282 11.0809 8.19003 11.1932 7.64591 11.2141C6.99144 11.2369 6.8906 11.7754 7.02568 12.4222ZM3.71532 10.2115C3.82947 10.7651 4.59045 10.6567 5.20687 10.6319C5.89558 10.6053 5.9793 10.0707 5.83851 9.40292C5.72817 8.87782 4.88347 8.98817 4.33174 9.00909C3.66015 9.03383 3.57263 9.51897 3.71532 10.2115ZM14.1715 12.2947C14.1392 11.9827 14.183 11.2046 14.0859 10.9877C13.9604 10.7061 13.4885 10.5368 13.2222 10.8412C12.9749 11.1228 12.9596 12.972 13.2355 13.2346C13.5056 13.4952 15.3701 13.4591 15.6136 13.227C15.9142 12.9416 15.7811 12.4888 15.45 12.3651C15.235 12.2833 14.4531 12.3023 14.1735 12.2928L14.1715 12.2947ZM13.1328 10.1335C14.7975 9.85571 16.1045 11.0105 16.3252 12.3594C16.5992 14.0451 15.4843 15.3197 14.1183 15.5728C12.4517 15.881 11.1466 14.7014 10.8954 13.3754C10.5777 11.7088 11.7706 10.3618 13.1347 10.1335H13.1328ZM17.3944 13.4686C17.7635 11.1932 16.1007 9.35916 14.2115 9.05666C12.1225 8.72181 10.1553 10.1639 9.82999 12.154C9.55032 13.8491 10.3037 15.2836 11.5727 16.1188C11.9665 16.3775 12.4383 16.5564 12.9691 16.6439C15.2845 17.0282 17.0881 15.3597 17.3944 13.4686Z" fill="#fff"/>
</svg>
