<svg width="20" height="16" viewBox="0 0 20 16" fill="none" xmlns="http://www.w3.org/2000/svg">
<path fill-rule="evenodd" clip-rule="evenodd" d="M14.2626 10.8199L14.2809 10.9771L14.2626 11.4647C14.2626 11.6082 14.2467 11.6994 14.2421 11.8155C14.2376 11.9522 14.2444 12.0616 14.2285 12.1755C14.1806 12.5332 14.2421 12.5469 13.8662 12.5765C13.8275 12.5788 13.5609 12.5515 13.5313 12.5469C13.2966 12.4899 13.3923 12.2279 13.3536 11.9636C13.3353 11.8406 13.3422 11.5945 13.3422 11.4465V11.0363V7.79193C13.3422 7.71675 13.5199 7.637 13.5928 7.61422C14.11 7.45701 15.1307 7.43195 15.6889 7.59372C15.919 7.66207 16.1491 7.79421 16.2972 7.94231C16.4749 8.1223 16.5911 8.25672 16.6595 8.53696C16.7278 8.81265 16.7324 9.09289 16.6777 9.3868C16.5843 9.88121 16.238 10.264 15.8233 10.4462C15.0441 10.7903 14.2604 10.5305 14.2604 10.8176L14.2626 10.8199ZM14.2626 8.24078C14.2626 8.78303 14.2239 9.42325 14.2239 9.96095C15.1034 9.96095 15.8051 10.0225 15.8051 8.90606C15.8051 8.71012 15.7367 8.59165 15.6342 8.4914C15.534 8.39115 15.4383 8.30229 15.2856 8.25445C15.0327 8.17698 14.4927 8.13141 14.2626 8.24078ZM9.82891 10.5647H9.90638L9.92461 9.54856C9.92688 9.31389 9.99979 9.03365 10.0043 8.88556C8.96996 8.80126 7.73053 8.73746 6.81234 8.32508L5.98074 7.91041C5.98074 8.17698 5.98074 8.44355 5.98074 8.71012C5.98074 8.96986 5.95112 9.29111 6.06276 9.44604C6.28376 9.75134 6.65741 9.945 7.02879 10.0999C7.89685 10.4645 8.86516 10.5624 9.82891 10.5624V10.5647ZM9.90638 12.9684L10.3347 12.9479C10.4965 12.9433 10.6286 12.9616 10.7653 12.9297C10.7198 12.7406 10.5671 12.474 10.4783 12.2986C10.3894 12.1208 10.1912 11.7085 10.1342 11.5102C10.1183 11.4533 10.1023 11.3713 10.0818 11.328C10.0431 11.2482 10.0203 11.2687 9.90638 11.2687C9.61475 11.2687 8.26823 11.1161 8.01988 11.066C7.75103 11.0113 7.5232 10.9657 7.28169 10.886C7.03335 10.8039 6.84652 10.7265 6.61868 10.6308C6.48198 10.5716 6.09466 10.3414 5.98074 10.3323C5.98074 10.6057 5.98074 10.8791 5.98074 11.1525C5.98074 11.4328 5.95112 11.713 6.08554 11.8702C6.83968 12.777 8.7558 12.9707 9.90866 12.9707L9.90638 12.9684ZM9.49627 8.16331C10.3643 8.16331 10.2048 8.23166 10.3552 7.92864C10.4008 7.8375 10.4486 7.76004 10.4919 7.67574C10.6081 7.4479 10.9567 6.94438 11.1504 6.753C11.2301 6.67325 11.2643 6.6368 11.3372 6.55022C11.4056 6.47048 11.4967 6.4363 11.5081 6.30871L10.7767 6.39757C10.517 6.4363 10.2595 6.39529 9.99523 6.4363C9.74461 6.47503 9.11806 6.42263 8.82871 6.39073C8.22494 6.32238 7.68496 6.2472 7.10625 6.04214C6.66881 5.88949 6.35667 5.70722 5.98074 5.50672C5.98074 5.84848 5.93289 6.78489 6.03314 6.99906C6.23136 7.42056 7.04702 7.74181 7.47079 7.86484C8.10874 8.04711 8.78997 8.16331 9.49627 8.16331ZM3.30364 11.2892C3.80033 11.2892 4.64789 11.3097 5.13546 11.2254C5.17419 11.2186 5.26077 11.2072 5.30178 11.1958C5.39519 11.173 5.37925 11.1753 5.37697 11.0568C5.37013 10.5078 5.39519 10.0111 5.39519 9.45515C5.18558 9.4711 4.94863 9.51439 4.72991 9.53261C4.60232 9.54401 4.48384 9.53261 4.37448 9.54856L3.71603 9.5554C3.58616 9.5554 3.52237 9.54173 3.42212 9.53489C3.31959 9.52806 3.21023 9.53945 3.1077 9.53489C2.44925 9.51667 1.41259 9.32984 0.811102 9.06099C0.665286 8.99492 0.526305 8.94707 0.398716 8.86733C0.264292 8.78531 0.141259 8.70784 0.00455675 8.63493V10.0225C0.00683513 10.0703 0.0091135 10.0999 0.0136703 10.1113C0.0410108 10.182 0.318973 10.4143 0.389602 10.4759C0.524026 10.5943 0.678956 10.6741 0.849834 10.7584C1.45588 11.0614 2.57684 11.2915 3.30592 11.2915L3.30364 11.2892ZM3.45857 8.90606C4.20588 8.90606 4.31069 8.9129 5.04205 8.8286C5.14457 8.8172 5.26077 8.78986 5.3519 8.78759C5.35418 8.71923 5.36557 8.7124 5.37013 8.65088C5.40659 8.17926 5.39064 7.55043 5.39064 7.06969C5.099 7.06969 4.84383 7.14943 4.37448 7.14943C3.35149 7.14943 2.51761 7.17677 1.55385 6.90337C1.08906 6.76894 0.760978 6.67781 0.35087 6.44542C0.232394 6.37706 0.120754 6.29504 0 6.23125V7.65751C0.00455675 7.68941 0.0136703 7.71447 0.0227838 7.73042C0.072908 7.80333 0.346313 8.05623 0.410108 8.10635C1.07539 8.62126 2.60874 8.90606 3.4563 8.90606H3.45857ZM3.65452 13.7112C4.04867 13.7112 4.30385 13.7157 4.70485 13.6656L5.35418 13.5745L5.39292 11.8566C5.20837 11.8566 5.05799 11.9158 4.86661 11.9158C4.66384 11.9135 4.50207 11.934 4.28107 11.934C2.84341 11.934 2.02092 11.9568 0.676678 11.3963C0.232394 11.2118 0.271127 11.1594 0.00227838 11.0181V12.1322C0.0113919 12.2986 0.0318973 12.4421 0.0683513 12.5332C0.186827 12.834 0.672121 13.08 0.972866 13.2122C1.63587 13.4993 2.70899 13.7134 3.65452 13.7134V13.7112ZM9.80613 15.3721C10.4213 15.3721 11.0843 15.3037 11.5969 15.1875C11.9 15.1192 12.9184 14.8481 13.0505 14.6681C13.03 14.5952 12.9799 14.5929 12.907 14.5564L12.383 14.2807C12.0367 14.0711 11.7655 13.882 11.4557 13.6269C11.2916 13.4924 11.3144 13.5357 11.041 13.5562C10.3757 13.6109 10.2778 13.6337 9.59196 13.6337C8.74669 13.6337 7.88546 13.4719 7.1541 13.2395L6.74171 13.0846C6.37945 12.9206 6.30654 12.8682 5.98074 12.695V14.1008C5.99441 14.2306 6.3749 14.5519 6.47742 14.6202C7.29308 15.1579 8.66694 15.3698 9.80841 15.3698L9.80613 15.3721ZM0.00227838 5.15585C0.00227838 5.52495 0.571872 5.80975 0.849834 5.94873C1.75891 6.40896 2.90037 6.50237 3.92792 6.50237C4.19221 6.50237 4.76181 6.4887 5.02838 6.44997C5.13546 6.43402 5.27216 6.4044 5.37241 6.4044C5.37241 5.94417 5.4157 4.40171 5.37925 4.11464C5.33368 3.76832 5.4476 3.79794 4.86661 3.76832L4.4565 3.7501C3.28086 3.7501 2.46748 3.6863 1.3488 4.05996C0.929577 4.19894 0.517191 4.37893 0.214167 4.68423C0.125311 4.77309 0.00455675 4.89156 0.00455675 5.06016V5.15813L0.00227838 5.15585ZM10.1 4.0235C8.79681 4.0235 7.9128 3.98021 6.73716 3.49947C6.57539 3.43112 6.07643 3.16683 5.97846 3.14405L5.97618 4.53386C5.98074 4.62727 5.99441 4.62044 6.05137 4.67512C6.37034 4.98042 6.5959 5.14218 7.03107 5.31762C7.70775 5.58875 8.28417 5.72773 9.04515 5.72317C9.20236 5.72089 9.27755 5.74367 9.43703 5.74367C10.0704 5.73912 10.8587 5.76874 11.4374 5.65482C11.8589 5.57052 12.5903 5.35179 12.9503 5.13535C13.5973 4.74575 13.6566 4.65005 13.6566 3.69314C13.6566 3.47897 13.6384 3.33999 13.6384 3.1281C13.5336 3.13721 13.1417 3.39467 12.9093 3.49264C12.3215 3.74326 11.7815 3.8549 11.1367 3.94604C10.8223 3.9916 10.4532 4.02578 10.1023 4.02578L10.1 4.0235ZM5.97846 1.91373C5.97846 2.538 6.96272 2.91621 7.46168 3.06886C8.96769 3.53365 11.6243 3.52682 13.0391 2.68382C13.8525 2.19624 13.7477 1.66538 13.0164 1.26211C12.7133 1.09351 12.424 0.98187 12.0686 0.881621C10.7198 0.503411 8.90161 0.428224 7.50953 0.8839C7.186 0.990983 6.88069 1.09351 6.61185 1.25527C6.42958 1.36692 5.97846 1.67677 5.97846 1.91145V1.91373ZM19.1429 9.80374V10.2526C19.1201 10.6832 19.0313 11.1093 18.8763 11.508C18.6804 12.0047 18.3751 12.5629 18.006 12.9433C17.8534 13.0983 17.8328 13.1507 17.6141 13.3329C17.4227 13.4947 17.2336 13.6246 17.0195 13.7522C15.8666 14.4471 14.1419 14.5177 12.9002 13.898C12.6518 13.775 12.4741 13.6565 12.2622 13.4993C11.7633 13.1256 11.1845 12.4763 10.918 11.893C10.5694 11.132 10.4896 10.6672 10.4896 9.78096C10.4896 9.19997 10.7084 8.52329 10.9066 8.12686C11.1458 7.64384 11.4033 7.31348 11.7746 6.94438C12.0549 6.66414 12.3123 6.47731 12.6473 6.27454C12.9799 6.07176 13.8161 5.73456 14.1442 5.71861C15.3016 5.67077 15.8507 5.66621 16.8577 6.18796L17.5936 6.7211C17.646 6.77122 17.6779 6.78489 17.7326 6.8373C17.9377 7.04007 18.186 7.2793 18.3546 7.50486C18.5437 7.76004 18.6804 8.04483 18.808 8.3433C19.0039 8.80353 19.1179 9.30022 19.1452 9.80374H19.1429Z" fill="black"/>
</svg>
