<svg width="26" height="21" viewBox="0 0 26 21" fill="none" xmlns="http://www.w3.org/2000/svg">
<path fill-rule="#fff" clip-rule="#fff" d="M17.5532 3.38521C17.5532 2.37884 17.5532 2.37887 18.5596 2.37887C19.1886 2.37887 19.0628 2.88203 19.0628 3.38521C19.0628 4.0142 18.5596 3.88841 18.0564 3.88841C17.679 3.88841 17.5532 3.69971 17.5532 3.38521ZM9.06198 17.1599C9.06198 17.9776 8.87328 17.7889 10.4457 17.7889C10.9489 17.7889 11.4521 17.7889 12.0182 17.7889C12.0182 17.4744 11.8924 17.726 12.0811 17.0341H9.75386C9.50226 17.0341 9.06198 16.9713 9.06198 17.1599ZM9.06198 15.5875C9.06198 16.4052 8.87328 16.2165 10.6973 16.2165C11.2634 16.2165 11.8924 16.2165 12.4585 16.2165C12.5214 16.0278 12.5843 15.9649 12.6472 15.8391C12.7101 15.7133 12.773 15.5875 12.8359 15.4617H9.43937C9.25067 15.4617 9.06198 15.3988 9.06198 15.5875ZM9.06198 14.015C9.06198 14.4553 8.99908 14.644 9.18777 14.644H13.2133C13.3391 14.644 13.402 14.3924 13.4649 14.2666C13.5278 14.0779 13.6535 14.015 13.6535 13.8263H9.50226C9.25067 13.8263 8.99908 13.7634 8.99908 13.9521L9.06198 14.015ZM9.06198 12.4426C9.06198 13.2603 8.87328 13.0716 10.1941 13.0716H14.1567C14.2196 12.7571 14.597 12.4426 14.6599 12.3168H9.56516C9.31357 12.3168 8.99908 12.2539 8.99908 12.4426H9.06198ZM9.06198 10.8701C9.06198 11.3104 8.99908 11.4991 9.18777 11.4991H15.4776C15.6034 11.4991 16.2953 10.8701 16.3582 10.7443H9.87965C9.43937 10.7443 9.06198 10.6814 9.06198 10.8701ZM21.39 7.28492C21.4529 7.53652 22.648 8.60575 22.8996 8.92024L23.7802 9.92664C24.0318 9.73794 24.9123 8.98315 25.0381 8.73156C25.1639 8.54286 25.2268 8.35419 25.2268 8.16549V7.78807C25.101 6.9075 24.2834 6.08984 23.4657 6.08984C22.8367 6.08984 22.648 6.08985 22.1448 6.59304C22.019 6.71884 21.4529 7.22202 21.3271 7.28492H21.39ZM3.65273 10.9959V17.3486C3.65273 17.4744 3.84142 17.6631 3.96722 17.6631H7.23793C7.36372 17.6631 7.55242 17.4744 7.55242 17.3486V10.9959C7.55242 10.8701 7.36372 10.6814 7.23793 10.6814H3.96722C3.84142 10.6814 3.65273 10.8701 3.65273 10.9959ZM15.4147 15.8391L14.9115 15.273C15.0373 15.0214 15.1631 14.7698 15.3518 14.5182L15.855 13.7634L17.0501 15.0214C16.7985 15.2101 16.5469 15.3359 16.2953 15.4617C16.0437 15.5875 15.7292 15.7133 15.4776 15.8391H15.4147ZM12.8988 17.3486C12.8988 18.0405 14.0938 17.2857 14.6599 17.0341C15.1631 16.8454 15.6663 16.5938 16.1066 16.4052C16.9872 16.0278 17.4903 15.902 18.1193 15.273C18.308 15.0843 18.4338 14.8956 18.6225 14.7698L22.4593 11.1846C22.648 10.9959 22.8367 10.8701 22.9625 10.6185C22.7109 10.2411 21.8932 9.54925 21.4529 9.04607C21.2642 8.79447 20.6982 8.35418 20.5095 8.10258C20.3837 8.16548 20.3837 8.22839 20.2579 8.35418L16.1695 12.191C15.2889 13.0716 15.2889 12.757 14.7228 13.8892C14.5341 14.2666 12.8988 17.2228 12.8988 17.3486ZM3.65273 7.09624V8.85738C3.65273 8.98318 3.84142 9.17184 3.96722 9.17184H18.0564C18.1822 9.17184 18.3709 8.98318 18.3709 8.85738V7.09624C18.3709 6.97044 18.1822 6.78173 18.0564 6.78173H3.96722C3.84142 6.78173 3.65273 6.97044 3.65273 7.09624ZM14.4712 3.19653C14.4712 2.19016 14.4712 2.19013 15.4776 2.19013C16.1066 2.19013 15.9808 2.69334 15.9808 3.19653C15.9808 3.82551 15.4776 3.69972 14.9744 3.69972C14.597 3.69972 14.4712 3.51102 14.4712 3.19653ZM11.3892 3.19653C11.3892 2.19016 11.3892 2.19013 12.3956 2.19013C13.0246 2.19013 12.8988 2.69334 12.8988 3.19653C12.8988 3.82551 12.3956 3.69972 11.8924 3.69972C11.515 3.69972 11.3892 3.51102 11.3892 3.19653ZM0.570711 3.19653V18.1663C0.570711 19.4872 1.82868 20.7451 3.14954 20.7451H18.8741C20.1321 20.7451 21.2642 19.6759 21.39 18.4179C21.4529 17.9776 21.39 14.2666 21.39 13.5118L20.0063 14.7698C19.6918 15.0843 19.8176 15.3988 19.8176 16.1536C19.8176 17.2857 20.195 19.1727 18.5596 19.1727H3.33823C2.58346 19.1727 2.08027 18.6695 2.08027 17.9147V5.27218H19.8176V7.34779C20.1321 7.15909 20.6982 6.53012 21.0126 6.27853C21.1384 6.21563 21.39 6.02695 21.39 5.90115V3.19653C21.39 1.87566 20.1321 0.617676 18.8112 0.617676H3.08664C1.76578 0.617676 0.507812 1.87566 0.507812 3.19653H0.570711Z" fill="#fff"/>
</svg>
