<svg width="17" height="21" viewBox="0 0 17 21" fill="none" xmlns="http://www.w3.org/2000/svg">
<path fill-rule="evenodd" clip-rule="evenodd" d="M7.68523 6.62121C7.56555 6.14144 7.34463 5.71738 6.98562 5.36452C6.60206 4.98689 5.69992 4.76093 5.48819 4.50403C4.8254 3.69925 5.69686 3.13281 6.58672 3.45163C7.10836 3.63734 7.4551 3.94997 7.89083 4.21616C8.13631 2.37756 9.44654 1.07135 11.1342 0.418239C12.1008 0.0437085 14.2457 -0.371061 15.0159 0.594671C15.6633 1.40873 14.6845 3.31853 14.1628 3.99021C12.8863 5.63381 10.9961 6.22501 8.99855 5.95881L9.1489 6.63978C11.8001 6.44787 12.7881 6.44787 14.9269 8.17195C15.4669 8.60838 16.2678 9.82483 16.5317 10.481C16.992 11.6077 17.0932 12.8799 16.9214 14.0809C16.4397 17.4423 13.8222 21.2248 10.0909 20.9896C9.55702 20.9555 8.96479 20.6893 8.49531 20.68C7.81104 20.6676 7.0347 20.9896 6.24303 20.9927C4.84993 20.9988 3.68392 20.29 2.67439 19.3676C-1.07531 15.9442 -1.20113 8.69196 4.34977 6.8193C5.73367 6.35192 6.38112 6.52216 7.68523 6.6243V6.62121ZM9.29926 4.52879C10.9225 4.80117 12.2634 4.16973 13.2024 2.8109C13.3343 2.61899 13.4571 2.42708 13.5461 2.21041C13.6381 1.98755 13.7179 1.78326 13.6412 1.55421C11.7847 0.972296 9.48643 2.65614 9.29619 4.52879H9.29926ZM15.5038 13.8023C15.7769 12.0039 15.1171 10.2148 13.7056 9.07268C12.8495 8.37624 11.9013 7.91194 10.7813 7.94909C10.0112 7.97385 9.35755 8.24314 8.62418 8.31743C7.7558 8.40409 6.88743 7.81908 5.64776 7.99552C2.9751 8.37624 1.134 10.871 1.42551 13.567C1.60962 15.2725 2.41663 16.944 3.6072 18.1636C5.4974 20.0981 6.12951 19.5162 8.28666 19.185C8.73159 19.1169 9.74419 19.4791 10.3027 19.5224C11.4932 19.6183 12.4475 19.1138 13.2975 18.3028C14.3868 17.2659 15.2705 15.2973 15.4976 13.8023H15.5038Z" fill="#000"/>
</svg>
