<svg width="12" height="13" viewBox="0 0 12 13" fill="none" xmlns="http://www.w3.org/2000/svg">
<path fill-rule="evenodd" clip-rule="evenodd" d="M0.0424805 6.46515V10.1558C0.0424805 10.9376 0.296927 11.5942 1.01015 11.9604C1.21062 12.0628 1.46314 12.1577 1.75807 12.1577H9.70759C10.1895 12.1577 10.5172 11.9509 10.8468 11.6776C10.9124 11.6226 10.9104 11.6112 10.9663 11.5505C11.2805 11.2222 11.4232 10.7858 11.4232 10.1558V6.46515C11.4232 6.33042 11.4058 6.15585 11.3634 6.05718C11.2979 5.90727 11.267 5.87312 11.1591 5.76876C10.9895 5.60557 10.6907 5.53916 10.4112 5.62265C10.203 5.68526 9.98517 5.91297 9.93891 6.13498C9.87722 6.42909 9.90999 9.39303 9.90999 10.0192C9.90999 10.3722 9.96011 10.6852 9.59386 10.6852H1.8718C1.73301 10.6852 1.61542 10.6188 1.5653 10.5202C1.50169 10.3968 1.53253 9.27159 1.53253 9.08373C1.53253 8.74977 1.55759 6.38166 1.51326 6.16913C1.33977 5.3513 0.0424805 5.32284 0.0424805 6.46135L0.0424805 6.46515ZM3.74545 1.55245L3.76858 5.53156H2.86452C2.45394 5.53156 2.14745 5.95092 2.43852 6.32853L4.76709 8.63781C5.07358 8.93952 5.50922 9.60745 6.03161 9.29436C6.16847 9.21087 7.70672 7.66818 7.95153 7.42719L9.00208 6.37217C9.29315 6.07046 9.13509 5.53346 8.578 5.53346H7.72021V1.46517C7.72021 1.10654 7.38288 0.776367 7.02048 0.776367H4.42397C4.08857 0.776367 3.74545 1.11033 3.74545 1.55435V1.55245Z" fill="black"/>
</svg>
