<svg width="11" height="18" viewBox="0 0 11 18" fill="none" xmlns="http://www.w3.org/2000/svg">
<path fill-rule="evenodd" clip-rule="evenodd" d="M5.18844 16.3384C4.97536 15.6325 6.04458 15.3377 6.24244 16.0226C6.44792 16.7265 5.39201 17.0157 5.18844 16.3384ZM2.04358 4.42672L9.39871 4.42863L9.39681 14.4549L2.03789 14.453L2.04167 4.42672H2.04358ZM4.39889 2.50518C4.4788 2.48045 6.56587 2.48425 6.92735 2.48996C7.29453 2.49567 7.24696 2.86476 7.04149 2.90851L4.48642 2.91613C4.18773 2.90281 4.14966 2.58128 4.39889 2.50518ZM2.38413 1.0098C1.52039 1.15249 0.864014 1.8355 0.852599 2.79246C0.839281 3.90163 0.852599 5.02221 0.852599 6.13138C0.852599 8.34781 0.864014 10.5699 0.852599 12.7864C0.848794 13.8898 0.843086 15.0009 0.852599 16.1025C0.860209 17.0613 1.55845 17.7462 2.39175 17.8794C2.7285 17.9346 5.17133 17.9003 5.71735 17.9003C6.29001 17.9003 8.66245 17.9327 9.03154 17.8794C9.88197 17.7558 10.5707 17.0556 10.5821 16.1025C10.5954 14.9914 10.5821 13.8746 10.5821 12.7636C10.5821 10.5452 10.5821 8.32688 10.5821 6.10855C10.5821 5.00509 10.5935 3.89592 10.5821 2.79246C10.5745 1.82408 9.88195 1.12586 9.01821 1.00219C8.64341 0.948922 4.76039 0.983167 4.03743 0.983167C3.57322 0.983167 2.80649 0.939409 2.38413 1.0098Z" fill="black"/>
</svg>
