<svg width="20" height="21" viewBox="0 0 20 21" fill="none" xmlns="http://www.w3.org/2000/svg">
<path fill-rule="evenodd" clip-rule="evenodd" d="M2.8537 11.8673L3.54559 12.1818C3.67138 12.2447 3.79718 12.2447 3.92298 12.3076C4.04877 12.3705 4.17457 12.4334 4.30036 12.4334C4.30036 12.3705 4.36326 12.1818 4.42616 12.1189L4.80355 11.1755C4.99225 10.7352 5.11804 10.2949 5.30674 9.8546C5.62123 8.97403 5.93572 8.15635 6.31311 7.27578C6.6905 6.3952 7.00499 5.57753 7.31948 4.69695C7.44528 4.38246 8.20006 2.3697 8.32585 2.11811L17.7606 4.50825C17.8864 4.50825 17.9493 4.57115 18.0751 4.57115C18.0122 4.69695 17.9493 4.88564 17.9493 5.07434C17.7606 5.70332 17.3203 6.96128 17.0687 7.52736C16.88 8.09345 16.6913 8.65954 16.4397 9.22562C16.4397 9.28852 16.3768 9.41431 16.3768 9.47721C16.1252 10.1062 15.8736 10.7981 15.6849 11.4271C15.5592 11.7416 15.4334 12.056 15.3076 12.3705C15.2447 12.5592 15.1818 12.685 15.1189 12.8108C15.056 12.9995 14.9931 13.1253 14.9302 13.314C14.6786 13.943 14.427 14.572 14.1754 15.2009C14.0496 15.5154 13.9238 15.8299 13.798 16.1444L13.1061 17.4024C13.0432 17.4653 13.0432 17.5282 12.9803 17.5911C12.8545 17.7798 12.6658 17.9685 12.4771 18.0943C12.3513 18.2201 12.2255 18.283 12.0997 18.3459C11.9111 18.4088 11.8482 18.4717 11.5966 18.5346C11.0305 18.5975 10.3386 18.5975 9.96121 18.283C9.45802 17.8427 9.14353 17.3395 8.95483 16.6476C8.89194 16.3331 8.76614 15.8299 8.76614 15.4525C8.57745 15.3896 6.81629 14.6978 6.6276 14.572C5.87282 14.2575 5.18094 14.0059 4.48906 13.6914C3.92298 13.5027 0.337775 11.9931 0.14908 11.9931C0.0861816 11.9931 0.0861816 12.1189 0.0861816 12.3076V13.3769C0.0861816 14.3833 0.715164 15.7041 1.53284 16.2073C1.65864 16.2702 1.72154 16.3331 1.84733 16.396C2.09893 16.5218 2.35052 16.6476 2.53921 16.7734L4.36326 17.654C4.42616 17.654 4.48906 17.7169 4.55196 17.7169C4.61486 17.7798 4.67775 17.7798 4.74065 17.7798C4.86645 17.8427 4.99224 17.9056 5.11804 17.9685C5.68413 18.2201 6.37601 18.5975 7.00499 18.7862C7.38238 18.912 7.75977 19.1006 8.13716 19.2893C8.64034 19.5409 9.14353 19.7925 9.70961 19.9183C10.0241 19.9812 10.3386 20.0441 10.5902 20.0441H11.1563C12.4771 19.9812 13.6093 19.2893 14.427 18.0314L14.7415 17.5282C14.9931 17.0879 15.1818 16.6476 15.3705 16.2073C15.8107 15.201 16.1881 14.1317 16.5655 13.1253L17.8235 9.72881C17.8864 9.54011 17.9493 9.35142 18.0122 9.16272L18.4525 8.03055C18.6412 7.46447 18.8928 6.89838 19.0815 6.33229C19.1444 6.1436 19.2072 5.9549 19.2701 5.76621C19.3959 5.38882 19.8362 4.25666 19.8362 4.00507C19.8362 3.81637 19.8362 3.69057 19.7104 3.50188C19.6475 3.37608 19.5846 3.37608 19.4588 3.31318C18.9557 3.06159 11.7853 1.42623 10.9676 1.23754C10.5902 1.11174 8.07426 0.545654 7.82267 0.545654C7.57107 0.545654 7.31948 0.734359 7.25658 0.985952L4.04877 8.97402C3.73428 9.8546 3.35689 10.6723 3.0424 11.49C2.9795 11.6158 2.9166 11.7416 2.9166 11.8673H2.8537ZM6.37601 13.3769C6.37601 14.1946 7.63397 14.1946 7.63397 13.3769C7.63397 13.2511 7.57107 13.0624 7.50818 12.9366C7.06789 12.4963 6.4389 12.8108 6.4389 13.3769H6.37601ZM10.087 15.2009C10.2128 15.2009 10.3386 15.0752 10.4644 15.0123C10.5902 14.8865 10.6531 14.8236 10.6531 14.572C10.6531 14.3204 10.5902 14.2575 10.4644 14.1317C10.2757 13.943 9.96121 13.8801 9.70961 14.0059C9.39512 14.1946 9.26933 14.6978 9.64672 15.0752C9.77251 15.201 9.96121 15.2009 10.1499 15.2009H10.087ZM7.82267 6.20651C7.82267 6.4581 7.88556 6.70968 8.07426 6.89838C8.51455 7.27577 9.45802 7.14998 9.45802 6.26941C9.45802 5.51463 8.51455 5.26303 8.07426 5.70332C7.94846 5.82912 7.82267 6.01781 7.82267 6.20651ZM8.95483 3.81637V4.00507C8.95483 4.38246 9.33222 4.69695 9.70961 4.69695C9.96121 4.69695 10.2128 4.69694 10.4015 4.44535C10.5902 4.25666 10.6531 4.13086 10.6531 3.81637C10.6531 3.31318 10.0241 2.6842 9.26933 3.25028C9.14353 3.37608 9.01773 3.56477 9.01773 3.75347L8.95483 3.81637ZM10.3386 7.02418C10.3386 7.33867 10.5273 7.59027 10.7789 7.71606C11.4079 7.96766 12.0368 8.15635 12.7287 8.34505C13.0432 8.47084 14.1754 8.78533 14.4899 8.78533C14.8044 8.78533 15.1818 8.47084 15.1818 8.03055C15.1818 7.46447 14.8044 7.40157 14.4899 7.27578C14.3012 7.21288 14.1125 7.14998 13.9238 7.08708C13.5464 6.96128 11.345 6.26941 11.0305 6.26941C10.8418 6.26941 10.6531 6.3952 10.5273 6.45809C10.4015 6.58389 10.3386 6.77258 10.3386 6.96128V7.02418ZM11.4708 4.63405C11.4708 4.88564 11.6595 5.20013 11.7853 5.26302C11.9111 5.32592 12.8545 5.64042 13.169 5.70332L15.2447 6.33229C15.5592 6.39519 15.6849 6.4581 15.9365 6.26941C16.0623 6.20651 16.0623 6.14361 16.1881 6.08071C16.3768 5.82911 16.3139 5.26303 16.0623 5.07434C15.8736 4.88564 13.7351 4.31955 13.3577 4.19375C13.2319 4.13085 12.3513 3.87927 12.2255 3.87927C11.7853 3.87927 11.5337 4.31956 11.5337 4.63405H11.4708ZM7.13079 7.84186C7.25658 7.84186 7.63397 8.03055 7.69687 8.09345C7.75977 8.21925 7.75977 9.22562 7.82267 9.41432L7.88556 10.6094C7.88556 10.9239 7.00499 11.1126 7.00499 11.7415C7.00499 11.9931 7.00499 12.1189 7.31948 12.3076C7.63397 12.4963 9.83541 13.3769 10.4015 13.5656C10.4644 13.5656 10.8418 13.7543 10.9676 13.7543C11.0934 13.7543 11.1563 13.3769 11.1563 13.2511C11.1563 13.1882 9.52092 12.5592 9.45802 12.5592L7.75977 11.8673C7.82267 11.7416 7.88556 11.6786 7.94846 11.6157L8.20006 11.4271L9.39512 11.9302C9.70961 12.056 10.4015 12.3705 10.6531 12.3705C10.9676 12.3705 12.0368 11.3642 12.4771 11.0497C12.6029 10.9239 12.9803 10.6723 12.9803 10.4836C12.9803 10.232 13.0432 10.2949 12.7287 10.1691L11.8482 9.79171C11.4708 9.66591 11.0934 9.47722 10.716 9.35142L8.70324 8.53374C8.64034 8.47084 8.51455 8.47083 8.38875 8.40794C8.38875 8.34504 8.38875 8.28214 8.38875 8.03055C8.38875 7.90475 8.38875 7.84186 8.38875 7.65316C8.20006 7.59027 7.50817 7.27578 7.38238 7.27578C7.31948 7.46447 7.19368 7.65316 7.19368 7.90475L7.13079 7.84186Z" fill="#30BA29"/>
</svg>
