<svg width="18" height="18" viewBox="0 0 18 18" fill="none" xmlns="http://www.w3.org/2000/svg">
<path fill-rule="#fff" clip-rule="#fff" d="M17.3263 17.9368H0.469585C0.217992 17.9368 0.0292969 17.6853 0.0292969 17.4337C0.0921951 16.9934 0.155093 16.5531 0.217991 16.0499C0.343788 15.5467 0.469584 15.0436 0.658279 14.6662C0.784076 14.4146 0.909872 14.2258 1.09857 14.1001C1.28726 13.9114 1.47596 13.7856 1.79045 13.7227C2.29363 13.5969 3.4258 13.2195 4.36928 12.8421C4.99826 12.5905 5.50144 12.3389 5.69014 12.1502C5.87883 11.9615 6.00463 11.7728 6.13043 11.5212C6.19333 11.3326 6.25622 11.1439 6.25622 10.8923C6.00463 10.7036 5.75304 10.3891 5.56434 10.0117C5.37565 9.69721 5.24985 9.3827 5.18695 9.00531C4.99826 8.87951 4.93536 8.69084 4.80956 8.43925V8.37634C4.74667 8.12474 4.62087 7.68445 4.55797 7.24417C4.49507 6.92967 4.49507 6.61519 4.55797 6.36359L4.62087 6.23777C4.55797 6.11197 4.49507 5.92328 4.43217 5.79749C4.30638 5.54589 4.24348 5.23143 4.18058 5.04274C4.05479 4.16216 4.18058 3.40738 4.55797 2.7784C4.93536 2.08652 5.62724 1.52042 6.38202 1.14303C7.0739 0.828537 8.08027 0.45113 9.02375 0.388232C9.77852 0.325334 10.5962 0.451142 11.1623 0.89143C11.351 1.01723 11.4768 1.14306 11.6026 1.26885C11.7284 1.39465 11.8542 1.52044 11.9171 1.70914C12.2316 1.70914 12.4832 1.83489 12.6718 1.96069L12.7347 2.0236C12.9234 2.0865 13.0492 2.21233 13.175 2.40102C13.3008 2.52682 13.3637 2.71548 13.4895 2.90417C13.6153 3.21866 13.6782 3.65897 13.6782 4.09925C13.6782 4.53954 13.6782 4.91693 13.5524 5.23142V5.29434C13.4895 5.60883 13.3637 5.79753 13.2379 5.98622C13.175 6.04912 13.0492 5.86042 13.1121 5.98622C13.175 6.04912 13.175 6.11197 13.2379 6.23777C13.3008 6.36357 13.3008 6.4894 13.3008 6.61519V6.99257C13.3008 7.18126 13.2379 7.49574 13.1121 7.81023C13.0492 8.12472 12.9234 8.37633 12.8605 8.56502C12.7347 8.81662 12.6718 8.87951 12.546 9.00531C12.4832 9.2569 12.4203 9.50851 12.2945 9.76011C12.1687 10.0746 11.98 10.3262 11.7284 10.5778L11.4768 10.8294C11.4768 11.081 11.5397 11.2696 11.6026 11.4583C11.6655 11.7099 11.7913 11.8987 11.98 12.0244C12.1687 12.2131 12.6718 12.4647 13.2379 12.7163C14.1814 13.0937 15.3136 13.4711 15.8168 13.6598C16.1312 13.7856 16.3828 13.8485 16.5715 14.0372C16.7602 14.2259 16.886 14.4146 17.0118 14.6032C17.2005 14.9806 17.3892 15.4838 17.515 16.0499C17.6408 16.5531 17.7037 17.0563 17.7037 17.4337V17.4966C17.7037 17.7482 17.515 17.9998 17.2005 17.9998L17.3263 17.9368Z" fill="#fff"/>
</svg>
