<svg width="24" height="22" viewBox="0 0 24 22" fill="none" xmlns="http://www.w3.org/2000/svg">
<path fill-rule="evenodd" clip-rule="evenodd" d="M0.765137 7.29853V13.0223C0.765137 13.2739 1.01673 13.4626 1.26832 13.4626H6.92917C7.30655 13.4626 7.49525 13.2739 7.49525 12.8965V7.36145C7.49525 6.98406 7.24366 6.79536 6.86627 6.79536H1.33122C1.01673 6.79536 0.765137 6.98404 0.765137 7.29853ZM13.1561 4.02785C13.1561 4.27944 13.1561 4.46813 12.9045 4.59393C12.7787 4.65683 12.4013 4.71971 12.2755 4.71971C11.8981 4.71971 11.2691 4.59392 10.9547 4.53102C11.0176 4.84551 11.8981 5.28579 12.3384 5.28579C13.0303 5.28579 13.4077 5.22289 13.9738 4.71971C14.477 4.27942 14.5399 3.71335 14.5399 3.08436C14.5399 2.76987 14.4141 2.58118 14.3512 2.32959C13.9109 2.32959 13.3448 2.51827 13.1561 2.70696C12.8416 2.95856 13.1561 3.58756 13.1561 4.02785ZM18.754 11.8272C19.383 11.8272 19.4459 10.3177 19.2572 9.62579C19.1314 9.1855 19.0056 9.0597 18.6911 9.0597C17.9993 9.0597 17.3703 9.75157 17.3703 10.4434C17.3703 11.1353 17.9993 11.8272 18.754 11.8272ZM9.94828 6.79536C9.94828 7.55014 10.8918 8.36782 11.2062 8.8081L11.7723 9.3113C12.4642 9.87738 13.7222 10.4434 14.9172 10.4434C15.3575 10.4434 16.1123 10.5693 16.2381 9.75159C16.3639 8.87101 15.2317 8.9968 15.043 8.9339C14.4141 8.871 14.2254 8.93389 13.4077 8.5565C12.8416 8.30491 12.3384 7.80173 11.8981 7.36145C11.4578 6.85826 11.2691 6.29218 11.1433 6.16639C10.7031 5.7261 9.88538 6.04058 9.88538 6.66956L9.94828 6.79536ZM15.6091 10.6322H14.8543C14.6028 10.6322 14.5399 10.5692 14.2883 10.5692C14.2883 10.8837 14.477 11.0724 14.7914 11.0724C14.9172 11.0724 15.672 10.7579 15.7349 10.695C15.7978 10.8837 15.9236 11.2611 15.9865 11.4498L17.4961 15.9156C17.559 16.1672 17.6848 16.4188 17.7477 16.6704L18.188 16.293C18.3137 16.1672 18.5653 16.0414 18.6911 15.9785C19.6975 15.5382 20.7039 15.5382 21.7103 16.1043C22.2134 16.4188 22.465 16.6704 22.7795 17.1107C22.9682 17.0478 23.0311 17.0478 23.0311 16.8591C23.0311 16.4817 22.1505 15.6011 21.8361 15.3495C21.27 14.9721 20.641 14.7834 19.6975 14.7834C19.5088 14.4061 19.4459 13.9029 19.0056 13.3368C18.8169 13.0852 18.754 12.9594 18.5024 12.7707C18.1251 12.3933 17.7477 12.1417 17.2445 11.8901C16.9929 11.7643 17.0558 11.7643 16.8671 11.1982C16.8042 10.9466 16.6784 10.695 16.6155 10.4434C16.5526 10.3176 16.5526 10.1919 16.4897 10.0661C16.4268 9.87738 16.4268 9.81448 16.301 9.75159C16.301 10.129 15.9236 10.5064 15.5462 10.5064L15.6091 10.6322ZM9.88538 2.32959C9.88538 3.96494 10.766 4.53102 12.2126 4.53102C12.9674 4.53102 12.9674 4.34232 12.9674 3.96493C12.9674 3.39885 12.6529 2.83277 13.0932 2.51828C13.2819 2.39248 13.5335 2.26668 13.7222 2.26668C13.9738 2.20378 14.3512 2.14088 14.6028 2.14088C14.5399 2.01508 14.4141 1.13451 13.848 0.694222C12.8416 -0.123455 11.5207 -0.18634 10.5773 0.757134C10.1999 1.13452 9.82249 1.76351 9.82249 2.32959H9.88538ZM5.6712 18.8718C5.6712 17.3623 7.74684 17.4881 7.74684 18.746V18.9347C7.74684 19.4379 7.24366 19.8782 6.61467 19.8782C6.11149 19.8782 5.6712 19.375 5.6712 18.8718ZM4.03585 18.8089C4.03585 20.5701 5.85989 22.2054 7.87264 21.3249C8.43872 21.0733 9.00481 20.5701 9.2564 20.004C9.69669 18.8718 9.50799 17.8025 8.69032 16.9849C8.37583 16.6704 8.31293 16.6075 7.87264 16.4188C7.68394 16.3559 7.55815 16.293 7.36945 16.2301C6.80337 16.1043 6.17439 16.1672 5.6712 16.4188C5.35671 16.5446 5.10512 16.7333 4.85352 16.9849C4.35034 17.4881 4.03585 18.1799 4.03585 18.8718V18.8089ZM20.1378 17.8026C21.2071 17.8026 21.5845 18.9347 20.9555 19.5637C19.9491 20.5701 18.5024 19.1863 19.383 18.117C19.5088 17.9283 19.8233 17.8026 20.0749 17.8026H20.1378ZM20.2007 21.5764C20.9555 21.5764 21.6474 21.262 22.1505 20.7588C23.9117 18.9976 22.4021 16.1672 20.3894 16.1672C19.4459 16.1672 18.8798 16.3559 18.188 17.0478C16.6155 18.6831 17.8735 21.5764 20.1378 21.5764H20.2007ZM2.71498 14.3432C2.71498 14.7205 2.65208 15.4124 2.84078 15.6011C2.90368 15.664 2.96658 15.7269 3.15527 15.7269C3.15527 15.8527 3.02947 15.9785 3.02947 16.1672C2.65208 17.1107 2.2118 18.5573 2.2118 19.5637H3.78425C3.78425 18.8089 3.59556 18.2429 4.28744 17.1736C4.79063 16.4188 5.797 15.7898 6.67757 15.7898C7.68394 15.7898 8.43872 15.9785 9.1306 16.6704C9.88538 17.4252 10.0112 18.18 10.0112 19.1863C10.0112 19.3121 9.94828 19.375 9.94828 19.5008H17.1816V18.4315H11.3949C11.332 18.2428 11.2062 18.0541 11.1433 17.8654C11.0805 17.6138 11.0176 17.4252 10.9547 17.1736C10.8289 16.7962 10.7031 16.1672 10.7031 15.664C10.8289 15.664 10.8918 15.6011 10.8918 15.4753C10.8918 14.469 11.0805 13.9658 10.3886 13.9658H3.28107C3.02947 13.9658 2.77788 14.0916 2.77788 14.3432H2.71498ZM8.18713 9.94027C8.18713 11.0724 8.06133 12.8336 9.2564 13.3997C9.69669 13.5884 11.7094 13.84 12.4013 13.9658C13.1561 14.0916 13.3448 14.0287 13.4077 14.2802L14.0367 15.9156C14.2254 16.4188 14.5399 17.4252 14.9172 17.8026C15.3575 18.2428 16.3639 18.2428 16.7413 17.4252C16.93 16.9849 16.7413 16.5446 16.6155 16.1672L15.4833 13.2739C14.9172 11.8272 14.9801 12.0788 12.9674 11.7643L11.5207 11.5756L11.7094 9.49999L10.5773 8.4307L9.94828 7.48725C9.4451 6.60667 10.4515 5.66319 11.2062 6.22928C11.5836 6.48087 12.1497 7.86462 12.1497 7.29853C12.1497 6.66955 12.1497 6.16637 11.7094 5.72608L11.6465 5.66319C10.8289 4.97131 9.3193 5.60029 8.87901 6.98405C8.62742 7.80172 8.25003 8.87099 8.25003 10.0032L8.18713 9.94027Z" fill="#30BA29"/>
</svg>
