<svg width="18" height="16" viewBox="0 0 18 16" fill="none" xmlns="http://www.w3.org/2000/svg">
<path fill-rule="evenodd" clip-rule="evenodd" d="M2.35401 2.24001C2.19225 2.23318 2.06693 2.20356 1.93706 2.03724C1.8072 1.87092 1.84136 1.59523 1.84364 1.39701C1.84592 1.20107 1.84136 1.00285 1.84364 0.806914C1.84592 0.581355 1.83909 0.410477 2.00313 0.232764C2.133 0.0937827 2.20135 0.114288 2.36995 0.116566H6.13839C6.37534 0.116566 6.58267 0.0573287 6.76266 0.250991C6.94721 0.449209 6.91531 0.595025 6.91759 0.845647C6.91987 1.11222 6.96999 1.84585 6.82873 2.04635C6.71709 2.20584 6.57812 2.23318 6.42319 2.24001C6.43686 2.35849 6.4642 2.49063 6.48015 2.57949C6.48926 2.63189 6.50064 2.6843 6.51431 2.7367C6.5371 2.83695 6.57127 2.93492 6.60089 3.02833L6.70798 3.32224C7.05657 4.18119 7.53503 5.11077 7.71046 6.02212L7.74464 6.19755C7.77198 6.39805 7.78793 6.59855 7.79932 6.79904C7.82894 6.76487 7.85856 6.73753 7.88362 6.71702C8.53979 6.14287 8.84282 6.34109 9.42152 6.52564C9.54228 6.28185 9.75873 5.94693 9.88404 5.78972C9.97973 5.66441 10.2326 5.39329 10.3579 5.30671C10.4445 5.24747 10.5311 5.18823 10.6177 5.12672C10.8455 4.96267 11.0939 4.87382 11.3741 4.86926C11.7341 4.86242 11.8844 4.88065 12.1989 5.05381C12.4039 5.16773 12.5702 5.29532 12.7411 5.45252C12.9735 5.66441 13.2059 5.96744 13.3563 6.2454C13.3768 6.28413 13.4155 6.40033 13.4474 6.42767C13.6912 6.3821 13.6866 6.31375 13.9897 6.3502C14.7825 6.44817 15.441 7.4256 15.7303 8.10455C15.8488 8.38707 16.0903 8.91338 16.0288 9.2164C16.0038 9.35538 16.0379 9.68119 16.0379 9.84295C16.0379 9.8589 16.0379 9.87485 16.0379 9.8908C16.1427 9.89308 16.3113 9.88169 16.3774 9.88169C16.5301 9.88169 16.7351 9.91358 16.8878 9.89763C17.0883 9.88169 17.2637 9.96143 17.4186 10.0845C17.8515 10.4285 17.9108 10.9548 17.8105 11.4674C17.7535 11.7613 17.4938 12.0735 17.225 12.1942C16.9265 12.3287 16.628 12.274 16.3227 12.2831L16.2362 12.9894C16.1769 13.4792 16.0174 14.2516 15.842 14.7187L15.6552 15.1698C15.6005 15.2769 15.5686 15.3475 15.4888 15.4432C15.2109 15.7827 15.1084 15.8032 14.6686 15.8282C14.2927 15.8488 13.0829 15.8761 12.773 15.7462C12.3447 15.5685 11.9072 14.5068 11.7455 14.0762C11.7022 13.9623 11.6521 13.8483 11.6111 13.7321L11.0437 13.7435L10.9777 13.9167C10.8729 14.2311 10.7612 14.5364 10.6222 14.8372C10.4491 15.2154 10.1893 15.7713 9.71771 15.8169C9.18685 15.867 8.63092 15.826 8.09551 15.8191C7.54414 15.8123 7.45757 15.8351 7.13404 15.3088C7.12492 15.2928 7.10898 15.2609 7.09075 15.229C7.05657 15.2632 7.0224 15.2974 6.99278 15.327C6.80823 15.5047 6.63508 15.6141 6.40952 15.7326C6.19535 15.8442 6.1589 15.8146 5.9265 15.8169H3.14916C2.71399 15.8169 2.66615 15.8784 2.26743 15.6733C1.90745 15.4865 1.5748 15.188 1.35152 14.8485C1.33557 14.8258 1.30823 14.7688 1.29 14.7506C1.26949 14.7301 1.25582 14.7096 1.24671 14.6822C1.13963 14.3633 0.966473 14.1696 0.966473 13.7982C0.968751 12.8618 1.04849 11.4993 0.948242 10.5857L0.959645 6.60766C1.00293 6.46184 0.982418 6.12464 1.0052 5.94465C1.13507 4.90343 2.26059 3.15136 2.34261 2.24685L2.35401 2.24001ZM2.78689 1.05981V1.29221L5.97434 1.29677L5.97662 1.06437L2.78689 1.05754V1.05981ZM1.96668 6.02212H6.75582C6.6214 5.49126 6.25687 4.73028 6.07004 4.27688C5.8741 3.80526 5.61436 3.21516 5.53918 2.71164C5.51867 2.57038 5.51183 2.40406 5.48904 2.25368L3.28586 2.24001C3.27902 2.31748 3.27675 2.41317 3.26536 2.49519C3.16511 3.13314 2.85752 3.82804 2.58411 4.41131L2.47248 4.65053C2.33805 4.93761 2.23325 5.23608 2.11705 5.52999C2.1011 5.57328 2.08288 5.61429 2.06693 5.6553C2.05326 5.69859 2.04186 5.74188 2.02819 5.792L2.00541 5.86263L1.96668 6.01984V6.02212ZM4.10835 3.25161C3.97392 3.95335 3.8919 4.11967 3.56837 4.76218C3.25396 5.38645 2.45653 5.02191 2.68436 4.44548C2.76411 4.24271 2.88258 4.05816 2.96916 3.85766C3.12637 3.4954 3.13321 3.21288 3.23118 2.84834C3.2813 2.65468 3.27675 2.52937 3.48636 2.44735C3.65951 2.37899 3.89647 2.39494 4.03317 2.5362C4.16304 2.6729 4.15619 2.87112 4.13569 3.04428C4.12885 3.11491 4.11974 3.18326 4.10835 3.25161ZM2.70259 5.05609C2.83474 5.00824 2.94638 5.05153 3.05802 5.11988C3.17422 5.19051 3.23346 5.28392 3.25852 5.41607C3.30636 5.66897 3.14688 5.92187 2.88942 5.96288C2.32894 6.05174 2.08971 5.27937 2.70487 5.05609H2.70259ZM11.6111 9.86574C11.6521 9.07742 11.5062 9.13438 11.8958 8.17518C12.0963 7.68077 12.3424 7.31851 12.6682 6.91524C12.5497 6.61449 12.1579 6.15882 11.9437 5.99933L11.7477 5.87858C11.3923 5.68947 11.0893 5.87858 10.8341 6.13376C10.5994 6.37071 10.4719 6.55526 10.3192 6.84461L10.2463 6.99271C10.2326 7.02232 10.1779 7.12713 10.1757 7.15675C10.1893 7.20004 10.3898 7.48256 10.4286 7.55091C10.5949 7.8471 10.7384 8.14328 10.8569 8.45998C11.1007 9.11615 10.9685 9.34627 11.0187 9.86574C11.0528 9.86574 11.087 9.86346 11.1212 9.86346C11.2852 9.86118 11.4493 9.86802 11.6133 9.86574H11.6111ZM1.90516 6.96764L1.9006 10.7452L5.10173 10.7475C5.14502 10.4422 5.31134 10.2234 5.58018 10.0321C5.85587 9.83384 6.08826 9.86346 6.40496 9.86346L6.53711 9.85662C6.55533 9.6584 6.53482 9.33488 6.54621 9.164C6.57128 8.73111 6.82646 8.33467 6.84013 8.12278L6.85607 6.96764L1.90516 6.96536V6.96764ZM3.33143 8.97945C3.27219 8.51922 3.72786 7.81064 3.98076 7.43471C4.27239 7.00182 4.6301 7.21826 4.86705 7.54863C5.01515 7.75368 5.13591 8.01114 5.24527 8.24125C5.43893 8.64908 5.54372 8.97034 5.21792 9.47614L5.12679 9.58322L5.06983 9.63334C4.69162 9.96371 4.2405 10.007 3.819 9.72448C3.56838 9.55816 3.37244 9.28019 3.33371 8.97945H3.33143ZM4.37721 8.5944C4.33848 8.6787 4.3043 8.76756 4.28835 8.80629C4.20177 9.03869 4.5663 9.07286 4.46606 8.79262C4.43416 8.70149 4.40455 8.64225 4.37721 8.59212V8.5944ZM7.52591 9.8589L8.80181 9.86346C9.07749 9.86346 9.75645 9.90675 10.0868 9.87713C10.1461 9.28931 10.0276 8.84047 9.76784 8.29366C9.62202 7.98608 9.04332 6.99726 8.58992 7.35952L8.28233 7.65571C8.2436 7.69672 8.2026 7.73318 8.17298 7.77647L7.88362 8.22986C7.73097 8.50782 7.65123 8.75845 7.57376 9.06603C7.51225 9.30754 7.50085 9.59917 7.52819 9.8589H7.52591ZM12.5383 9.8589L15.1061 9.86346C15.1585 9.26197 15.056 8.86325 14.7825 8.29594C14.6504 8.02025 14.1674 7.28434 13.8302 7.26839C13.6639 7.25927 13.411 7.53952 13.3062 7.64204L12.9758 8.09544L12.6796 8.74705C12.6682 8.78123 12.6545 8.81085 12.6431 8.8473C12.6181 8.91793 12.5999 8.98856 12.5862 9.06147C12.5566 9.20957 12.5361 9.37133 12.5247 9.5217C12.5178 9.63106 12.5178 9.74954 12.5338 9.86118L12.5383 9.8589ZM16.8923 10.8386C16.2749 10.7543 15.318 10.8135 14.6663 10.809C13.6547 10.8044 12.6432 10.8067 11.6338 10.8067C9.9934 10.8067 8.3507 10.7794 6.71254 10.8227C6.58951 10.8272 6.08371 10.8181 6.0108 10.8728C6.02219 11.0209 6.03813 11.0847 6.04497 11.2715C6.51431 11.3854 7.67857 11.3421 8.21627 11.3398C9.22787 11.3353 10.2395 11.3398 11.2488 11.3398C12.9211 11.3398 15.302 11.513 16.9037 11.3239C16.9106 11.3034 16.8946 11.2761 16.8946 11.2533C16.9083 11.1393 16.9083 11.0186 16.8969 10.907C16.8946 10.8864 16.8923 10.8454 16.8946 10.8386H16.8923ZM7.27302 12.2968C7.27302 12.299 7.2753 12.299 7.2753 12.299L7.29581 12.4107L7.36188 12.798C7.36871 12.8322 7.37327 12.8664 7.38011 12.9005C7.4439 13.3129 7.55098 13.8096 7.68996 14.1992L7.98387 14.885H9.54683C9.64936 14.721 9.73595 14.5227 9.81569 14.3541C9.95923 14.0511 10.2121 13.0896 10.3557 12.9188C10.5402 12.7023 11.586 12.7775 11.8822 12.7866C12.1419 12.7957 12.2444 12.8026 12.3584 13.0509C12.5999 13.5727 12.7411 14.0739 13.0259 14.5888C13.0692 14.6663 13.1535 14.8577 13.1353 14.885L14.7552 14.8804C14.8258 14.7642 14.9284 14.4794 14.9648 14.3792C15.1289 13.9281 15.3521 12.8732 15.3772 12.3013C15.1038 12.2717 14.778 12.2854 14.5205 12.2854H9.18914C8.55347 12.2854 7.91096 12.2694 7.2753 12.2968H7.27302ZM1.89377 11.693C1.88694 11.8821 1.9006 12.0803 1.9006 12.2649C1.9006 12.7616 1.8482 13.8119 2.08515 14.2334C2.15122 14.3496 2.29249 14.5136 2.39046 14.6048C2.47931 14.6845 2.66842 14.8394 2.75045 14.8759C3.43851 14.9784 4.94224 14.8873 5.71005 14.8736C5.8627 14.8713 6.07915 14.8941 6.20446 14.7825C6.33432 14.6663 6.44596 14.5774 6.54621 14.4316C6.56672 14.402 6.61457 14.3541 6.62368 14.3291L6.41406 13.4154C6.35027 13.1056 6.30927 12.5998 6.22497 12.2808C5.98118 12.274 5.79891 12.274 5.56423 12.1122C5.35918 11.9732 5.3045 11.8662 5.19514 11.693L1.89377 11.6953V11.693Z" fill="black"/>
</svg>
