<svg width="13" height="19" viewBox="0 0 13 19" fill="none" xmlns="http://www.w3.org/2000/svg">
<path fill-rule="evenodd" clip-rule="evenodd" d="M3.17494 8.06703H3.96709C3.96709 8.54238 3.96709 9.49309 3.96709 9.96844H4.91766V10.6022H3.17494V8.22548V8.06703ZM0.956917 12.3452C0.956917 12.5036 0.956917 15.9895 0.956917 16.4649C0.956917 16.9403 1.27378 16.7818 1.74907 16.7818C2.38279 16.7818 4.44237 16.7818 4.91766 16.7818C4.91766 16.6234 4.60081 16.3064 4.60081 16.148C4.44238 15.9895 4.12552 15.9895 3.80866 15.9895C3.4918 15.9895 2.06593 16.148 1.9075 15.8311C1.9075 15.6726 1.9075 12.5036 1.9075 12.1867H1.27378L0.956917 12.3452ZM4.12552 15.0388C4.12552 15.3557 4.28395 15.3557 4.44237 15.5142C4.6008 15.6726 4.6008 15.8311 4.75923 15.9895C4.91767 16.3065 5.23452 16.6234 5.39295 16.9403L6.34353 18.3663C6.50196 18.5248 6.50196 18.6832 6.81882 18.6832C6.97725 18.6832 7.13568 18.3663 7.29411 18.3663C7.7694 17.7325 8.56155 16.6234 9.03684 16.148C9.19527 15.9895 9.19527 15.8311 9.3537 15.6726C9.51213 15.5142 9.67056 15.3557 9.67056 15.1973C9.3537 15.0388 8.71998 15.1973 8.40312 15.0388C8.24469 14.8804 8.40312 13.4543 8.40312 13.1374C8.40312 12.8205 8.40312 12.5036 8.08626 12.5036H6.02667C5.70981 12.5036 5.70981 12.8205 5.70981 13.1374C5.70981 13.4543 5.70981 14.8804 5.70981 15.0388C5.39295 15.1973 4.75923 15.0388 4.44237 15.1973L4.12552 15.0388ZM1.59064 6.32408C1.74907 6.32408 1.59064 6.16563 1.59064 6.00718C1.59064 5.21493 1.59064 1.25367 1.59064 1.25367C1.74907 1.09522 7.29411 1.25367 8.24469 1.25367H9.03684C9.19527 1.25367 9.03684 1.25367 9.19527 1.25367C9.3537 1.41212 9.03684 3.47197 9.3537 3.78887C9.67056 3.94732 11.5717 3.78887 11.8886 3.94732C11.8886 4.10578 11.8886 12.979 11.8886 14.5635V15.6726V15.8311C11.8886 15.9895 11.8886 15.9895 11.8886 15.9895C11.7302 16.148 10.3043 15.9895 9.98742 15.9895C9.19527 15.9895 9.3537 15.9895 9.03684 16.4649C8.87841 16.6234 8.87841 16.6234 8.87841 16.7818C9.19527 16.7818 12.3639 16.7818 12.5223 16.7818C12.8392 16.6234 12.6807 16.148 12.6807 15.8311V6.16563C12.6807 5.37338 12.6807 4.58113 12.6807 3.78887C12.6807 3.15507 12.6807 3.15507 12.3639 2.99662L10.6211 1.25367C9.82899 0.461418 10.1459 0.619868 8.87841 0.619868C7.29411 0.619868 5.70981 0.619868 3.96709 0.619868C3.17494 0.619868 2.38279 0.619868 1.59064 0.619868C0.798487 0.619868 0.956917 0.619868 0.956917 2.36282V6.00718C0.956917 6.16563 0.956917 6.48253 1.11535 6.48253C1.27378 6.48253 1.59064 6.48253 1.59064 6.48253V6.32408ZM6.02667 9.96844C6.02667 9.80999 6.02667 9.80999 5.86824 9.65154C4.91766 9.17619 5.07609 8.22548 5.86824 8.06703C6.1851 8.06703 6.66039 8.06703 6.81882 8.22548L6.66039 8.85928C6.50196 8.85928 6.1851 8.54238 6.02667 8.70083C6.02667 8.85929 6.1851 8.85929 6.34353 9.01774C6.81882 9.17619 7.13568 9.65154 6.81882 10.1269C6.50196 10.7607 5.70981 10.6022 5.0761 10.4438L5.23452 9.80999C5.55138 9.80999 5.70981 10.1269 6.02667 9.96844ZM6.97725 10.6022C7.13568 10.2853 7.61097 9.49309 7.7694 9.33464C7.7694 9.17619 7.13568 8.38393 7.13568 8.06703H7.92783L8.24469 8.54238L8.40312 8.38393C8.71998 7.90858 8.40312 8.06703 9.3537 8.06703C9.19527 8.22548 8.71998 9.17619 8.71998 9.33464C8.71998 9.49309 9.3537 10.2853 9.51213 10.6022H8.71998C8.71998 10.4438 8.40312 10.1269 8.40312 9.96844L8.08626 10.6022H7.29411H6.97725ZM0.640057 10.6022C0.640057 10.4438 0.956917 10.1269 0.956917 9.96844C0.956917 9.80999 1.27378 9.49309 1.27378 9.33464C1.27378 9.17619 0.640057 8.38393 0.640057 8.06703H1.27378C1.59064 8.06703 1.59064 8.38393 1.74907 8.54238L2.06593 8.06703H2.85808L2.22436 9.17619C2.22436 9.49309 2.85808 10.1269 3.01651 10.4438H2.69965C2.22436 10.4438 2.22436 10.4438 2.06593 10.1269C2.06593 9.96844 1.9075 9.80999 1.9075 9.80999C1.74907 9.96844 1.59064 10.2853 1.59064 10.4438H0.798487L0.640057 10.6022ZM0.0063372 11.5529C0.0063372 11.8698 0.481627 11.7114 0.640057 11.7114H9.03684C10.3043 11.7114 10.1459 12.1867 10.1459 9.01774C10.1459 8.54239 10.1459 7.59168 10.1459 7.11633C10.1459 6.79943 9.82899 6.79943 9.51213 6.79943H1.11535C-0.152093 6.79943 0.0063372 6.32408 0.0063372 9.49309C0.0063372 9.80999 0.0063372 11.0776 0.0063372 11.3945V11.5529Z" fill="black"/>
</svg>
