<svg width="20" height="18" viewBox="0 0 20 18" fill="none" xmlns="http://www.w3.org/2000/svg">
<path fill-rule="evenodd" clip-rule="evenodd" d="M5.32495 0.0116533V17.9885C5.78948 17.9885 9.21744 18.0333 9.3616 17.9461L9.34551 0.0516817C9.32034 -0.0260179 8.4554 0.00694502 8.36616 0.00694502L5.32495 0.0116533ZM15.9657 10.8331L15.9679 16.7477C15.9771 17.0255 15.8833 17.7837 16.0092 17.9862L20 17.9815L19.9954 10.5623L15.9497 10.5576L15.9657 10.8331ZM0.0022347 17.9838L1.64764 17.9815L2.06866 17.9862L2.79181 17.9815L3.21506 17.9862L4.02972 17.9815L4.0343 8.6834L0.0022347 8.66456L0 17.9815L0.0022347 17.9838ZM14.2151 5.50242H10.6339V17.9885H14.675C14.6613 15.8223 14.6499 13.6326 14.6705 11.4665C14.6842 9.8536 14.6454 8.19837 14.6728 6.62083C14.6774 6.33828 14.6705 6.0628 14.6728 5.78497C14.6751 5.46711 14.7529 5.50242 14.2151 5.50242Z" fill="#30BA29"/>
</svg>
