<svg width="25" height="21" viewBox="0 0 25 21" fill="none" xmlns="http://www.w3.org/2000/svg">
<path fill-rule="evenodd" clip-rule="evenodd" d="M20.3413 3.1738C21.1266 2.14517 22.5875 -0.683552 24.1276 0.79283C24.161 0.826109 24.1763 0.865439 24.1732 0.907794C24.0819 2.65343 22.7184 1.00158 21.8601 3.64273C25.0498 6.95854 22.6484 7.0372 23.8689 9.74491C24.9706 12.1894 25.488 13.808 24.3954 16.4219C23.5919 18.3309 22.1249 19.8587 20.1496 20.5576C18.9595 20.9781 17.7269 21.1052 16.479 20.9116C15.0302 20.6847 14.6863 20.2793 13.5237 19.7861C12.5832 20.7089 11.247 20.96 9.96568 20.8147C9.41174 20.7512 8.87303 20.5001 8.32518 20.5606C7.46993 20.6574 7.17165 20.8752 6.21292 20.8178C-1.17999 20.37 -3.44139 5.6304 7.67689 6.48658C7.08948 4.45051 5.47332 5.27038 5.3881 3.68811C5.38506 3.63365 5.40941 3.58827 5.45202 3.55802C6.46249 2.85916 7.14426 3.5792 7.93864 4.08443C8.60215 0.732322 11.9532 -0.765237 15.1398 0.381379C15.1976 0.402557 15.2342 0.450963 15.2402 0.508445C15.5355 4.17822 12.4249 6.18404 9.04347 5.8331L9.21087 6.54104C10.2792 6.35346 11.3627 6.30808 12.4127 6.61365C12.851 6.74071 13.5723 7.10678 13.9832 7.12493C14.4976 7.14914 14.9724 6.69231 15.3011 6.35044C15.9342 5.69393 16.339 4.84078 17.039 4.15402C17.9825 3.22825 19.0539 2.91664 20.3444 3.1738H20.3413ZM13.758 1.45236C11.5392 1.30714 9.89263 2.19055 9.33261 4.38697C11.2957 4.76212 13.5115 3.47936 13.758 1.45236ZM14.7989 18.815C17.3555 19.6621 19.3004 20.016 21.4614 17.9951C23.4336 16.1526 24.0636 13.805 23.0258 11.2697C22.134 9.09748 22.0731 9.77516 22.1097 7.19754C22.1523 4.25991 18.7952 3.64273 17.386 5.95109C16.9812 6.61365 16.5064 7.43957 15.8124 7.84497C15.5446 7.99927 15.3863 8.15356 15.2068 8.37744C18.5639 11.0791 16.9447 15.838 14.7959 18.818L14.7989 18.815ZM1.39185 13.1424C1.48012 14.7156 2.36885 16.5762 3.36715 17.7742C4.95591 19.6863 5.97247 19.4624 8.07865 19.054C10.2974 18.6244 10.4831 20.5485 13.1462 18.2825C15.6572 16.1496 16.7803 11.3514 13.9254 9.00974C12.1114 7.52126 10.9914 7.90851 8.80607 8.15659C6.48989 8.42282 6.15509 6.94341 3.48281 8.71628C2.04318 9.6723 1.29446 11.4512 1.38881 13.1424H1.39185Z" fill="#FEFEFE"/>
</svg>
