<svg width="19" height="27" viewBox="0 0 19 27" fill="none" xmlns="http://www.w3.org/2000/svg">
<path fill-rule="evenodd" clip-rule="evenodd" d="M4.74231 11.1429H5.92552C5.92552 11.853 5.92552 13.273 5.92552 13.983H7.34537V14.9297H4.74231V11.3796V11.1429ZM1.42932 17.5331C1.42932 17.7698 1.42932 22.9766 1.42932 23.6866C1.42932 24.3966 1.9026 24.1599 2.61253 24.1599C3.5591 24.1599 6.63545 24.1599 7.34537 24.1599C7.34537 23.9233 6.87209 23.4499 6.87209 23.2132C6.63545 22.9766 6.16216 22.9766 5.68888 22.9766C5.21559 22.9766 3.08581 23.2132 2.84917 22.7399C2.84917 22.5032 2.84917 17.7698 2.84917 17.2964H1.9026L1.42932 17.5331ZM6.16216 21.5565C6.16216 22.0299 6.3988 22.0299 6.63545 22.2665C6.87209 22.5032 6.87209 22.7399 7.10873 22.9766C7.34537 23.4499 7.81866 23.9233 8.0553 24.3966L9.47515 26.5267C9.71179 26.7633 9.71179 27 10.1851 27C10.4217 27 10.6584 26.5267 10.895 26.5267C11.6049 25.58 12.7881 23.9233 13.4981 23.2132C13.7347 22.9766 13.7347 22.7399 13.9714 22.5032C14.208 22.2665 14.4446 22.0299 14.4446 21.7932C13.9714 21.5565 13.0248 21.7932 12.5515 21.5565C12.3149 21.3199 12.5515 19.1898 12.5515 18.7165C12.5515 18.2431 12.5515 17.7698 12.0782 17.7698H9.00187C8.52858 17.7698 8.52858 18.2431 8.52858 18.7165C8.52858 19.1898 8.52858 21.3199 8.52858 21.5565C8.0553 21.7932 7.10873 21.5565 6.63545 21.7932L6.16216 21.5565ZM2.37589 8.53953C2.61253 8.53953 2.37589 8.30286 2.37589 8.06619C2.37589 6.88283 2.37589 0.966011 2.37589 0.966011C2.61253 0.729338 10.895 0.966011 12.3149 0.966011H13.4981C13.7347 0.966011 13.4981 0.966011 13.7347 0.966011C13.9714 1.20268 13.4981 4.27943 13.9714 4.75277C14.4446 4.98945 17.2843 4.75277 17.7576 4.98945C17.7576 5.22612 17.7576 18.4798 17.7576 20.8465V22.5032V22.7399C17.7576 22.9766 17.7576 22.9766 17.7576 22.9766C17.521 23.2132 15.3912 22.9766 14.9179 22.9766C13.7347 22.9766 13.9714 22.9766 13.4981 23.6866C13.2614 23.9233 13.2614 23.9233 13.2614 24.1599C13.7347 24.1599 18.4676 24.1599 18.7042 24.1599C19.1775 23.9233 18.9408 23.2132 18.9408 22.7399V8.30286C18.9408 7.1195 18.9408 5.93614 18.9408 4.75277C18.9408 3.80608 18.9408 3.80608 18.4676 3.56941L15.8645 0.966011C14.6813 -0.217352 15.1546 0.0193202 13.2614 0.0193202C10.895 0.0193202 8.52858 0.0193202 5.92552 0.0193202C4.74231 0.0193202 3.5591 0.0193202 2.37589 0.0193202C1.19268 0.0193202 1.42932 0.0193201 1.42932 2.62272V8.06619C1.42932 8.30286 1.42932 8.77621 1.66596 8.77621C1.9026 8.77621 2.37589 8.77621 2.37589 8.77621V8.53953ZM9.00187 13.983C9.00187 13.7463 9.00187 13.7463 8.76523 13.5097C7.34537 12.7996 7.58201 11.3796 8.76523 11.1429C9.23851 11.1429 9.94844 11.1429 10.1851 11.3796L9.94844 12.3263C9.71179 12.3263 9.23851 11.853 9.00187 12.0896C9.00187 12.3263 9.23851 12.3263 9.47515 12.563C10.1851 12.7996 10.6584 13.5097 10.1851 14.2197C9.71179 15.1664 8.52858 14.9297 7.58202 14.693L7.81866 13.7463C8.29194 13.7463 8.52858 14.2197 9.00187 13.983ZM10.4217 14.9297C10.6584 14.4564 11.3683 13.273 11.6049 13.0363C11.6049 12.7996 10.6584 11.6163 10.6584 11.1429H11.8416L12.3149 11.853L12.5515 11.6163C13.0248 10.9063 12.5515 11.1429 13.9714 11.1429C13.7347 11.3796 13.0248 12.7996 13.0248 13.0363C13.0248 13.273 13.9714 14.4564 14.208 14.9297H13.0248C13.0248 14.693 12.5515 14.2197 12.5515 13.983L12.0782 14.9297H10.895H10.4217ZM0.956034 14.9297C0.956034 14.693 1.42932 14.2197 1.42932 13.983C1.42932 13.7463 1.9026 13.273 1.9026 13.0363C1.9026 12.7996 0.956034 11.6163 0.956034 11.1429H1.9026C2.37589 11.1429 2.37589 11.6163 2.61253 11.853L3.08581 11.1429H4.26902L3.32246 12.7996C3.32246 13.273 4.26902 14.2197 4.50567 14.693H4.03238C3.32246 14.693 3.32246 14.693 3.08581 14.2197C3.08581 13.983 2.84917 13.7463 2.84917 13.7463C2.61253 13.983 2.37589 14.4564 2.37589 14.693H1.19268L0.956034 14.9297ZM0.00946569 16.3497C0.00946569 16.8231 0.719392 16.5864 0.956034 16.5864H13.4981C15.3912 16.5864 15.1546 17.2964 15.1546 12.563C15.1546 11.853 15.1546 10.4329 15.1546 9.7229C15.1546 9.24955 14.6813 9.24955 14.208 9.24955H1.66596C-0.227176 9.24955 0.00946569 8.53954 0.00946569 13.273C0.00946569 13.7463 0.00946569 15.6397 0.00946569 16.1131V16.3497Z" fill="#30BA29"/>
</svg>
