<svg width="15" height="15" viewBox="0 0 15 15" fill="none" xmlns="http://www.w3.org/2000/svg">
<path d="M6.32392 0C8.06853 0 9.64956 0.709638 10.793 1.85305C11.9345 3.00027 12.6441 4.58126 12.6441 6.32206C12.6441 7.7889 12.1418 9.14159 11.3009 10.2165L14.518 13.2301C14.8529 13.5421 14.87 14.0672 14.5561 14.4021C14.2441 14.7369 13.719 14.754 13.3841 14.4401L10.1137 11.377C9.05592 12.1723 7.74134 12.6422 6.32206 12.6422C4.58126 12.6422 3.00022 11.9326 1.85681 10.7911C0.709594 9.64766 0 8.06477 0 6.32206C0 4.57745 0.70959 2.99646 1.853 1.85305C2.99642 0.709638 4.57935 0 6.32206 0H6.32392ZM9.61719 3.02881C8.77437 2.18789 7.60812 1.6666 6.32392 1.6666C5.03972 1.6666 3.87351 2.1898 3.0326 3.03071C2.19169 3.87162 1.66842 5.03786 1.66842 6.32206C1.66842 7.60626 2.19169 8.7725 3.0326 9.61341C3.87161 10.4562 5.03782 10.9756 6.32392 10.9756C7.61002 10.9756 8.77627 10.4543 9.61719 9.61341C10.4581 8.7725 10.9794 7.60626 10.9794 6.32016C10.9794 5.03406 10.4581 3.86782 9.61719 3.0269V3.02881Z" fill="#000"/>
</svg>
