<svg width="17" height="17" viewBox="0 0 17 17" fill="none" xmlns="http://www.w3.org/2000/svg">
<path fill-rule="evenodd" clip-rule="evenodd" d="M0.000488281 8.49717V14.0098C0.000488281 15.1776 0.380548 16.1582 1.44587 16.7052C1.74531 16.8583 2.12249 17 2.56301 17H14.437C15.1568 17 15.6463 16.6911 16.1386 16.2829C16.2365 16.2007 16.2336 16.1837 16.3171 16.093C16.7864 15.6027 16.9995 14.9508 16.9995 14.0098V8.49717C16.9995 8.29593 16.9736 8.03518 16.9102 7.8878C16.8124 7.66389 16.7663 7.61287 16.605 7.45699C16.3517 7.21324 15.9054 7.11404 15.4879 7.23875C15.1769 7.33228 14.8516 7.67239 14.7825 8.004C14.6904 8.44331 14.7393 12.8705 14.7393 13.8058C14.7393 14.3329 14.8142 14.8006 14.2671 14.8006H2.73288C2.52558 14.8006 2.34995 14.7014 2.27509 14.554C2.18007 14.3698 2.22614 12.6891 2.22614 12.4085C2.22614 11.9096 2.26357 8.37246 2.19735 8.05502C1.93822 6.83344 0.000488281 6.79093 0.000488281 8.4915L0.000488281 8.49717ZM5.5315 1.15922L5.56605 7.1027H4.21569C3.60241 7.1027 3.14462 7.72908 3.57938 8.2931L7.0575 11.7424C7.5153 12.1931 8.16601 13.1907 8.94628 12.7231C9.1507 12.5984 11.4483 10.2941 11.814 9.93414L13.3832 8.35829C13.8179 7.90764 13.5819 7.10554 12.7498 7.10554H11.4685V1.02884C11.4685 0.493164 10.9646 0 10.4233 0H6.54499C6.04401 0 5.5315 0.498833 5.5315 1.16205V1.15922Z" fill="#30BA29"/>
</svg>
