<svg width="20" height="20" viewBox="0 0 20 20" fill="none" xmlns="http://www.w3.org/2000/svg">
<path fill-rule="evenodd" clip-rule="evenodd" d="M2.76752 11.3217L3.4594 11.6362C3.5852 11.6991 3.711 11.6991 3.83679 11.762C3.96259 11.8249 4.08839 11.8878 4.21418 11.8878C4.21418 11.8249 4.27708 11.6362 4.33998 11.5733L4.71737 10.6298C4.90606 10.1895 5.03186 9.74924 5.22055 9.30895C5.53505 8.42838 5.84954 7.6107 6.22693 6.73012C6.60432 5.84955 6.91881 5.03187 7.2333 4.1513C7.3591 3.8368 8.11387 1.82405 8.23967 1.57246L17.6744 3.9626C17.8002 3.9626 17.8631 4.0255 17.9889 4.0255C17.926 4.15129 17.8631 4.33999 17.8631 4.52868C17.6744 5.15766 17.2341 6.41563 16.9825 6.98171C16.7938 7.54779 16.6051 8.11388 16.3535 8.67997C16.3535 8.74286 16.2906 8.86865 16.2906 8.93155C16.0391 9.56054 15.7875 10.2524 15.5988 10.8814C15.473 11.1959 15.3472 11.5104 15.2214 11.8249C15.1585 12.0136 15.0956 12.1394 15.0327 12.2652C14.9698 12.4539 14.9069 12.5797 14.844 12.7683C14.5924 13.3973 14.3408 14.0263 14.0892 14.6553C13.9634 14.9698 13.8376 15.2843 13.7118 15.5988L13.0199 16.8567C12.957 16.9196 12.957 16.9825 12.8941 17.0454C12.7683 17.2341 12.5796 17.4228 12.391 17.5486C12.2652 17.6744 12.1394 17.7373 12.0136 17.8002C11.8249 17.8631 11.762 17.926 11.5104 17.9889C10.9443 18.0518 10.2524 18.0518 9.87502 17.7373C9.37184 17.297 9.05735 16.7938 8.86865 16.102C8.80575 15.7875 8.67996 15.2843 8.67996 14.9069C8.49126 14.844 6.73011 14.1521 6.54142 14.0263C5.78664 13.7118 5.09476 13.4602 4.40288 13.1457C3.83679 12.957 0.251593 11.4475 0.0628982 11.4475C-5.85786e-08 11.4475 0 11.5733 0 11.762V12.8312C0 13.8376 0.628983 15.1585 1.44666 15.6617C1.57246 15.7246 1.63535 15.7875 1.76115 15.8504C2.01274 15.9762 2.26434 16.102 2.45303 16.2277L4.27708 17.1083C4.33998 17.1083 4.40288 17.1712 4.46578 17.1712C4.52867 17.2341 4.59157 17.2341 4.65447 17.2341C4.78027 17.297 4.90606 17.3599 5.03186 17.4228C5.59794 17.6744 6.28982 18.0518 6.91881 18.2405C7.2962 18.3663 7.67359 18.555 8.05098 18.7437C8.55416 18.9953 9.05735 19.2469 9.62343 19.3727C9.93792 19.4356 10.2524 19.4985 10.504 19.4985H11.0701C12.391 19.4356 13.5231 18.7437 14.3408 17.4857L14.6553 16.9825C14.9069 16.5422 15.0956 16.102 15.2843 15.6617C15.7246 14.6553 16.102 13.586 16.4793 12.5797L17.7373 9.18315C17.8002 8.99446 17.8631 8.80576 17.926 8.61707L18.3663 7.4849C18.555 6.91881 18.8066 6.35272 18.9953 5.78664C19.0582 5.59795 19.1211 5.40925 19.184 5.22055C19.3098 4.84316 19.7501 3.711 19.7501 3.45941C19.7501 3.27072 19.7501 3.14492 19.6243 2.95623C19.5614 2.83043 19.4985 2.83042 19.3727 2.76753C18.8695 2.51593 11.6991 0.880579 10.8814 0.691885C10.504 0.566088 7.98808 0 7.73649 0C7.48489 0 7.2333 0.188705 7.1704 0.440298L3.96259 8.42837C3.6481 9.30894 3.27071 10.1266 2.95622 10.9443C2.89332 11.0701 2.83042 11.1959 2.83042 11.3217H2.76752ZM6.28982 12.8312C6.28982 13.6489 7.54779 13.6489 7.54779 12.8312C7.54779 12.7055 7.48489 12.5168 7.42199 12.391C6.98171 11.9507 6.35272 12.2652 6.35272 12.8312H6.28982ZM10.0008 14.6553C10.1266 14.6553 10.2524 14.5295 10.3782 14.4666C10.504 14.3408 10.5669 14.2779 10.5669 14.0263C10.5669 13.7747 10.504 13.7118 10.3782 13.586C10.1895 13.3973 9.87502 13.3344 9.62343 13.4602C9.30894 13.6489 9.18314 14.1521 9.56053 14.5295C9.68633 14.6553 9.87502 14.6553 10.0637 14.6553H10.0008ZM7.73649 5.66085C7.73649 5.91245 7.79938 6.16403 7.98808 6.35273C8.42837 6.73011 9.37184 6.60433 9.37184 5.72375C9.37184 4.96897 8.42837 4.71738 7.98808 5.15767C7.86228 5.28346 7.73649 5.47216 7.73649 5.66085ZM8.86865 3.27071V3.45941C8.86865 3.8368 9.24604 4.1513 9.62343 4.1513C9.87502 4.1513 10.1266 4.15129 10.3153 3.8997C10.504 3.711 10.5669 3.5852 10.5669 3.27071C10.5669 2.76753 9.93792 2.13854 9.18314 2.70463C9.05735 2.83042 8.93155 3.01912 8.93155 3.20781L8.86865 3.27071ZM10.2524 6.47852C10.2524 6.79302 10.4411 7.04461 10.6927 7.17041C11.3217 7.422 11.9507 7.6107 12.6425 7.79939C12.957 7.92519 14.0892 8.23968 14.4037 8.23968C14.7182 8.23968 15.0956 7.92518 15.0956 7.4849C15.0956 6.91881 14.7182 6.85592 14.4037 6.73012C14.215 6.66722 14.0263 6.60432 13.8376 6.54142C13.4602 6.41563 11.2588 5.72375 10.9443 5.72375C10.7556 5.72375 10.5669 5.84954 10.4411 5.91244C10.3153 6.03824 10.2524 6.22693 10.2524 6.41562V6.47852ZM11.3846 4.0884C11.3846 4.33999 11.5733 4.65447 11.6991 4.71737C11.8249 4.78027 12.7683 5.09477 13.0828 5.15767L15.1585 5.78664C15.473 5.84954 15.5988 5.91245 15.8504 5.72375C15.9762 5.66085 15.9762 5.59795 16.102 5.53505C16.2906 5.28346 16.2277 4.71738 15.9762 4.52868C15.7875 4.33999 13.6489 3.77389 13.2715 3.6481C13.1457 3.5852 12.2652 3.33361 12.1394 3.33361C11.6991 3.33361 11.4475 3.7739 11.4475 4.0884H11.3846ZM7.0446 7.29621C7.1704 7.29621 7.54779 7.4849 7.61069 7.5478C7.67359 7.67359 7.67359 8.67997 7.73649 8.86866L7.79938 10.0637C7.79938 10.3782 6.91881 10.5669 6.91881 11.1959C6.91881 11.4475 6.91881 11.5733 7.2333 11.762C7.54779 11.9507 9.74923 12.8313 10.3153 13.0199C10.3782 13.0199 10.7556 13.2086 10.8814 13.2086C11.0072 13.2086 11.0701 12.8312 11.0701 12.7055C11.0701 12.6426 9.43474 12.0136 9.37184 12.0136L7.67359 11.3217C7.73649 11.1959 7.79938 11.133 7.86228 11.0701L8.11387 10.8814L9.30894 11.3846C9.62343 11.5104 10.3153 11.8249 10.5669 11.8249C10.8814 11.8249 11.9507 10.8185 12.391 10.504C12.5168 10.3782 12.8941 10.1266 12.8941 9.93792C12.8941 9.68633 12.957 9.74923 12.6425 9.62344L11.762 9.24605C11.3846 9.12025 11.0072 8.93156 10.6298 8.80577L8.61706 7.98808C8.55416 7.92518 8.42837 7.92518 8.30257 7.86228C8.30257 7.79938 8.30257 7.73649 8.30257 7.4849C8.30257 7.3591 8.30257 7.2962 8.30257 7.10751C8.11387 7.04461 7.42199 6.73012 7.2962 6.73012C7.2333 6.91882 7.1075 7.1075 7.1075 7.3591L7.0446 7.29621Z" fill="#30BA29"/>
</svg>
