<svg width="21" height="19" viewBox="0 0 21 19" fill="none" xmlns="http://www.w3.org/2000/svg">
<path fill-rule="evenodd" clip-rule="evenodd" d="M15.6596 9.76389C16.0073 9.92222 16.4106 10.0542 16.7444 10.1993C17.5649 10.5688 18.2742 11.0437 18.9417 11.6111C19.6649 12.2049 20.1934 12.9174 20.5411 13.7618C20.694 14.1576 20.8053 14.7778 20.9722 15.0944L21 15.1472V16.2687L20.9722 16.3215C20.8053 16.5854 20.7497 16.9549 20.5967 17.2451C20.1238 18.1688 19.6927 18.5646 18.6636 18.8285C18.4967 18.8681 18.3298 18.9208 18.1629 18.9868L18.1212 19H2.51722L2.46159 18.9736C2.16954 18.8285 1.83576 18.7625 1.54371 18.6042C0.987417 18.3139 0.625828 17.8785 0.389404 17.3243C0.264238 17.0208 0.166887 16.559 0.0278146 16.3083L0 16.2556V15.2792L0.0139073 15.2396C0.111258 14.9889 0.111258 14.6722 0.194702 14.4083C0.584106 13.0493 1.43245 12.1257 2.54503 11.2417C2.8649 10.991 3.58808 10.5028 3.96358 10.384L4.10265 10.3313L4.21391 10.4368C4.40861 10.6479 4.63113 10.859 4.81192 11.0833L4.95099 11.2549L4.7702 11.4C4.54768 11.5715 4.26954 11.6903 4.03311 11.8354C2.58675 12.6799 0.97351 14.5799 1.47417 16.2951C1.9053 17.7729 2.87881 17.5882 4.26954 17.5882L17.704 17.575C18.1629 17.575 18.594 17.4431 18.9417 17.166C20.3603 16.0049 19.2477 13.8937 18.2464 12.8514C17.5788 12.1389 16.5358 11.5715 15.6318 11.1757C15.4649 11.1097 14.7417 10.7667 14.5609 10.8326C14.4636 10.859 14.2272 11.0701 14.1298 11.1229C13.7404 11.3868 13.3093 11.5847 12.8642 11.7431C11.5848 12.2049 10.1523 12.2972 8.83113 11.941C3.72715 10.6083 2.43378 4.16944 6.6755 1.22708C7.32914 0.778472 8.0245 0.422222 8.80331 0.224306C9.10927 0.145139 9.66556 0.105556 9.91589 0.0131944L9.95762 0H11.1536L11.1954 0.0263889C11.6126 0.211111 12.1967 0.250694 12.6556 0.382639C13.5318 0.633333 14.255 1.10833 14.9225 1.70208C16.4523 3.06111 17.1199 5.10625 16.8139 7.05903C16.7305 7.6 16.5497 8.20694 16.2993 8.69514C16.1603 8.95903 15.896 9.43403 15.6596 9.75069V9.76389ZM5.63245 6.63681C5.93841 9.17014 8.37218 11.0042 11.0563 10.7139C13.7265 10.4236 15.6596 8.11458 15.3536 5.55486C15.0616 3.03472 12.6278 1.17431 9.94371 1.46458C7.2596 1.75486 5.31258 4.06389 5.63245 6.63681Z" fill="black"/>
</svg>
