<svg width="20" height="24" viewBox="0 0 20 24" fill="none" xmlns="http://www.w3.org/2000/svg">
<path fill-rule="evenodd" clip-rule="evenodd" d="M11.2811 1.95986C11.2811 1.95986 11.2811 1.89696 11.344 1.89696L11.7214 1.45667C11.7843 1.39377 11.8472 1.33087 11.9101 1.26798C12.1617 1.01638 11.973 0.135807 12.4762 0.0100102C12.6648 -0.052888 13.6712 0.198705 13.9228 0.261603C15.1808 0.513196 15.4324 0.324502 15.2437 1.51957C15.1808 1.83406 15.1808 1.77116 15.3066 2.08565C15.4953 2.46304 15.6211 2.90333 15.8098 3.28072C15.9356 3.65811 15.9356 3.72101 15.8098 4.0984L15.4953 5.85955C15.4953 5.85955 15.4953 5.92245 15.4953 5.98534C15.6211 5.98534 15.7469 5.98534 15.8727 6.17404C15.9985 6.36273 15.9985 7.5578 15.9985 7.87229C15.9985 8.62707 15.9356 10.5769 16.1242 11.143C16.1871 11.4575 16.25 11.7091 16.3758 12.0236C16.879 13.7847 17.2564 15.6088 17.7596 17.3699C17.9483 17.936 17.6967 18.0618 17.1935 18.1247C16.3758 18.2505 15.5582 18.5021 14.7405 18.6279C15.055 18.8795 15.3695 19.1311 15.6211 19.3827C16.1242 19.8859 16.5016 20.7664 16.8161 21.4583C17.0048 21.2696 17.1935 20.9551 17.3822 20.7664C19.0805 19.0682 19.5208 20.4519 18.8289 20.9551C18.766 21.018 18.6402 21.0809 18.5773 21.1438C17.6338 21.8357 17.3822 22.7792 17.0048 23.1566C16.7532 23.3453 16.3758 23.2824 16.25 23.0308C16.1242 22.8421 16.1242 22.5276 16.0614 22.3389C15.8098 21.4583 15.3695 20.5777 14.7405 19.8859C14.5518 19.6972 14.3631 19.5085 14.1744 19.3827C13.9857 19.2569 13.7341 19.0682 13.4825 19.0053C13.1051 18.8166 13.1051 18.8795 12.6648 18.9424C11.8472 19.1311 9.89732 19.3198 9.14254 19.6343C9.14254 20.0117 9.26834 20.3261 9.20544 20.7035C9.14254 21.7099 8.63936 22.7792 7.63299 23.1566C5.99763 23.7855 5.17995 22.7792 4.17358 21.8986C4.04779 22.0873 3.98489 22.276 3.92199 22.4647C3.73329 22.7792 3.3559 23.8484 2.97852 23.8484C2.41243 23.9113 2.28663 23.4082 2.47533 22.9679C2.72692 22.4647 2.91562 22.0244 3.16721 21.5212C3.29301 21.2696 3.4188 21.018 3.5446 20.8293C4.23648 19.5714 4.80256 21.1438 5.36865 21.647C6.18633 22.3389 7.38139 22.5905 7.88458 21.4583C8.07327 21.0809 8.19907 20.2632 8.01037 19.823C7.0669 19.8859 5.43155 20.5148 4.67677 20.389C4.61387 20.389 4.61387 20.3261 4.55097 20.3261C4.36228 20.0117 4.42518 19.8859 4.36228 19.5085C4.29938 18.6908 4.23648 17.8102 4.11068 16.9925C4.04779 16.4265 3.98489 15.8604 3.98489 15.2943C3.85909 13.7847 3.3559 12.2752 2.97852 10.8285C2.91562 10.514 2.34953 8.75287 2.60113 8.50127C2.66402 8.43838 2.97851 8.37548 3.23011 8.31258C3.16721 8.12388 3.04141 7.93519 2.91562 7.74649C2.78982 7.4949 2.66402 7.30621 2.53823 7.05461C2.28663 6.61433 2.09794 6.11114 1.84635 5.67085C1.34316 4.53868 0.0222971 1.58247 1.78345 0.890586C3.10431 0.3874 4.36228 2.08565 5.17995 3.15492C5.11706 2.77753 5.05416 2.33725 4.99126 2.02275C4.99126 1.95986 4.99126 1.95986 5.05416 1.89696C5.05416 1.83406 5.11706 1.83406 5.17995 1.83406C5.68314 1.83406 6.24922 1.70826 6.75241 1.64536C7.1298 1.58247 7.44429 1.39377 7.50719 1.89696C7.57009 2.21145 7.57009 2.77753 7.69588 3.28072C7.69588 2.96623 7.75878 2.65174 7.88458 2.27435C8.51356 0.513196 10.3376 0.3874 11.2811 2.02275V1.95986ZM6.12343 2.90333L6.75241 2.84043L6.68951 2.58884L6.12343 2.65174V2.90333ZM14.3631 1.33087V1.26798C14.0486 1.20508 13.2938 1.01638 12.9164 1.01638V1.07928C13.0422 1.14218 13.3567 1.14218 13.4196 1.20508C13.6083 1.26798 14.0486 1.33087 14.3002 1.39377L14.3631 1.33087ZM13.1051 2.02275C13.168 2.27435 13.2938 2.58884 13.4196 2.77753L14.6776 3.02913L14.426 2.33725C14.426 2.27435 14.426 2.27435 14.426 2.21145H14.3631C14.0486 2.14855 13.5454 2.08565 13.168 2.02275H13.1051ZM5.68314 7.80939C5.93473 7.6207 6.06053 7.432 6.50082 7.432L8.45066 7.11751L8.38776 6.55143C8.26197 5.60795 7.57009 5.41926 7.1927 4.47579C7.1927 4.41289 7.1298 3.9097 7.0669 3.8468C7.004 3.8468 6.43792 3.9726 6.37502 3.9726H6.31212C6.31212 4.0984 6.37502 4.28709 6.37502 4.34999C6.43792 5.98534 5.30575 5.54506 5.80894 7.74649L5.68314 7.80939ZM12.0359 2.52594C12.0988 2.52594 12.2246 2.58884 12.3504 2.58884L12.2246 2.27435C12.1617 2.33725 12.0988 2.40014 12.0359 2.52594ZM4.99126 4.41289C4.99126 4.47579 4.99126 4.60158 4.99126 4.72738C4.80256 5.23057 4.29938 6.04824 3.79619 6.23694C3.3559 6.42563 2.97851 5.92245 3.3559 5.60795C3.4188 5.54506 3.5446 5.48216 3.6075 5.41926C4.04779 5.04187 4.29938 4.28709 4.48807 4.16129C4.61387 4.0984 4.73967 4.0984 4.80256 4.0984C4.67677 3.9097 4.55097 3.78391 4.42518 3.65811C4.36228 3.53231 4.23648 3.40652 4.17358 3.34362C4.36228 3.8468 3.4817 5.16767 2.78982 5.10477C2.72692 5.10477 2.66402 5.04187 2.66402 5.04187C2.34953 4.41289 2.78982 4.47579 3.16721 4.0355C3.4188 3.72101 3.4817 2.96623 3.98489 3.15492C3.98489 3.15492 3.98489 3.15492 4.04779 3.15492C3.98489 3.02913 3.85909 2.96623 3.79619 2.84043C3.4817 2.46304 2.72692 1.70826 2.22374 1.70826C1.09157 1.77116 2.60113 5.10477 2.85272 5.54506L4.17358 8.12388C4.23648 8.18678 4.29938 8.24968 4.29938 8.37548V8.43838C4.36228 8.62707 4.36228 8.56417 4.55097 8.62707C4.67677 8.62707 4.73967 8.62707 4.86546 8.50127V8.37548C4.55097 8.50127 4.29938 8.43838 4.29938 7.93519C4.29938 7.87229 4.29938 7.80939 4.36228 7.80939C4.48807 7.74649 4.61387 7.6207 4.67677 7.5578C4.67677 7.432 4.67677 7.24331 4.67677 7.11751C4.61387 7.18041 4.61387 7.18041 4.55097 7.24331C4.29938 7.432 3.98489 7.5578 3.79619 7.18041C3.6075 6.80302 4.17358 6.48853 4.36228 6.23694C4.73967 5.73375 4.86546 5.48216 4.99126 4.85318C5.05416 4.60158 5.11706 4.60158 4.99126 4.41289ZM11.9101 6.48853L12.4762 3.53231L11.6585 3.40652L11.7843 6.17404C11.7843 6.23694 11.7843 6.42563 11.7843 6.55143C11.8472 6.55143 11.8472 6.55143 11.9101 6.55143V6.48853ZM9.45703 1.83406C8.70226 2.02275 8.51356 3.09202 8.57646 3.78391C8.63936 4.34999 9.07964 5.48216 9.83442 5.29346C10.5263 5.10477 10.7779 3.9726 10.6521 3.34362C10.5263 2.77753 10.1489 1.58247 9.39414 1.83406H9.45703ZM13.3567 3.72101L12.8535 6.36273L14.426 6.11114L14.8663 4.0355L13.3567 3.72101ZM9.07965 6.04824C9.14254 6.17404 9.14254 6.29983 9.20544 6.42563C9.20544 6.55143 9.26834 6.80302 9.26834 6.99172L10.9037 6.74012L10.8408 5.73375C10.6521 5.92245 10.5892 6.04824 10.1489 6.17404C9.64573 6.29984 9.45704 6.23694 9.07965 6.04824ZM15.3695 12.401C15.3066 12.5897 15.2437 12.7155 15.1179 12.7784C14.8663 12.9042 14.5518 12.8413 14.4889 12.5897C14.426 12.401 14.4889 12.2123 14.5518 12.0236C15.1808 9.94793 15.055 10.1995 14.9921 8.06099C14.9921 7.93519 15.055 6.92882 14.9921 6.86592C14.9292 6.86592 14.4889 6.99172 14.426 6.99172C11.8472 7.36911 9.33124 7.93519 6.81531 8.24968C6.9411 9.63344 7.69588 11.8349 7.94748 13.2815L8.38776 16.0491C8.45066 16.5522 8.63936 18.1247 8.76515 18.6908L16.6274 17.2441C16.5016 16.2378 15.7469 13.596 15.3695 12.401ZM5.93473 19.2569C5.93473 18.7537 5.74604 17.2441 5.68314 16.8038C5.55734 15.9233 5.55734 15.1056 5.36865 14.225C5.24285 13.4073 5.05416 12.6526 4.86546 11.8349C4.73967 11.0801 4.55097 10.3253 4.36228 9.50765L3.4188 9.31895C3.6075 10.5769 4.29938 12.7155 4.61387 13.9105C4.99126 15.4201 4.80256 17.6844 5.11706 19.3198L5.87183 19.194L5.93473 19.2569ZM5.30575 9.31895C5.36865 10.0108 5.62024 10.9543 5.74604 11.5833C5.87183 12.401 6.12343 13.1557 6.24922 13.9734L6.81531 19.0053C7.0669 18.9424 7.57009 18.8795 7.82168 18.8166C7.44429 16.1749 7.1298 13.6589 6.43792 11.0172C6.31212 10.5769 6.24922 10.1366 6.12343 9.75924C6.06053 9.57054 5.99763 9.00446 5.87183 8.75287C5.68314 8.94156 5.43155 9.13026 5.24285 9.31895H5.30575Z" fill="#30BA29"/>
</svg>
