<svg width="15" height="15" viewBox="0 0 15 15" fill="none" xmlns="http://www.w3.org/2000/svg">
<path fill-rule="evenodd" clip-rule="evenodd" d="M12.3178 12.6562C11.9388 12.7772 2.50874 12.7719 2.35853 12.6473C2.17164 12.4942 2.25373 10.6589 2.25198 10.3153L2.25024 3.02387C2.24325 2.26197 2.32884 2.39192 4.03179 2.40082C4.67979 2.40438 8.3966 2.45422 8.73545 2.33495C9.25245 2.14982 9.73277 1.41996 9.3293 0.73283C8.95378 0.0901997 8.40883 0.150724 7.52504 0.141824C6.72858 0.134703 5.93561 0.143604 5.1409 0.140044C3.68072 0.131143 1.83978 -0.0895942 0.910579 0.748851C-0.184554 1.73683 0.0267874 2.90816 0.0337739 4.72034C0.0390138 6.35985 0.028534 7.99757 0.0355205 9.63708C0.0442536 11.0559 -0.214247 13.0069 0.545534 13.9824C1.4695 15.1733 2.5786 14.9989 4.3654 14.9811L11.5178 14.9793C12.8715 14.9811 14.0452 14.6891 14.4941 13.119C14.6687 12.5031 14.5901 9.21519 14.5919 8.3358C14.5936 7.68961 14.7141 6.49692 14.3963 6.02696C14.0609 5.53386 13.3745 5.32203 12.7841 5.7813C12.2601 6.18717 12.3702 6.96331 12.3702 7.7715C12.3702 8.61706 12.468 12.1471 12.3178 12.6562ZM5.59327 9.1244L8.29006 8.50491L6.41069 6.43105C6.31812 6.54676 5.65266 8.81644 5.59327 9.1244ZM11.7711 1.27043C12.082 1.60332 12.3248 1.97893 12.6811 2.29045L13.3954 3.08795C13.5229 3.23392 13.5177 3.25172 13.6801 3.34251L14.8591 2.24417C15.3377 1.76887 14.4626 1.14048 14.2286 0.884141C14.0347 0.670525 13.8985 0.503192 13.7098 0.278894C13.5125 0.0474764 13.2557 -0.141218 12.9046 0.143604C12.6811 0.326958 12.5588 0.48005 12.3405 0.695447C12.1553 0.878801 11.9091 1.02833 11.7711 1.27043ZM6.73906 6.07502L6.95564 6.31712C7.04821 6.41503 7.10236 6.4809 7.19143 6.58414L8.15382 7.63798C8.30403 7.81244 8.45948 8.02071 8.62366 8.15066C8.78785 8.05276 9.08652 7.78396 9.2245 7.63442C9.69434 7.12531 10.7318 6.22634 10.9973 5.93973C11.5528 5.33805 12.4924 4.54232 12.7387 4.26462C12.9623 4.01184 13.1771 3.87477 13.3151 3.67362C13.1754 3.58105 13.0007 3.32115 12.868 3.17162L11.406 1.61222L8.5014 4.35897C8.39486 4.45154 8.30578 4.52452 8.20622 4.62421L7.34863 5.50004C7.14078 5.70832 6.91547 5.84895 6.73731 6.07502H6.73906Z" fill="#fff"/>
</svg>
