<svg width="17" height="15" viewBox="0 0 17 15" fill="none" xmlns="http://www.w3.org/2000/svg">
<path fill-rule="evenodd" clip-rule="evenodd" d="M4.79923 0.176164V14.7019C5.18544 14.7019 8.03544 14.738 8.1553 14.6676L8.14192 0.208508C8.12099 0.145725 7.40188 0.17236 7.32768 0.17236L4.79923 0.176164ZM13.6459 8.92013L13.6478 13.6993C13.6554 13.9238 13.5774 14.5364 13.6821 14.7L17 14.6962L16.9962 8.70134L13.6327 8.69754L13.6459 8.92013ZM0.373928 14.6981L1.74192 14.6962L2.09195 14.7L2.69318 14.6962L3.04507 14.7L3.72238 14.6962L3.72619 7.18313L0.373928 7.16791L0.37207 14.6962L0.373928 14.6981ZM12.1905 4.61283H9.21311V14.7019H12.5729C12.5615 12.9516 12.552 11.1822 12.5691 9.43191C12.5805 8.12869 12.5482 6.79122 12.571 5.51653C12.5748 5.28823 12.5691 5.06563 12.571 4.84114C12.5729 4.5843 12.6376 4.61283 12.1905 4.61283Z" fill="white"/>
</svg>
