<svg width="19" height="19" viewBox="0 0 19 19" fill="none" xmlns="http://www.w3.org/2000/svg">
<path fill-rule="evenodd" clip-rule="evenodd" d="M9.23927 15.383C9.77305 15.383 10.2871 15.3715 10.7954 15.2998C11.1518 15.2495 11.4236 15.1366 11.7415 15.3937C11.7973 15.439 11.8449 15.4786 11.9024 15.5239C12.1849 15.7447 12.4822 15.9457 12.7901 16.1311L13.4594 16.5076C13.8027 16.7004 14.4522 16.9666 14.8308 17.0926C15.1264 17.1915 15.4426 17.2788 15.7752 17.3382C15.8647 17.3546 15.9402 17.3653 16.0248 17.3802L16.8501 17.465L16.1849 16.9138L15.7546 16.4689C15.5608 16.2728 15.3087 15.8913 15.1831 15.6417C14.9162 15.1144 14.7626 14.5533 14.7626 13.9444C14.7626 13.7895 14.8152 13.6544 14.8718 13.5547C14.9129 13.483 14.9761 13.4089 15.0418 13.3594C15.073 13.3355 15.0821 13.3215 15.1116 13.296C15.1396 13.2713 15.1502 13.2688 15.179 13.2416L15.3005 13.1205C15.3325 13.0941 15.3424 13.09 15.3728 13.0595L15.6216 12.7975C15.6438 12.7761 15.6627 12.7596 15.6815 12.7366C15.7062 12.7069 15.7078 12.6987 15.7366 12.6698C15.7793 12.627 15.8195 12.5792 15.8548 12.533C16.1086 12.2051 16.2317 12.0725 16.4839 11.6539C16.6087 11.4471 16.7343 11.2247 16.8296 11.0022C16.9322 10.7608 17.0275 10.5186 17.1063 10.2689C17.457 9.16569 17.48 7.86389 17.1457 6.74254C17.0743 6.5036 16.9996 6.28526 16.9076 6.06857C16.86 5.95651 16.8173 5.85188 16.7655 5.74806C16.6152 5.44816 16.4592 5.14743 16.263 4.87636L15.8647 4.34987C15.8285 4.30538 15.7957 4.27489 15.7628 4.23205C15.7226 4.18014 15.6955 4.16037 15.6553 4.10846C15.6216 4.06479 15.5805 4.02937 15.5419 3.99064L15.1962 3.64295C15.1699 3.61905 15.1609 3.6174 15.1355 3.59434C15.1116 3.57291 15.0993 3.55479 15.0739 3.53419C14.4884 3.04148 13.98 2.70038 13.2804 2.34939C12.1742 1.79489 10.8184 1.48427 9.54147 1.48427C8.73834 1.48427 7.99927 1.5609 7.27333 1.74216L6.05385 2.13847C5.37719 2.43178 4.72762 2.77948 4.15279 3.24005L3.89821 3.44685C3.68717 3.61823 3.49829 3.81515 3.30449 4.00877C3.17721 4.13483 3.04171 4.29467 2.93003 4.43721C2.52928 4.94968 2.18192 5.50583 1.94213 6.11306C1.759 6.57528 1.61036 7.06963 1.54467 7.56646C1.50525 7.86472 1.44941 8.53044 1.49622 8.87484L1.54138 9.29257C1.59394 9.78445 1.75243 10.3019 1.92817 10.7435C2.01932 10.9717 2.11786 11.1653 2.22133 11.3754C2.4176 11.7717 2.68695 12.1302 2.9563 12.477L3.50486 13.0719C3.9327 13.5012 4.40489 13.8579 4.9321 14.1735C5.27207 14.377 5.62601 14.5632 5.99801 14.7115C6.27722 14.8235 6.54164 14.9274 6.83892 15.0122L7.57635 15.1976C8.0469 15.3097 8.72931 15.383 9.23681 15.383H9.23927ZM13.6943 7.10012C13.6943 7.3959 13.6466 7.45687 13.4421 7.66368C13.3978 7.70817 13.3641 7.72877 13.3206 7.77326C13.1646 7.93145 13.0159 8.07893 12.8591 8.2363L11.9213 9.15909C11.9353 9.32635 12.1718 10.6924 12.2095 10.9165C12.2317 11.0525 12.2982 11.4018 12.2982 11.5097C12.2982 11.8764 11.9139 12.2793 11.3752 11.9975C11.3292 11.9736 11.2906 11.9489 11.2422 11.9242C11.1896 11.8978 11.1518 11.8764 11.1001 11.8475L9.57432 11.0393C9.5193 11.0121 9.47906 10.9931 9.43225 10.9618C9.41665 10.9758 9.42815 10.9676 9.40351 10.9824C9.39365 10.9882 9.37969 10.9948 9.37148 10.9989C9.03972 11.1637 8.66279 11.3853 8.33103 11.5509C8.23002 11.6012 8.15283 11.6465 8.05182 11.6968L7.63876 11.9159C7.44414 12.0132 7.3768 12.0947 7.12469 12.0947C6.75844 12.0947 6.47759 11.7231 6.57531 11.3367C6.58517 11.2972 6.59091 11.293 6.59913 11.2634C6.60816 11.2288 6.61062 11.2065 6.61637 11.1711L6.92843 9.26703C6.94485 9.17557 6.95717 9.1764 6.89722 9.11955L6.19264 8.41345C6.1524 8.37307 6.12365 8.35742 6.08342 8.31622L5.4708 7.70075C5.29014 7.51949 5.17025 7.45275 5.17025 7.13719C5.17025 6.95016 5.27208 6.78044 5.40593 6.67909C5.56278 6.56045 5.76397 6.56045 5.9627 6.53161L7.80054 6.26878C7.91797 6.2523 7.90236 6.27455 7.94999 6.17485L8.33431 5.39131C8.36223 5.33528 8.37866 5.28914 8.40658 5.23311L8.87137 4.28643C8.93132 4.15378 8.96745 4.10352 9.07585 4.01701C9.28444 3.85057 9.56364 3.86952 9.77715 4.01124C9.88145 4.08127 9.92661 4.15048 9.98409 4.26665L10.7486 5.83787C10.8045 5.95075 10.8488 6.04056 10.9022 6.15838C10.958 6.28114 10.9285 6.24901 11.2298 6.29267L13.2664 6.58846C13.5062 6.64943 13.691 6.88178 13.691 7.10012H13.6943ZM16.9322 19H16.9569C17.5062 18.9992 17.8815 18.972 18.3948 18.8443C18.5861 18.7965 18.6912 18.7355 18.8087 18.6136C18.9499 18.4669 19 18.2873 19 18.0624C19 17.3299 18.403 16.7944 17.8848 16.3799C17.5826 16.1385 17.2788 15.9029 17.0061 15.6293C16.8509 15.4736 16.7121 15.3014 16.5988 15.1127C16.5077 14.962 16.4313 14.7947 16.3828 14.6225C16.3484 14.4997 16.3196 14.3737 16.3048 14.2377C16.2942 14.1422 16.2671 14.1199 16.3319 14.0573C16.4288 13.9642 16.5389 13.8694 16.6226 13.764C16.644 13.7368 16.6456 13.731 16.6719 13.7038C16.8657 13.5077 17.0382 13.2902 17.209 13.0727C17.5908 12.585 17.9185 12.0519 18.1788 11.4883C18.2765 11.2766 18.3784 11.0475 18.4531 10.8251C18.7175 10.03 18.867 9.32223 18.867 8.41509C18.867 7.68181 18.7528 7.02267 18.6001 6.4418C18.5253 6.15838 18.4227 5.86341 18.3192 5.60305C18.2938 5.53879 18.2642 5.4704 18.2363 5.40614L17.9686 4.84587C17.7115 4.32515 17.2763 3.70721 16.8912 3.27136C16.8649 3.2417 16.8518 3.23263 16.8271 3.20132C16.7113 3.04972 16.4141 2.75806 16.2777 2.632C16.2465 2.60316 16.2301 2.59657 16.1981 2.56526L15.3629 1.88058C14.7856 1.4612 14.3093 1.20991 13.6869 0.90753C13.2828 0.711437 12.8074 0.545005 12.3754 0.420593C12.0822 0.335729 11.8022 0.265696 11.4877 0.202254C9.04629 -0.287979 6.46609 0.119862 4.32277 1.3508C4.08873 1.4851 3.86372 1.63588 3.63954 1.78583C3.58123 1.82455 3.53607 1.86245 3.47694 1.90283C3.41699 1.94402 3.37183 1.97945 3.31599 2.02147C3.26261 2.06184 3.2117 2.10139 3.15914 2.14423C3.03267 2.24805 2.898 2.34527 2.78303 2.46062L2.42499 2.79596C2.37572 2.84539 2.33384 2.88576 2.28539 2.93602L2.0185 3.22851C1.68591 3.58692 1.32377 4.10105 1.07987 4.52784C1.06345 4.55667 1.04456 4.58551 1.02485 4.61847C0.83105 4.94639 0.675023 5.29491 0.534598 5.64837C0.50832 5.71428 0.482042 5.77937 0.456585 5.85105C0.332584 6.20781 0.23322 6.56375 0.152742 6.93533C0.119073 7.09353 0.0952587 7.25501 0.0730864 7.41568C0.0550201 7.54421 0.0114967 7.91662 0.0114967 8.05998L0 8.45052C0 8.55846 0.0131391 8.62025 0.0123179 8.7183C0.00985435 9.08741 0.0763712 9.6279 0.15767 9.97313C0.279206 10.4881 0.405671 10.9594 0.619181 11.4471L0.886891 12.0074C0.903315 12.0395 0.918097 12.0733 0.935342 12.1054C0.952587 12.1384 0.967368 12.1573 0.983792 12.1903C1.20716 12.6245 1.68591 13.3059 2.0185 13.6486C2.04888 13.6799 2.05463 13.6964 2.08502 13.7277C2.24022 13.8892 2.39132 14.0664 2.55885 14.2147L2.77728 14.4091C2.80767 14.4396 2.81259 14.4445 2.84791 14.4726C2.90128 14.5138 2.94727 14.5615 2.99901 14.6011C3.02939 14.625 3.04499 14.6406 3.07866 14.667C3.87358 15.2899 4.64632 15.7562 5.61287 16.1443C6.13433 16.3536 6.70835 16.5307 7.31603 16.6527C8.50923 16.8916 9.73774 16.9377 10.9547 16.7367C11.0484 16.721 11.1141 16.6881 11.1913 16.7482L11.9082 17.2591C12.1586 17.4263 12.4148 17.5796 12.676 17.7312L12.8739 17.8374C12.9486 17.8745 12.9995 17.9067 13.0718 17.9429C13.3518 18.0822 13.6351 18.209 13.9275 18.3269C14.7897 18.6746 15.9813 18.9975 16.9331 18.9984L16.9322 19Z" fill="white"/>
</svg>
