<svg width="15" height="20" viewBox="0 0 15 19" fill="none" xmlns="http://www.w3.org/2000/svg">
<path fill-rule="evenodd" clip-rule="evenodd" d="M6.76109 13.4499C6.76109 14.0308 6.644 14.7834 7.04731 15.0342C7.43762 15.2719 8.11415 15.2323 8.23124 14.5853C8.34833 13.9384 8.07512 13.5819 8.40037 13.3443C8.93379 12.935 9.12894 12.2749 8.93379 11.6412C8.40037 9.99085 5.83737 10.4529 6.01951 12.3013C6.09757 13.0142 6.50089 13.1991 6.76109 13.4499ZM1.518 16.4601C1.53101 14.8362 1.518 13.1991 1.518 11.5752C1.518 10.7698 1.49198 9.89844 1.518 9.10628C1.53101 8.76302 1.75218 8.45935 2.02539 8.38014C2.32463 8.28772 10.3909 8.34053 11.5488 8.34053C13.1751 8.34053 13.4873 8.20851 13.4873 9.62118V15.3115C13.4743 16.4205 13.6825 17.4371 12.6417 17.4371H3.75574C2.37667 17.4239 1.518 17.6879 1.518 16.4601ZM4.51033 5.36996C4.51033 4.27415 4.45829 3.68004 5.05676 2.78227C5.29094 2.439 5.6162 2.10894 5.99349 1.8977C7.25548 1.22437 8.72562 1.47522 9.61031 2.34658C10.0527 2.78227 10.495 3.56122 10.495 4.69664V6.83545L4.51033 6.82224V5.38316V5.36996ZM3.0532 4.22135C3.07922 4.525 3.04019 5.07951 3.04019 5.42278L3.02718 6.74303C3.01417 6.83545 3.01417 6.79584 2.98815 6.82224C2.97514 6.82224 2.97514 6.83545 2.96213 6.83545C2.96213 6.83545 2.94912 6.84865 2.93611 6.84865L1.94733 6.88826C1.32285 6.82224 0.555246 7.54838 0.321064 7.98406C-0.108271 8.73661 0.0218301 9.51556 0.00881994 10.4397C-0.00419021 12.3013 0.00881994 14.1497 0.00881994 16.0112C0.00881994 17.0674 0.0218301 17.5955 0.581267 18.2028C1.08866 18.7705 1.53101 18.9818 2.57182 18.9686H10.7812C11.6139 18.9686 12.6937 19.0874 13.3963 18.863C14.0338 18.6649 14.5542 18.15 14.8144 17.5295C15.1006 16.8166 14.9705 15.7736 14.9705 14.889C14.9705 13.0274 14.9575 11.1791 14.9705 9.31752C14.9705 8.1425 14.4371 7.19192 13.2662 6.88826C12.8238 6.76943 12.3294 6.88826 11.9782 6.79584C11.9521 4.77585 12.1993 3.05952 10.9374 1.60724C10.3259 0.894308 9.5973 0.392611 8.64756 0.141763C7.20344 -0.227908 5.64222 0.154966 4.74452 0.947118C4.45829 1.21117 4.3412 1.25077 4.10702 1.54123C3.59962 2.17495 2.89707 3.42919 3.02718 4.22135H3.0532Z" fill="black"/>
</svg>
