<svg width="24" height="21" viewBox="0 0 24 21" fill="none" xmlns="http://www.w3.org/2000/svg">
<path fill-rule="evenodd" clip-rule="evenodd" d="M15.2952 11.3972C15.6097 11.4601 16.3016 11.0198 16.5532 10.8311C16.7419 10.7053 16.8048 10.5795 16.9306 10.4537C16.9935 10.3908 17.0564 10.3279 17.1193 10.2021C17.6853 10.894 18.3143 11.3343 19.2578 11.4601C19.5094 11.4601 20.1384 11.5229 20.3271 11.4601H20.39V19.3852H15.1694V11.4601C15.2952 11.4601 15.2323 11.4601 15.2323 11.3972H15.2952ZM8.4393 2.40271C8.5022 2.40271 8.5022 2.40272 8.4393 2.33982H11.2068V6.23951H7.49583L7.74742 5.29603C7.81032 4.98153 8.4393 2.52851 8.4393 2.40271ZM13.8486 11.4601V19.3852H3.34454V11.4601H3.40744C3.59614 11.5229 4.22512 11.5229 4.47671 11.4601C5.23149 11.3343 6.04917 10.894 6.55235 10.265C6.61525 10.2021 6.61525 10.265 6.61525 10.1392C6.67815 10.2021 6.74105 10.3279 6.86685 10.3908C7.18134 10.7053 7.37003 10.8311 7.68452 11.0198C8.5651 11.523 9.94886 11.523 10.8294 11.0198C11.081 10.894 11.2068 10.7682 11.3955 10.6424C11.5842 10.4537 11.8987 10.1392 11.8987 10.1392C11.8987 10.2021 12.0245 10.265 12.0245 10.3279C12.2132 10.5166 12.4019 10.7053 12.6535 10.894C12.7793 11.0198 12.968 11.0827 13.1567 11.1456C13.2825 11.2085 13.597 11.3343 13.7228 11.3343C13.7857 11.3972 13.6599 11.3343 13.7857 11.3972L13.8486 11.4601ZM17.1193 15.4856C18.0627 15.4856 17.9998 14.1647 17.1822 14.1647H17.0564C16.7419 14.1647 16.4274 14.5421 16.4903 14.8566C16.4903 15.234 16.7419 15.4856 17.1193 15.4856ZM4.66541 14.7308C4.66541 15.1711 4.917 15.4856 5.35729 15.4856C5.67178 15.4856 5.79758 15.2969 5.98627 15.1082L6.99264 14.1018C7.18134 13.9131 7.37003 13.7873 7.37003 13.4728C7.37003 13.0954 7.05554 12.7809 6.67815 12.7809C6.36366 12.7809 6.23786 12.9696 6.04917 13.1583L5.10569 14.1018C4.9799 14.2276 4.72831 14.4163 4.72831 14.7308H4.66541ZM9.88596 17.3725C9.88596 17.5612 9.94886 17.7499 10.0747 17.8757C10.2634 18.0644 10.452 18.0644 10.6407 18.0644C10.9552 18.0644 11.3955 17.4983 11.71 17.2467L12.4019 16.4919C12.6535 16.1145 12.5277 15.4226 11.8358 15.4226C11.5213 15.4226 11.3955 15.6114 11.2068 15.8L10.2005 16.8064C10.0747 16.9322 9.82306 17.1209 9.82306 17.4354L9.88596 17.3725ZM5.92337 17.3725C5.92337 17.687 6.17496 18.0015 6.55235 18.0015C6.99264 18.0015 7.05554 17.8757 7.37003 17.5612L10.7665 14.1647C10.9552 13.976 11.2068 13.7873 11.2068 13.4099C11.2068 13.0325 10.8923 12.7809 10.5778 12.7809C10.2005 12.7809 10.0747 13.0325 9.88596 13.2212L8.12481 14.9824C7.74742 15.3598 7.37003 15.7371 6.99264 16.1145C6.80395 16.3032 6.61525 16.4919 6.42656 16.6806C6.23786 16.8693 5.98627 17.058 5.98627 17.3725H5.92337ZM4.03642 0.956055H19.761C20.1384 0.956055 20.3271 1.20764 20.4529 1.45923L22.3398 5.23314C22.4656 5.48473 23.0317 6.6169 23.0317 6.80559V8.44094C23.0317 8.69253 22.9688 9.06993 22.9059 9.25862C22.7172 9.82471 22.5285 10.0134 22.214 10.4537C22.0253 10.7053 21.7737 10.8311 21.7737 10.894V19.3852C22.1511 19.3852 22.5914 19.3223 22.843 19.511C23.0317 19.6997 23.0946 19.8884 23.0946 20.0771C23.0946 20.3916 22.7801 20.6432 22.4656 20.6432H1.52049C1.08021 20.6432 0.828613 20.3916 0.828613 20.0771V19.8884C0.828613 19.6997 0.95441 19.511 1.08021 19.4481C1.3947 19.2594 1.77209 19.3223 2.14948 19.3223V10.8311C1.96078 10.7682 1.3947 10.1392 1.2689 9.82471C1.01731 9.38442 0.828613 8.94413 0.828613 8.37805V6.80559C0.828613 6.6169 1.4576 5.48473 1.58339 5.23314L3.47034 1.39634C3.59614 1.14475 3.72193 0.956055 4.16222 0.956055H4.03642ZM9.25698 10.1392C8.25061 10.1392 7.30713 9.25861 7.30713 8.31514V7.56037H11.2068C11.2068 8.50384 11.2697 8.81834 10.7665 9.51022C10.7036 9.57312 10.7036 9.57312 10.6407 9.63602C10.2634 10.0134 9.76017 10.2021 9.25698 10.2021V10.1392ZM17.8111 8.06356V7.49748H21.7108C21.7108 8.12646 21.7737 8.44094 21.5221 9.00702C21.4592 9.13282 21.3963 9.19571 21.3334 9.32151C21.2705 9.38441 21.2705 9.38441 21.2076 9.44731C20.7045 10.0763 19.6352 10.3279 18.8804 9.95051C18.1256 9.57312 17.7482 8.88124 17.7482 8.06356H17.8111ZM12.5277 7.87485V7.56037H16.4274C16.4274 8.12645 16.4903 8.56675 16.2387 9.06993C15.7984 10.0134 14.6662 10.4537 13.6599 9.95051C13.5341 9.88761 13.4083 9.82469 13.3454 9.7618C13.0309 9.5102 12.7793 9.19573 12.6535 8.81834C12.5906 8.56674 12.5277 8.25224 12.5277 7.87485ZM2.02368 7.87485V7.56037H5.92337C5.92337 8.12645 5.98627 8.56675 5.73468 9.06993C5.23149 10.1392 3.84773 10.5166 2.77846 9.7618C2.46397 9.5102 2.21237 9.19573 2.08658 8.81834C2.02368 8.56674 1.96078 8.25224 1.96078 7.87485H2.02368ZM12.5277 2.27691H15.2323C15.2952 2.27691 15.3581 2.5285 15.421 2.7172C15.4839 2.84299 15.4839 3.0317 15.5468 3.2204L16.3016 6.1766H12.5906V2.27691H12.5277ZM6.11207 6.1766H2.46397L4.41381 2.27691H7.05554C7.05554 2.40271 6.61525 4.03807 6.55235 4.22677C6.48946 4.41546 6.04917 6.0508 6.04917 6.1766H6.11207ZM16.679 2.27691H19.3207C19.5094 2.5914 19.6352 2.9059 19.8239 3.2204C20.0126 3.53489 20.1384 3.84936 20.3271 4.16385L21.019 5.61051C21.0819 5.73631 21.2076 5.98791 21.2705 6.11371H17.6224C17.6224 5.98791 17.5595 5.73631 17.4967 5.61051L17.1193 4.10097C17.0564 3.78648 16.9306 3.47198 16.8677 3.15748C16.8048 3.03169 16.8048 2.84301 16.7419 2.65431L16.6161 2.15111L16.679 2.27691Z" fill="#30BA29"/>
</svg>
