<svg width="22" height="22" viewBox="0 0 22 22" fill="none" xmlns="http://www.w3.org/2000/svg">
<path fill-rule="evenodd" clip-rule="evenodd" d="M17.1788 8.93869L13.338 8.93769C12.9078 8.93769 11.9082 8.78243 11.9133 9.63036C11.9183 10.4571 12.8574 10.3129 13.338 10.3129L17.1788 10.3139V13.03C17.1698 13.1338 17.1889 13.2447 17.2473 13.3617C17.5022 13.8679 18.0867 13.8235 18.4383 13.4717C19.3693 12.5421 20.7325 11.1205 21.6655 10.2443C22.0998 9.83807 22.1189 9.4539 21.6776 9.04059L20.2871 7.65335C19.6624 7.03534 19.0719 6.43441 18.4493 5.8144C18.3032 5.66919 18.1662 5.49273 17.8437 5.50188C17.5465 5.50992 17.3541 5.68337 17.2563 5.86987C17.1859 6.00292 17.1657 6.12893 17.1788 6.2459L17.1788 8.93869ZM1.7269 1.39327C1.94251 1.33278 2.73047 1.64329 2.96014 1.72097L6.56116 2.92171C8.02615 3.42274 7.78634 3.15465 7.78634 4.90486V19.3697C7.78634 19.8606 7.89519 20.4938 7.44278 20.6108C7.21813 20.6683 6.41601 20.3537 6.19638 20.2791L2.59841 19.0783C1.13542 18.5954 1.37524 18.8152 1.37524 17.0972V2.63341C1.37524 2.10615 1.2553 1.52542 1.7269 1.39327ZM9.17281 17.8715C9.12853 17.5892 9.16075 8.45172 9.16075 8.18764C9.16075 7.43146 9.20817 3.80703 9.13857 3.37542C8.90076 1.90145 7.44176 1.81473 6.32344 1.38222C8.1834 1.35298 10.1663 1.3762 12.0403 1.3762C12.7396 1.3762 13.2504 1.79564 13.2807 2.4872C13.3139 3.24037 13.2827 4.07211 13.2827 4.83332C13.2827 5.34451 13.1789 6.72271 13.4066 7.03423C13.8066 7.58169 14.658 7.36494 14.658 6.56444V2.59714C14.658 1.0889 13.5527 0 12.0403 0H1.87504C0.770774 0 0 0.80652 0 1.91161V18.2516C0 19.6338 0.938075 19.9797 1.89321 20.2943L6.29525 21.7622C6.84336 21.9497 7.27556 22.106 7.90934 21.9084C8.37079 21.7642 8.75273 21.3801 8.95618 21.0101C9.21719 20.5342 9.17179 19.8679 9.15874 19.2619C10.2872 19.15 12.0897 19.4454 13.049 19.0805C13.9094 18.7538 14.6581 17.8888 14.6581 16.6648V12.6965C14.6581 11.8173 13.715 11.6983 13.3855 12.2428C13.1699 12.5977 13.314 16.0771 13.2808 16.7736C13.2496 17.4199 12.7447 17.8776 12.0768 17.8776C11.2688 17.8776 9.91535 17.9047 9.17281 17.8715Z" fill="#fff"/>
</svg>
