<svg width="25" height="22" viewBox="0 0 25 22" fill="none" xmlns="http://www.w3.org/2000/svg">
<path fill-rule="#fff" clip-rule="#fff" d="M19.3134 19.399C19.2505 18.7701 19.6279 18.2669 20.1311 18.204C21.5778 18.0153 21.7036 20.028 20.4456 20.2167C19.8795 20.2796 19.3763 19.9022 19.2505 19.399H19.3134ZM8.49493 19.3361C8.36913 17.9524 10.3819 17.8266 10.5077 19.0846C10.5706 19.7135 10.1303 20.1538 9.6271 20.2167C9.06101 20.2796 8.55783 19.8393 8.49493 19.3361ZM12.6462 10.0901H17.1749L16.7975 12.7947H12.9607C12.8349 12.4173 12.6462 10.5304 12.6462 10.0901ZM21.2004 12.7947H18.2442L18.5586 10.0901H22.0809L21.2004 12.7947ZM7.80305 10.0901H11.3253L11.6398 12.7947H8.68362C8.49493 12.3544 8.36913 11.9142 8.24333 11.4739C8.11754 11.1594 7.86594 10.4046 7.80305 10.153V10.0901ZM12.5204 8.70634C12.3946 8.45474 12.2059 6.442 12.143 6.00171H17.6781C17.6781 6.442 17.4265 8.45474 17.3007 8.70634H12.4575H12.5204ZM19.0618 6.00171H23.4018C23.3389 6.3791 22.647 8.45474 22.5212 8.70634H18.7473L19.0618 6.00171ZM7.29986 8.70634L7.17406 8.32895C6.98537 7.69997 6.48218 6.442 6.41928 6.00171H10.7593L11.0738 8.70634H7.29986ZM1.57612 1.97623H3.58886L8.55783 17.0089C8.05464 17.3234 7.86594 17.3863 7.55145 17.8266C6.60798 19.1474 7.23696 20.8457 8.43203 21.4118C9.87869 22.0408 11.4511 21.2231 11.7027 19.7764C11.8285 19.0217 11.6398 18.833 11.5769 18.2669H18.0555C17.9297 18.833 17.741 19.2103 17.9297 19.9022C18.5586 22.1037 21.6407 22.2924 22.3954 20.0909C22.7728 19.0846 22.3954 17.9524 21.5149 17.3234C21.1375 17.0718 20.5714 16.8831 20.0053 16.8831H9.87869L8.99811 14.1785H21.3262C22.0181 14.1785 22.0809 13.9898 22.2696 13.4237L23.5905 9.52401C23.8421 8.64344 24.2195 7.76286 24.4711 6.94519C24.7227 6.19041 25.4775 4.74375 24.1566 4.74375H5.8532C5.60161 3.98897 5.35001 3.17129 5.09842 2.41651C4.59524 0.906953 4.72103 0.718262 3.65176 0.718262H1.38743C1.13583 0.718262 0.947137 0.781158 0.821341 0.906955C0.569748 1.15855 0.569748 1.66173 0.947137 1.97623C1.13583 2.10202 1.19873 2.10202 1.51322 2.10202L1.57612 1.97623Z" fill="#fff"/>
</svg>
