<svg width="33" height="48" viewBox="0 0 33 48" fill="none" xmlns="http://www.w3.org/2000/svg">
<path fill-rule="evenodd" clip-rule="evenodd" d="M6.32448 7.58739C6.78877 7.32945 7.0467 7.74215 6.89194 8.30961C6.53083 9.28976 5.65385 10.5794 4.82846 10.9405C4.261 11.1985 3.95148 10.631 4.31259 10.2699C4.41576 10.1667 4.62211 10.0636 4.77687 9.96039C6.11813 8.82548 5.96337 7.84532 6.37607 7.63897L6.32448 7.58739ZM3.0745 8.7223C2.61021 7.84532 3.02291 8.30961 3.95148 7.17469C4.62211 6.3493 4.46735 5.36914 5.18957 5.67866C5.96337 6.03977 4.31259 8.82548 3.0745 8.7223ZM7.25305 15.5834L7.14988 14.8096C6.63401 15.0675 6.16972 15.2739 6.22131 14.3969C6.42766 14.2421 6.78877 14.0358 6.99512 13.8294C6.99512 13.4683 6.94353 12.6945 6.84036 12.4366C6.73718 12.2818 6.78877 12.4882 6.22131 12.9009C6.01496 13.0556 5.49909 13.4167 5.29274 12.9009C5.08639 12.4882 5.55068 12.4366 6.32448 11.4048C7.09829 10.3731 7.25305 9.90881 7.61416 8.77389C7.76892 8.20643 7.8721 8.15484 7.56257 7.69056C7.25305 7.22628 6.78877 6.60723 6.47925 6.14295C6.06655 5.67866 5.65385 5.1112 5.29274 4.69851C4.72528 3.97629 3.28084 2.42868 2.14593 2.48026C-0.536602 2.58344 2.6618 9.34135 3.02291 10.1152L5.4475 14.9128C5.55068 15.0675 5.65385 15.1707 5.70544 15.377L5.75703 15.4802C5.91179 15.8929 6.01496 15.9445 6.47925 15.9961C6.99512 16.0993 7.14988 15.8413 7.40781 15.635L7.25305 15.5834Z" fill="white"/>
<path fill-rule="evenodd" clip-rule="evenodd" d="M7.45978 36.115L9.31691 35.7539C9.42009 35.2896 8.9558 31.6269 8.85263 30.9563C8.64628 29.3571 8.54311 27.7063 8.33676 26.1586C8.07882 24.6626 7.71771 23.1666 7.40819 21.7222C7.09867 20.2261 6.78915 18.7301 6.47962 17.2341L4.1582 16.8214C4.20979 17.2341 6.27327 25.3333 6.42804 25.9007C6.73756 27.0872 7.20184 35.0316 7.45978 36.2181V36.115ZM10.2455 14.8095C10.2455 15.1706 12.2574 23.6825 12.4121 24.5079L13.1859 29.615C13.2891 30.3372 13.8566 34.4642 14.0113 34.7737L29.2295 31.9364C29.2811 31.6269 27.2692 23.992 26.8565 22.3412L26.7018 21.8253C26.6502 21.6706 26.6502 21.7222 26.5986 21.6706C26.4954 22.0833 26.2891 23.0118 26.0311 23.1666C25.7216 23.3214 25.3605 23.2182 25.2573 22.9602C25.1542 22.6507 25.2573 22.3928 25.3605 22.0833C26.6502 17.9563 26.2891 19.1944 26.1859 14.6547C26.1343 11.6111 26.547 12.1785 24.793 12.4365C19.9439 13.1587 15.0431 14.1904 10.2971 14.8611L10.2455 14.8095ZM7.56295 16.8214C7.61454 17.3888 8.28517 20.4325 8.43993 21.2579C8.74946 22.7539 9.11057 24.1983 9.3685 25.746L10.4518 35.4443C10.8129 35.4443 12.7217 35.0832 12.8764 34.98C12.051 29.2539 11.6383 25.5912 10.2971 20.1745C10.0907 19.4007 9.93596 18.5753 9.7812 17.8015C9.67802 17.3888 9.3685 15.7381 9.21374 15.4801C8.74946 15.7381 8.13041 16.4087 7.56295 16.873V16.8214Z" fill="#30BA29"/>
<path fill-rule="evenodd" clip-rule="evenodd" d="M15.5072 2.73813C14.0112 3.20241 13.4953 5.21431 13.7017 6.65875C13.908 8.00001 14.785 10.1151 16.4874 9.70239C17.7771 9.39287 18.5509 7.43256 18.2929 5.78177C18.035 4.4405 17.158 2.27385 15.5588 2.73813H15.5072Z" fill="white"/>
<path fill-rule="evenodd" clip-rule="evenodd" d="M14.4754 10.3214C14.527 10.6825 14.7334 11.1468 14.7849 11.5595C14.8365 11.9722 14.8365 12.5912 15.0429 12.8492L18.6024 12.2301L18.4476 9.54761C18.2413 9.59919 18.396 9.54761 18.2413 9.65078C18.0349 9.80554 17.7254 10.373 16.7452 10.6825C15.6619 10.992 15.1976 10.5793 14.4238 10.2698L14.4754 10.3214Z" fill="white"/>
<path fill-rule="evenodd" clip-rule="evenodd" d="M8.28529 14.7579C8.85274 14.2936 9.05909 13.8293 9.98766 13.7777L14.4242 13.623L13.7019 11.8174C13.3924 9.65077 11.3289 8.61902 10.7615 5.05951C10.4519 3.20238 10.8646 3.56349 9.16227 3.76984C8.59481 3.82142 8.74957 3.82142 8.90433 4.80158C9.62655 9.96029 7.09878 9.85711 8.33687 14.7579H8.28529Z" fill="white"/>
<path fill-rule="evenodd" clip-rule="evenodd" d="M21.5947 11.766L25.1542 11.1985L26.0312 6.86521L22.6265 6.19458L21.5947 11.766Z" fill="white"/>
<path fill-rule="evenodd" clip-rule="evenodd" d="M21.9043 3.09944C21.9043 3.09944 22.5233 4.90499 22.6781 5.11134L25.7217 5.67879L25.0511 3.92483C24.8963 3.61531 24.9995 3.61531 24.6384 3.56372C24.0194 3.40896 22.3686 3.20261 22.0075 3.04785L21.9043 3.15103V3.09944Z" fill="white"/>
<path fill-rule="evenodd" clip-rule="evenodd" d="M24.8964 2.42876L24.9995 1.80972C24.5868 1.65496 22.0591 1.19067 21.8011 1.19067C21.6464 2.01607 21.44 1.86131 22.9361 2.11924C23.4003 2.22242 24.5353 2.48035 24.8964 2.42876Z" fill="white"/>
<path fill-rule="evenodd" clip-rule="evenodd" d="M20.4597 11.9722L21.5946 5.98814L19.428 5.57544L19.6859 11.1468C19.7375 12.0754 19.5827 12.2818 20.4597 11.9722Z" fill="white"/>
<path fill-rule="evenodd" clip-rule="evenodd" d="M19.8406 4.49202C20.0985 4.69837 20.9239 4.74996 21.3366 4.80154L20.8723 3.40869C20.6144 3.51187 19.9953 4.28567 19.8922 4.49202H19.8406Z" fill="white"/>
<path d="M17.0033 47.8253C24.1545 47.8253 29.9517 47.4558 29.9517 47C29.9517 46.5441 24.1545 46.1746 17.0033 46.1746C9.85211 46.1746 4.05493 46.5441 4.05493 47C4.05493 47.4558 9.85211 47.8253 17.0033 47.8253Z" fill="#DEDEDE"/>
<path fill-rule="evenodd" clip-rule="evenodd" d="M7.56286 16.8214C8.13031 16.3571 8.74936 15.6865 9.21364 15.4285C9.3684 15.6865 9.67793 17.3373 9.7811 17.75C9.93586 18.5238 10.1422 19.3492 10.297 20.123C11.6382 25.5396 12.0509 29.2023 12.8763 34.9285C12.67 35.0316 10.7613 35.3927 10.4517 35.3927L9.3684 25.6944C9.11047 24.1983 8.74936 22.7539 8.43984 21.2063C8.28507 20.3809 7.56286 17.2857 7.56286 16.7698V16.8214ZM3.12636 8.7738C4.36445 8.87698 6.01524 6.09127 5.24144 5.73016C4.5708 5.42064 4.67398 6.45238 4.00334 7.22619C3.07478 8.3611 2.66208 7.89682 3.12636 8.7738ZM6.32476 7.63889C5.91207 7.89682 6.06683 8.87698 4.72556 9.96031C4.5708 10.0635 4.36445 10.2182 4.26128 10.2698C3.90017 10.6309 4.20969 11.1984 4.77715 10.9405C5.60254 10.5794 6.53111 9.28967 6.84064 8.30952C7.04698 7.79365 6.73746 7.38095 6.27318 7.5873L6.32476 7.63889ZM9.31682 35.7539L7.45968 36.115C7.20175 34.9801 6.73746 26.9841 6.42794 25.7976C6.27318 25.2301 4.20969 17.1309 4.15811 16.7182L6.47953 17.1309C6.78905 18.6269 7.09857 20.123 7.40809 21.619C7.71762 23.115 8.07873 24.5595 8.33666 26.0555C8.5946 27.6547 8.64618 29.2539 8.85253 30.8531C8.95571 31.5753 9.41999 35.238 9.31682 35.6507V35.7539ZM10.2454 14.8611C14.9914 14.1904 19.8922 13.1587 24.7414 12.4365C26.5469 12.1786 26.0826 11.6111 26.1342 14.6547C26.2374 19.1944 26.5985 18.0079 25.3088 22.0833C25.2056 22.3928 25.1025 22.6507 25.2056 22.9603C25.3088 23.2182 25.6699 23.3214 25.9795 23.1666C26.2374 23.0118 26.4953 22.0317 26.5469 21.6706C26.5985 21.7738 26.5469 21.6706 26.6501 21.8769L26.8048 22.3928C27.2175 24.0436 29.2294 31.6785 29.1779 31.988L13.9597 34.8253C13.8049 34.5158 13.2374 30.3888 13.1343 29.6666L12.3605 24.5595C12.2057 23.7857 10.1938 15.2222 10.1938 14.8611H10.2454ZM14.4755 10.373C15.1977 10.6825 15.7136 11.0952 16.7969 10.7857C17.7771 10.5278 18.0866 9.96031 18.293 9.75396C18.4477 9.65078 18.293 9.70237 18.4993 9.65078L18.6541 12.3333L15.0946 12.9524C14.9398 12.6428 14.9398 12.0754 14.8366 11.6627C14.785 11.1984 14.5271 10.7857 14.5271 10.4246L14.4755 10.373ZM22.6263 6.19445L26.031 6.86508L25.1541 11.1984L21.5945 11.7659L22.6263 6.14286V6.19445ZM15.5073 2.73811C17.1581 2.27383 18.035 4.44049 18.2414 5.78175C18.4993 7.43254 17.7255 9.39285 16.4358 9.70237C14.785 10.1151 13.8565 8 13.6501 6.65873C13.4438 5.21429 13.9597 3.15081 15.4557 2.73811H15.5073ZM20.4596 11.9722C19.5311 12.2817 19.7374 12.0754 19.6858 11.1468L19.4279 5.5754L21.5945 5.9881L20.4596 11.9722ZM5.3962 14.9643L2.9716 10.1667C2.61049 9.39285 -0.587908 2.63494 2.09462 2.53176C3.22954 2.48018 4.67398 4.02779 5.24144 4.75001C5.60254 5.1627 6.01524 5.73016 6.42794 6.19445C6.78905 6.65873 7.20175 7.27778 7.51127 7.74206C7.82079 8.20634 7.7692 8.20634 7.56286 8.82539C7.25333 9.96031 7.09857 10.4246 6.27318 11.4563C5.49937 12.4881 5.03509 12.4881 5.24144 12.9524C5.44778 13.4166 5.96365 13.1071 6.17 12.9524C6.73746 12.5397 6.68587 12.3333 6.78905 12.4881C6.94381 12.746 6.94381 13.5198 6.9954 13.8809C6.78905 14.0873 6.47953 14.2936 6.22159 14.4484C6.17 15.377 6.63429 15.119 7.15016 14.8611L7.25333 15.6349C6.9954 15.8412 6.84064 16.0992 6.32476 15.996C5.86048 15.9444 5.80889 15.8928 5.60255 15.4801L5.55096 15.377C5.44778 15.1706 5.34461 15.0674 5.29302 14.9127L5.3962 14.9643ZM19.8922 4.49207C19.9953 4.28572 20.6144 3.51192 20.8723 3.40874L21.3366 4.80159C20.9755 4.75001 20.1501 4.64683 19.8406 4.49207H19.8922ZM8.33666 14.7579C7.09857 9.85713 9.41999 10.7857 9.31682 7.84523C9.16206 6.86508 9.05888 6.86508 9.57475 6.81349C11.2771 6.60714 11.174 6.09127 11.4835 7.94841C12.6184 10.373 13.4438 9.70237 13.7533 11.869L13.9081 13.2103L9.98745 13.8293C9.05888 13.8809 8.85253 14.3452 8.28507 14.8095L8.33666 14.7579ZM25.1025 3.92461L25.7731 5.67858L22.7295 5.11112C22.5747 4.90477 21.9041 3.09922 21.9557 3.09922L22.0588 3.04763C22.4715 3.20239 24.0707 3.40874 24.6898 3.5635C25.0509 3.66668 24.9993 3.61509 25.1025 3.92461ZM24.9477 2.42859C24.5866 2.42859 23.4517 2.17065 22.9874 2.11907C21.4914 1.86113 21.6977 1.9643 21.8525 1.1905C22.1104 1.1905 24.6382 1.65478 25.0509 1.80954L24.9477 2.42859ZM9.05888 5.42064L8.95571 4.3889L10.6065 4.13096L10.8128 5.21429L9.05888 5.42064ZM7.61444 3.46033C7.71762 4.75001 8.02714 5.62699 7.97555 6.45238C6.78905 5.05953 4.00334 0.674626 1.47558 1.60319C-1.56806 2.73811 0.908118 8.20634 1.73351 10.0635C2.14621 10.9405 2.55891 11.8174 2.9716 12.6428C3.17795 13.0555 3.3843 13.4682 3.64223 13.9325C3.84858 14.3452 4.15811 14.8095 4.31287 15.2222C2.66208 16.0992 2.40414 14.2936 3.797 19.7103C4.46763 22.3928 5.3962 25.4364 5.65413 28.0674C5.75731 29.0991 5.80889 30.234 5.96365 31.2142C6.17 32.5555 6.22159 34.361 6.42794 35.9086C6.53111 36.734 6.37635 36.734 6.73746 37.3015C7.71762 37.4562 11.6898 36.2181 13.0311 36.2181C13.4438 37.0435 13.1858 39.0038 12.8247 39.7261C11.793 41.8927 9.41999 41.738 7.61444 40.1904C6.06683 38.8491 5.65413 36.6824 4.62239 38.5396C4.36445 39.0038 4.15811 39.4165 3.95176 39.8808C3.48747 40.7578 3.07478 41.6348 2.61049 42.5634C2.30097 43.1824 2.50732 43.853 3.22954 43.7499C3.74541 43.6983 4.36445 41.9959 4.72556 41.2737C4.93191 40.861 5.18985 40.2419 5.44778 39.9324C5.65413 40.0356 8.33666 43.853 11.8446 42.4602C13.5985 41.738 14.4755 39.984 14.5787 38.1785C14.6303 37.3015 14.4239 36.7856 14.4239 36.0118C14.785 35.857 20.408 34.8769 21.285 34.6705C22.2136 34.5158 22.162 34.4126 22.9358 34.7737C23.3485 34.9801 23.916 35.2896 24.2255 35.5475C24.5866 35.857 24.9477 36.1666 25.3088 36.5277C26.5469 37.7658 27.4239 39.5197 27.8366 41.2221C27.8882 41.48 28.0429 42.2022 28.1461 42.4086C28.3525 42.7697 28.8683 42.7697 29.1263 42.5634C29.3842 42.357 30.2096 40.1904 32.0667 38.7975C32.2731 38.6427 32.3763 38.5912 32.531 38.488C33.5112 37.8173 33.0469 35.857 30.2612 38.6427C29.7453 39.1586 29.1263 40.0356 28.9199 40.2419C28.404 38.9007 27.5787 37.0435 26.5985 36.0118C25.8247 35.1864 24.535 34.2062 24.4834 34.1031C25.8763 33.9483 28.1461 33.4324 29.6937 33.1229C30.4675 32.9682 30.8286 32.9682 30.5707 32.0912C29.6937 28.9959 28.9199 25.2301 28.0429 22.1349C27.8882 21.5674 27.785 21.0515 27.6302 20.4841C27.4755 19.865 27.4239 15.1706 27.4239 14.3452C27.4239 13.8809 27.4755 11.6627 27.2691 11.3532C26.8564 10.7341 26.3921 11.6627 26.5985 10.5794L27.2175 7.27778C27.3723 6.60714 27.4239 6.55556 27.166 5.93651C26.8564 5.21429 26.5985 4.49207 26.2374 3.71827C25.9795 3.09922 26.031 3.15081 26.1342 2.48018C26.4437 0.7778 26.7017 0.984149 23.9676 0.468278C23.5549 0.416691 21.6461 -0.0475934 21.3366 0.00399373C20.666 0.158755 20.9239 1.70637 20.4596 2.27383C20.3049 2.42859 20.2017 2.53176 20.0985 2.68652L19.3763 3.51192C19.0668 3.82144 19.17 3.82144 18.9636 3.87303C17.3644 0.571452 14.1144 1.08732 13.0311 4.02779C12.67 5.11112 12.6184 5.93651 12.7216 7.1746C11.9478 6.40079 11.9993 4.95636 11.7414 3.30557C11.6382 2.7897 11.6898 2.94446 10.6581 3.04763C9.7811 3.15081 8.5946 3.40874 7.71762 3.46033H7.61444Z" fill="black"/>
</svg>
