<svg width="123" height="159" viewBox="0 0 123 159" fill="none" xmlns="http://www.w3.org/2000/svg">
<path fill-rule="evenodd" clip-rule="evenodd" d="M0.079963 122.872C0.079963 122.819 0.13288 122.753 0.238713 122.673C0.344547 122.593 0.437445 122.54 0.517408 122.515C1.49813 122.462 2.46592 122.447 3.42077 122.475C4.37562 122.5 5.34341 122.515 6.32413 122.515C7.06732 122.515 7.75641 122.607 8.39259 122.793C9.02994 122.978 9.6132 123.362 10.1435 123.946C10.621 124.397 10.9714 124.915 11.1972 125.498C11.423 126.081 11.5746 126.657 11.6546 127.228C11.7346 127.798 11.7604 128.334 11.7346 128.839C11.7075 129.342 11.6675 129.741 11.6146 130.032C11.5617 130.271 11.4888 130.496 11.3959 130.708C11.303 130.92 11.2042 131.132 11.0972 131.345C11.0443 131.45 10.9785 131.536 10.8985 131.603C10.8197 131.669 10.7727 131.729 10.7597 131.782C10.7468 131.835 10.7727 131.908 10.8397 132.001C10.9055 132.094 11.0584 132.219 11.2971 132.378C11.5088 132.538 11.7346 132.777 11.9733 133.094C12.212 133.413 12.4237 133.77 12.6095 134.168C12.7953 134.567 12.954 134.984 13.0869 135.421C13.2186 135.859 13.2986 136.276 13.3256 136.674C13.4044 137.682 13.4644 138.684 13.5043 139.677C13.5443 140.672 13.5502 141.673 13.5243 142.68C13.5243 144.563 12.8082 146.154 11.3759 147.454C10.9514 147.825 10.4881 148.103 9.98362 148.288C9.48032 148.474 8.96291 148.594 8.43257 148.647C8.19386 148.673 7.67763 148.707 6.88152 148.746C6.0866 148.786 5.25051 148.826 4.37562 148.866C3.50073 148.906 2.69875 148.926 1.96968 148.926C1.2406 148.926 0.796102 148.899 0.637352 148.846C0.504473 148.793 0.398639 148.68 0.318676 148.507C0.238713 148.336 0.172861 148.183 0.119945 148.05C0.119945 148.024 0.112889 147.652 0.0999538 146.936C0.0870186 146.22 0.0729075 145.286 0.0599723 144.133C0.0470371 142.979 0.032926 141.673 0.0199908 140.215C0.00705556 138.756 0 137.258 0 135.72C0 134.182 0 132.67 0 131.186C0 129.701 0 128.361 0 127.168C0 125.975 0.00705556 124.993 0.0199908 124.224C0.032926 123.455 0.0529167 123.005 0.079963 122.872ZM5.7785 157.627V155.42C5.7785 155.055 5.59624 154.87 5.23052 154.87H2.20016C1.83445 154.87 1.651 155.055 1.64983 155.42V157.627H5.7785ZM38.6621 40.0068C40.0485 38.9367 41.4502 37.3033 42.5615 36.6872C42.9013 37.3492 43.6904 41.2251 43.8997 42.2211C44.2866 44.0696 44.7158 46.0123 45.1768 47.8702C48.3635 60.7454 49.276 69.4367 51.2634 82.9434C50.7906 83.2374 46.3009 84.077 45.4672 84.0594L42.9354 61.1335C42.3322 57.5693 41.4808 54.1579 40.78 50.5572C40.3907 48.5781 38.7456 41.3227 38.6621 40.0068ZM28.1458 20.8886C31.1186 21.1685 35.0026 14.4857 33.1635 13.6696C31.5442 12.9464 31.8135 15.3347 30.259 17.2303C28.0729 19.9008 27.0522 18.7954 28.1458 20.8886ZM35.7846 18.1487C34.7545 18.7284 35.1967 21.0238 31.9876 23.6932C31.6454 23.9766 31.1021 24.2882 30.9057 24.474C30.0155 25.3159 30.8422 26.6377 32.144 26.0815C34.1042 25.243 36.2574 22.1174 37.0805 19.8197C37.5285 18.5614 36.8347 17.5584 35.7846 18.1487ZM42.8214 84.7179L38.4058 85.6316C37.7966 82.8881 36.6866 64.0521 35.941 61.1994C35.5953 59.8659 30.6329 40.7018 30.567 39.7257L36.1033 40.7594C36.8641 44.3025 37.6014 47.8714 38.2894 51.3862C38.9808 54.8976 39.8827 58.3995 40.4354 61.9449C41.0187 65.6785 41.2115 69.5614 41.7019 73.3149C41.9218 74.9847 43.0225 83.6678 42.8214 84.7202V84.7179ZM45.0145 35.1949C56.2881 33.6439 67.8686 31.1873 79.4209 29.4752C83.6719 28.8425 82.5865 27.5431 82.7559 34.7704C83.0087 45.5348 83.8459 42.6691 80.832 52.4281C80.6157 53.1219 80.2829 53.7369 80.5651 54.4554C80.8191 55.0892 81.6575 55.3632 82.3784 54.9952C83.0392 54.6612 83.5425 52.3599 83.7777 51.418C83.9341 51.6414 83.8259 51.4392 84.0023 51.8507L84.3504 53.0337C85.3488 56.9578 90.1395 75.0953 90.0137 75.8138L53.9292 82.5589C53.5482 81.7887 52.2241 72.0273 52.0089 70.2987L50.1568 58.1408C49.7864 56.2757 45.0333 36.0533 45.0145 35.1937V35.1949ZM55.0875 24.6045C56.8337 25.3253 57.9673 26.272 60.5485 25.5547C62.8521 24.9173 63.5636 23.5509 64.0915 23.1499C64.4408 22.8841 64.0951 23.0147 64.5643 22.9229L64.9323 29.2518L56.4574 30.6758C56.0306 29.9879 56.0435 28.585 55.8671 27.5631C55.6848 26.506 55.1851 25.4441 55.0875 24.6045ZM74.3668 14.7397L82.396 16.366L80.3417 26.6835L71.8738 28.0041L74.3668 14.7397ZM57.477 6.55286C61.3422 5.41691 63.4577 10.5357 64.0127 13.7636C64.6819 17.6748 62.8086 22.3209 59.7571 23.0805C55.8107 24.0624 53.674 19.0694 53.1966 15.8944C52.6745 12.4278 53.9033 7.60178 57.477 6.55286ZM69.2021 28.4369C67.0255 29.2024 67.457 28.6415 67.33 26.4719L66.675 13.2745L71.8644 14.2516L69.2021 28.4369ZM33.4927 35.5371L27.7378 24.22C26.8793 22.3279 19.2805 6.43526 25.6399 6.13187C28.3551 6.00605 31.7547 9.67259 33.1494 11.3683C33.996 12.3949 35.0238 13.7013 35.9493 14.8443C36.7971 15.8932 37.8025 17.3573 38.5692 18.4662C39.3336 19.5668 39.1407 19.5857 38.7339 20.9756C37.9413 23.6896 37.5744 24.7915 35.6964 27.2245C33.8291 29.641 32.7449 29.6728 33.2329 30.7134C33.7644 31.8388 34.885 31.0439 35.4154 30.6699C36.7912 29.7022 36.6913 29.2435 36.9276 29.5893C37.2687 30.189 37.351 32.0375 37.3557 32.9101C36.917 33.424 36.0833 33.9237 35.5377 34.3141C35.4683 36.4778 36.5219 35.9205 37.7637 35.3337L38.0553 37.1716C37.4921 37.6585 37.0664 38.2782 35.8669 38.0795C34.7769 37.8972 34.6169 37.8607 34.2112 36.8471L34.1172 36.599C33.9302 36.1592 33.6903 35.8475 33.4927 35.5383V35.5371ZM67.811 10.7497C68.0474 10.2888 69.5784 8.40847 70.1699 8.20739L71.3294 11.5141C70.418 11.3706 68.4813 11.1872 67.811 10.7497ZM40.4366 35.0326C37.5332 23.4744 43.0107 25.6758 42.7685 18.6073C42.4463 16.2495 42.1041 16.2766 43.4176 16.112C47.4816 15.6087 47.2041 14.4527 47.9049 18.8331C50.5366 24.5704 52.5722 22.9429 53.313 28.0876L53.7128 31.2167L44.4465 32.6784C42.284 32.856 41.7219 33.9308 40.4366 35.0338V35.0326ZM80.1735 9.37273L81.7034 13.4932L74.5338 12.1761C74.1739 11.7034 72.6323 7.44068 72.6546 7.42775L72.9039 7.24548C73.8223 7.65352 77.6876 8.12154 79.1587 8.45668C80.0653 8.66364 79.8396 8.59544 80.1735 9.37273ZM79.7784 5.8426C78.8671 5.90375 76.2283 5.28168 75.0947 5.07354C71.5199 4.41032 72.0714 4.76545 72.4147 2.8334C73.0474 2.85927 79.0423 3.92701 80.0265 4.3233L79.7784 5.8426ZM42.184 12.9381L41.9065 10.4346L45.827 9.84898L46.3527 12.4231L42.184 12.9381ZM38.6998 8.23796C38.9937 11.313 39.731 13.3815 39.5276 15.2782C36.7454 11.9939 30.1519 1.52577 24.0818 3.80472C16.8499 6.51993 22.7342 19.461 24.7274 23.8402C25.6564 25.8816 26.6959 27.9782 27.7189 30.0008C28.2446 31.0357 28.742 31.9764 29.2806 33.0183C29.8227 34.0554 30.4565 35.0938 30.8775 36.1227C26.9675 38.2558 26.4137 33.8708 29.5946 46.7061C31.1773 53.0937 33.401 60.2316 33.9761 66.5569C34.1995 68.9711 34.3429 71.6992 34.6581 73.9876C35.0967 77.1567 35.3154 81.4947 35.7117 85.0566C35.9234 86.971 35.5953 86.9992 36.4208 88.3633C38.7386 88.7889 48.1554 85.7598 51.3586 85.8033C52.3393 87.8023 51.6926 92.3896 50.8541 94.1606C48.4388 99.2676 42.832 98.9501 38.5657 95.273C34.9203 92.1321 33.8632 86.9439 31.5031 91.3772C30.9433 92.4296 30.4447 93.3974 29.8815 94.4981C28.7914 96.623 27.786 98.682 26.7406 100.819C26.028 102.276 26.4631 103.823 28.1517 103.583C29.3688 103.41 30.8963 99.4464 31.7571 97.7307C32.2263 96.7982 32.8554 95.2989 33.4281 94.5051C33.8937 94.705 40.2579 103.795 48.5423 100.447C52.6686 98.7796 54.7382 94.5639 54.9711 90.253C55.0828 88.1998 54.5936 86.9451 54.5607 85.18C55.3697 84.7873 68.7917 82.4354 70.819 82.0368C72.9921 81.617 72.9122 81.4194 74.7419 82.2684C75.765 82.7459 77.022 83.4796 77.8005 84.0911C78.6824 84.7767 79.5667 85.5058 80.4228 86.3959C83.298 89.3769 85.4029 93.475 86.4342 97.4602C86.5988 98.0988 86.8857 99.8015 87.175 100.285C87.6701 101.113 88.8389 101.195 89.4822 100.645C90.0325 100.178 92.0198 94.9861 96.4777 91.7323C96.9152 91.4136 97.2397 91.2302 97.6008 90.9903C99.9326 89.4181 98.7649 84.7861 92.1903 91.3336C90.9274 92.5895 89.5598 94.6039 88.9847 95.0943C87.7124 91.9687 85.7733 87.4578 83.4755 85.0648C81.6293 83.1398 78.5284 80.7444 78.4202 80.5798C81.7575 80.2517 87.0962 78.937 90.8098 78.2973C92.6771 77.9763 93.4615 77.8787 92.8629 75.7938C90.7533 68.4278 88.9001 59.5025 86.8187 52.2106C86.4412 50.8959 86.1813 49.6753 85.8215 48.3547C85.4205 46.8719 85.3876 35.8111 85.33 33.7626C85.2994 32.716 85.4252 27.3621 84.9795 26.7012C84.027 25.2865 82.9052 27.4091 83.4132 24.8973L84.9078 17.1139C85.2218 15.5146 85.4076 15.3488 84.8173 13.9835C84.0541 12.2326 83.4191 10.5275 82.6688 8.69422C82.0832 7.26076 82.1467 7.38071 82.4301 5.8132C83.1639 1.7586 83.833 2.21604 77.2749 1.0554C76.3059 0.884889 71.7221 -0.144047 71.0824 0.0170552C69.4538 0.421574 70.097 4.07283 69.0057 5.39222C68.66 5.80967 68.4154 5.97665 68.1003 6.34825L66.3623 8.32968C65.6885 9.11755 65.933 9.07052 65.4156 9.16106C61.6033 1.39524 53.9186 2.51472 51.3574 9.56205C50.4437 12.0762 50.4308 14.0894 50.6566 16.9998C48.7692 15.1724 48.9362 11.7904 48.2741 7.82051C48.0731 6.614 48.1907 6.96208 45.7118 7.269C43.5834 7.53005 40.8341 8.12977 38.6998 8.23678V8.23796ZM116.88 156.522V157.073C116.88 157.441 117.064 157.624 117.432 157.624H120.46C120.826 157.624 121.01 157.441 121.01 157.073C121.01 156.706 120.826 156.522 120.46 156.522H116.88ZM121.56 157.073C121.56 157.808 121.195 158.174 120.46 158.174H117.432C116.698 158.174 116.33 157.808 116.33 157.073V155.42C116.33 154.687 116.698 154.32 117.432 154.32H120.46C121.195 154.32 121.56 154.687 121.56 155.42C121.559 155.789 121.466 156.064 121.284 156.247C121.466 156.432 121.559 156.706 121.56 157.073ZM121.01 155.42C121.01 155.055 120.826 154.87 120.46 154.87H117.432C117.064 154.87 116.88 155.055 116.88 155.42V155.972H120.46C120.823 155.972 121.008 155.789 121.01 155.42ZM114.741 157.073C114.741 157.808 114.375 158.174 113.64 158.174H110.612C109.879 158.174 109.511 157.808 109.511 157.073V155.42C109.511 154.687 109.879 154.32 110.612 154.32H113.64C114.375 154.32 114.741 154.687 114.741 155.42V157.073ZM114.191 157.073L114.193 155.42C114.192 155.055 114.007 154.87 113.64 154.87H110.612C110.244 154.87 110.061 155.055 110.061 155.42V157.073C110.063 157.441 110.247 157.624 110.612 157.624H113.643C114.008 157.624 114.191 157.441 114.191 157.073ZM102.695 154.87L102.691 154.32H107.922V154.87H105.585V158.174H105.031V154.87H102.695ZM96.4225 156.525V158.174H95.8721V154.32H96.4225V155.972H99.7268C100.09 155.972 100.365 155.789 100.552 155.42V154.32H101.103V155.42C101.1 155.789 100.915 156.064 100.55 156.247C100.917 156.432 101.101 156.706 101.103 157.073V158.174H100.552V157.073C100.369 156.706 100.094 156.522 99.7268 156.522L96.4225 156.525ZM93.7331 156.429C93.5814 156.492 93.398 156.522 93.1828 156.522H90.1548C89.421 156.522 89.0529 156.155 89.0529 155.42V154.32H89.6033V155.42C89.6056 155.789 89.7891 155.972 90.1548 155.972H93.1852C93.5509 155.972 93.7331 155.789 93.7331 155.42V154.32H94.2811L94.2835 157.073C94.2835 157.808 93.9177 158.174 93.1828 158.174H89.0529V157.624H93.1852C93.5509 157.624 93.7331 157.441 93.7331 157.073V156.429ZM86.3624 157.627V155.42C86.3624 155.055 86.1802 154.87 85.8144 154.87H82.7841C82.4184 154.87 82.2349 155.055 82.2337 155.42V157.627H86.3624ZM86.9104 157.627C87.2785 157.627 87.4619 157.809 87.4643 158.174V158.725C87.4643 158.908 87.3725 159 87.1856 159C87.0045 159 86.9139 158.908 86.9139 158.725V158.174H81.6822V158.725C81.6811 158.908 81.5893 159 81.4071 159C81.2236 159 81.1319 158.908 81.1319 158.725V158.177C81.1319 157.81 81.3153 157.627 81.6822 157.627V155.42C81.6822 154.687 82.0503 154.32 82.7841 154.32H85.8121C86.547 154.32 86.9139 154.687 86.9139 155.42L86.9104 157.627ZM79.5432 157.073C79.5432 157.808 79.1775 158.174 78.4426 158.174H75.4145C74.6808 158.174 74.3127 157.808 74.3127 157.073V155.42C74.3127 154.687 74.6808 154.32 75.4145 154.32H78.4426C79.1775 154.32 79.5432 154.687 79.5432 155.42V157.073ZM78.9929 157.073L78.9952 155.42C78.9941 155.055 78.8094 154.87 78.4426 154.87H75.4145C75.0465 154.87 74.863 155.055 74.863 155.42V157.073C74.8654 157.441 75.0488 157.624 75.4145 157.624H78.4449C78.8106 157.624 78.9929 157.441 78.9929 157.073ZM68.0438 155.972H71.6257C71.9914 155.972 72.1737 155.789 72.1737 155.42H72.176C72.1749 155.055 71.9902 154.87 71.6234 154.87H68.0438V155.972ZM68.0438 156.522V158.174H67.4935V154.32H71.6234C72.3583 154.32 72.724 154.687 72.724 155.42C72.724 156.155 72.3583 156.522 71.6234 156.522H68.0438ZM65.3545 158.174V155.42C65.3545 155.055 65.1722 154.87 64.8065 154.87H61.7761C61.4104 154.87 61.227 155.055 61.2246 155.42V158.174H60.6743V155.42C60.6743 154.687 61.0424 154.32 61.7761 154.32H64.8042C65.5391 154.32 65.9048 154.687 65.9048 155.42L65.9025 158.174H65.3545ZM50.9329 156.797H53.059L51.996 155.104L50.9329 156.797ZM53.4059 157.349H50.586L50.0686 158.174H49.3807L51.789 154.32H52.2029L54.6112 158.174H53.9233L53.4059 157.349ZM43.1118 156.525V158.174H42.5615V154.32H43.1118V155.972H46.4162C46.7795 155.972 47.0547 155.789 47.2417 155.42V154.32H47.792V155.42C47.7897 155.789 47.6039 156.064 47.2393 156.247C47.6062 156.432 47.7908 156.706 47.792 157.073V158.174H47.2417V157.073C47.0582 156.706 46.7831 156.522 46.4162 156.522L43.1118 156.525ZM36.2926 156.522V157.073C36.2926 157.441 36.4761 157.624 36.8441 157.624H39.8722C40.239 157.624 40.4225 157.441 40.4225 157.073C40.4225 156.706 40.239 156.522 39.8722 156.522H36.2926ZM40.9728 157.073C40.9728 157.808 40.6071 158.174 39.8722 158.174H36.8441C36.1104 158.174 35.7423 157.808 35.7423 157.073V155.42C35.7423 154.687 36.1104 154.32 36.8441 154.32H39.8722C40.6071 154.32 40.9728 154.687 40.9728 155.42C40.9716 155.789 40.8787 156.064 40.6965 156.247C40.8787 156.432 40.9716 156.706 40.9728 157.073ZM40.4225 155.42C40.4225 155.055 40.239 154.87 39.8722 154.87H36.8441C36.4761 154.87 36.2926 155.055 36.2926 155.42V155.972H39.8722C40.2355 155.972 40.4201 155.789 40.4225 155.42ZM30.4753 156.797H32.6014L31.5384 155.104L30.4753 156.797ZM32.9483 157.349H30.1284L29.611 158.174H28.9231L31.3314 154.32H31.7453L34.1536 158.174H33.4657L32.9483 157.349ZM22.1074 154.87L22.1039 154.32H27.3344V154.87H24.9979V158.174H24.444V154.87H22.1074ZM20.5152 158.174H16.3865C15.6539 158.174 15.287 157.808 15.2847 157.073V155.42C15.2847 154.687 15.6528 154.32 16.3865 154.32H20.5152V154.87H16.3865C16.0185 154.87 15.8362 155.055 15.8386 155.42L15.835 157.073C15.835 157.441 16.0185 157.624 16.3865 157.624H20.5152V158.174ZM13.696 157.073C13.696 157.808 13.3303 158.174 12.5954 158.174H9.56734C8.83356 158.174 8.4655 157.808 8.4655 157.073V155.42C8.4655 154.687 8.83356 154.32 9.56734 154.32H12.5954C13.3303 154.32 13.696 154.687 13.696 155.42V157.073ZM13.1457 157.073L13.148 155.42C13.1469 155.055 12.9622 154.87 12.5954 154.87H9.56734C9.19928 154.87 9.01583 155.055 9.01583 155.42V157.073C9.01818 157.441 9.20163 157.624 9.56734 157.624H12.5977C12.9634 157.624 13.1457 157.441 13.1457 157.073ZM6.32296 157.627C6.69102 157.627 6.87447 157.809 6.87682 158.174V158.725C6.87682 158.908 6.7851 159 6.59813 159C6.41703 159 6.32649 158.908 6.32649 158.725V158.174H1.09479V158.725C1.09361 158.908 1.00189 159 0.819621 159C0.636176 159 0.544454 158.908 0.544454 158.725V158.177C0.544454 157.81 0.727899 157.627 1.09479 157.627V155.42C1.09479 154.687 1.46285 154.32 2.19663 154.32H5.22464C5.9596 154.32 6.32649 154.687 6.32649 155.42L6.32296 157.627ZM113.393 127.333C113.341 127.361 113.268 127.419 113.175 127.512C113.082 127.605 113.036 127.678 113.036 127.731C113.036 127.997 113.042 128.328 113.055 128.733C113.069 129.13 113.082 129.535 113.095 129.945C113.109 130.357 113.122 130.761 113.135 131.159C113.148 131.556 113.168 131.888 113.195 132.159C113.195 132.212 113.241 132.279 113.333 132.358C113.426 132.438 113.499 132.478 113.552 132.478C113.95 132.478 114.368 132.471 114.806 132.458C115.243 132.445 115.668 132.431 116.078 132.418C116.49 132.405 116.874 132.398 117.232 132.398C117.589 132.398 117.888 132.398 118.127 132.398C118.604 132.398 118.929 132.491 119.101 132.677C119.273 132.863 119.373 133.141 119.4 133.512C119.4 133.803 119.406 134.095 119.419 134.388C119.433 134.679 119.426 134.971 119.4 135.263C119.32 135.799 118.896 136.091 118.127 136.144C117.463 136.198 116.774 136.203 116.058 136.164C115.342 136.125 114.653 136.131 113.99 136.184C113.672 136.211 113.479 136.271 113.413 136.362C113.346 136.455 113.313 136.661 113.313 136.98C113.341 137.536 113.353 138.166 113.353 138.875C113.353 139.578 113.353 140.26 113.353 140.924C113.353 141.587 113.353 142.163 113.353 142.661C113.353 143.151 113.366 143.45 113.393 143.555C113.419 143.635 113.479 143.714 113.572 143.794C113.665 143.874 113.751 143.914 113.831 143.914C114.388 143.94 115.07 143.947 115.879 143.934C116.688 143.92 117.477 143.914 118.246 143.914H120.951C121.163 143.94 121.374 143.947 121.587 143.934C121.799 143.92 121.945 144.099 122.025 144.464C122.052 144.57 122.071 144.762 122.085 145.034C122.098 145.312 122.105 145.611 122.105 145.923C122.105 146.24 122.098 146.539 122.085 146.83C122.071 147.122 122.065 147.315 122.065 147.421C122.065 147.632 121.992 147.825 121.846 147.991C121.7 148.163 121.507 148.263 121.269 148.288C121.11 148.288 120.732 148.288 120.135 148.288C119.539 148.288 118.843 148.288 118.047 148.288C117.252 148.288 116.41 148.288 115.522 148.288C114.633 148.288 113.811 148.288 113.055 148.288C112.3 148.288 111.657 148.288 111.126 148.288C110.596 148.288 110.304 148.288 110.251 148.288C109.986 148.288 109.767 148.196 109.595 148.011C109.422 147.825 109.324 147.599 109.297 147.335C109.269 147.016 109.257 146.247 109.257 145.028C109.257 143.807 109.249 142.376 109.237 140.732C109.224 139.087 109.217 137.331 109.217 135.461C109.217 133.592 109.217 131.848 109.217 130.231C109.217 128.613 109.211 127.228 109.197 126.074C109.184 124.92 109.177 124.237 109.177 124.026C109.177 123.548 109.389 123.309 109.814 123.309C110.131 123.309 110.749 123.309 111.664 123.309C112.579 123.309 113.579 123.304 114.666 123.289C115.754 123.277 116.814 123.264 117.848 123.251C118.883 123.237 119.678 123.231 120.235 123.231C121.322 123.177 121.786 123.694 121.627 124.782C121.574 125 121.547 125.219 121.547 125.445C121.547 125.67 121.547 125.888 121.547 126.101C121.574 126.366 121.494 126.597 121.309 126.797C121.123 126.996 120.884 127.095 120.592 127.095C120.54 127.095 120.334 127.102 119.976 127.115C119.619 127.128 119.187 127.142 118.684 127.155C118.179 127.168 117.629 127.182 117.033 127.195C116.437 127.208 115.886 127.221 115.382 127.235C114.879 127.248 114.441 127.268 114.07 127.293C113.698 127.321 113.473 127.333 113.393 127.333ZM92.0351 123.111C92.1409 123.085 92.5184 123.065 93.1687 123.051C93.8178 123.038 94.5939 123.031 95.4958 123.031C96.3966 123.031 97.3585 123.025 98.3792 123.012C99.3999 122.998 100.362 122.992 101.263 122.992C102.165 122.992 102.934 122.998 103.57 123.012C104.206 123.025 104.578 123.031 104.683 123.031C105.028 123.058 105.261 123.131 105.38 123.251C105.499 123.369 105.545 123.601 105.519 123.946C105.492 124.291 105.492 124.629 105.519 124.96C105.545 125.292 105.532 125.63 105.479 125.975C105.374 126.664 104.935 127.009 104.166 127.009C103.636 126.982 103.125 126.989 102.635 127.029C102.145 127.069 101.634 127.089 101.104 127.089C100.812 127.089 100.679 127.235 100.706 127.526C100.706 127.871 100.706 128.587 100.706 129.674C100.706 130.761 100.706 132.028 100.706 133.473C100.706 134.918 100.706 136.449 100.706 138.066C100.706 139.684 100.706 141.189 100.706 142.581C100.706 143.973 100.706 145.159 100.706 146.141C100.706 147.122 100.706 147.705 100.706 147.891C100.706 148.183 100.561 148.328 100.269 148.328C99.8174 148.356 99.3741 148.361 98.9354 148.348C98.498 148.336 98.0547 148.341 97.6031 148.368C96.994 148.421 96.6882 148.13 96.6882 147.494C96.6624 146.883 96.6424 145.981 96.6294 144.789C96.6153 143.595 96.6024 142.283 96.5895 140.851C96.5765 139.418 96.5695 137.96 96.5695 136.475C96.5695 134.991 96.5624 133.632 96.5495 132.398C96.5365 131.166 96.5295 130.158 96.5295 129.376C96.5295 128.593 96.5295 128.202 96.5295 128.202C96.5295 127.964 96.5165 127.751 96.4895 127.566C96.4636 127.406 96.4307 127.261 96.3907 127.128C96.3507 126.996 96.2908 126.929 96.2108 126.929C96.132 126.929 95.9262 126.936 95.5946 126.949C95.263 126.963 94.8855 126.969 94.461 126.969C94.0365 126.969 93.6061 126.969 93.1687 126.969C92.7312 126.969 92.3796 126.969 92.1139 126.969C92.061 126.969 92.0022 126.909 91.9351 126.79C91.8693 126.67 91.8364 126.584 91.8364 126.531C91.8364 126.346 91.8293 126.081 91.8164 125.737C91.8034 125.391 91.7964 125.04 91.7964 124.682C91.7964 124.324 91.8164 123.993 91.8564 123.688C91.8952 123.382 91.9551 123.191 92.0351 123.111ZM80.6992 127.333C80.6462 127.361 80.5733 127.419 80.4804 127.512C80.3875 127.605 80.3417 127.678 80.3417 127.731C80.3417 127.997 80.3476 128.328 80.3605 128.733C80.3746 129.13 80.3875 129.535 80.4005 129.945C80.4146 130.357 80.4275 130.761 80.4405 131.159C80.4534 131.556 80.4734 131.888 80.5004 132.159C80.5004 132.212 80.5463 132.279 80.6392 132.358C80.7321 132.438 80.805 132.478 80.8579 132.478C81.2554 132.478 81.674 132.471 82.1115 132.458C82.5489 132.445 82.9734 132.431 83.3838 132.418C83.7954 132.405 84.1799 132.398 84.5374 132.398C84.8949 132.398 85.1936 132.398 85.4323 132.398C85.9097 132.398 86.2342 132.491 86.4071 132.677C86.5788 132.863 86.6787 133.141 86.7058 133.512C86.7058 133.803 86.7117 134.095 86.7246 134.388C86.7387 134.679 86.7317 134.971 86.7058 135.263C86.6258 135.799 86.2013 136.091 85.4323 136.144C84.769 136.198 84.0799 136.203 83.3638 136.164C82.6477 136.125 81.9586 136.131 81.2953 136.184C80.9779 136.211 80.785 136.271 80.7191 136.362C80.6521 136.455 80.6192 136.661 80.6192 136.98C80.6462 137.536 80.6592 138.166 80.6592 138.875C80.6592 139.578 80.6592 140.26 80.6592 140.924C80.6592 141.587 80.6592 142.163 80.6592 142.661C80.6592 143.151 80.6721 143.45 80.6992 143.555C80.725 143.635 80.785 143.714 80.8779 143.794C80.9708 143.874 81.0566 143.914 81.1366 143.914C81.694 143.94 82.376 143.947 83.1851 143.934C83.9941 143.92 84.7831 143.914 85.5522 143.914H88.2568C88.4685 143.94 88.6802 143.947 88.893 143.934C89.1047 143.92 89.2505 144.099 89.3305 144.464C89.3575 144.57 89.3763 144.762 89.3904 145.034C89.4034 145.312 89.4104 145.611 89.4104 145.923C89.4104 146.24 89.4034 146.539 89.3904 146.83C89.3763 147.122 89.3704 147.315 89.3704 147.421C89.3704 147.632 89.2975 147.825 89.1517 147.991C89.0059 148.163 88.813 148.263 88.5743 148.288C88.4156 148.288 88.0381 148.288 87.4408 148.288C86.8446 148.288 86.1484 148.288 85.3523 148.288C84.5574 148.288 83.7154 148.288 82.8276 148.288C81.9386 148.288 81.1166 148.288 80.3605 148.288C79.6055 148.288 78.9623 148.288 78.432 148.288C77.9016 148.288 77.61 148.288 77.5571 148.288C77.2913 148.288 77.0726 148.196 76.9009 148.011C76.7281 147.825 76.6293 147.599 76.6022 147.335C76.5752 147.016 76.5622 146.247 76.5622 145.028C76.5622 143.807 76.5552 142.376 76.5423 140.732C76.5293 139.087 76.5223 137.331 76.5223 135.461C76.5223 133.592 76.5223 131.848 76.5223 130.231C76.5223 128.613 76.5164 127.228 76.5023 126.074C76.4893 124.92 76.4823 124.237 76.4823 124.026C76.4823 123.548 76.6951 123.309 77.1196 123.309C77.4371 123.309 78.0545 123.309 78.9694 123.309C79.8842 123.309 80.885 123.304 81.9715 123.289C83.0592 123.277 84.1199 123.264 85.1536 123.251C86.1884 123.237 86.9833 123.231 87.5407 123.231C88.6273 123.177 89.0918 123.694 88.933 124.782C88.8801 125 88.853 125.219 88.853 125.445C88.853 125.67 88.853 125.888 88.853 126.101C88.8801 126.366 88.8001 126.597 88.6143 126.797C88.4285 126.996 88.1898 127.095 87.8982 127.095C87.8453 127.095 87.6395 127.102 87.282 127.115C86.9245 127.128 86.493 127.142 85.9897 127.155C85.4852 127.168 84.9348 127.182 84.3387 127.195C83.7425 127.208 83.1921 127.221 82.6876 127.235C82.1843 127.248 81.7469 127.268 81.3753 127.293C81.0037 127.321 80.7791 127.333 80.6992 127.333ZM64.3926 131.146C64.3926 131.279 64.5913 131.345 64.9888 131.345C65.3862 131.345 65.8237 131.225 66.3011 130.986C66.7785 130.748 67.216 130.37 67.6146 129.852C68.0121 129.336 68.2108 128.64 68.2108 127.765C68.2108 127.552 68.2038 127.201 68.1908 126.71C68.1779 126.22 68.1708 125.722 68.1708 125.219C68.1708 124.715 68.1708 124.271 68.1708 123.887C68.1708 123.502 68.1708 123.297 68.1708 123.269C68.1979 123.244 68.3167 123.231 68.5295 123.231C68.7412 123.231 68.9928 123.231 69.2844 123.231C69.5761 123.231 69.8818 123.231 70.1993 123.231C70.518 123.231 70.7967 123.231 71.0354 123.231C71.5657 123.231 71.8703 123.277 71.9503 123.369C72.029 123.462 72.082 123.761 72.109 124.264C72.109 124.556 72.109 124.94 72.109 125.418C72.109 125.895 72.109 126.373 72.109 126.85C72.109 127.328 72.102 127.778 72.089 128.202C72.0761 128.627 72.069 128.932 72.069 129.117C72.042 129.329 71.9891 129.601 71.9103 129.932C71.8303 130.264 71.7115 130.608 71.5516 130.967C71.3929 131.325 71.1871 131.676 70.9354 132.021C70.6838 132.365 70.3592 132.644 69.9606 132.856C69.7748 132.961 69.696 133.068 69.7219 133.174C69.7489 133.28 69.8289 133.36 69.9606 133.413C70.4121 133.678 70.7896 133.996 71.0942 134.368C71.3999 134.738 71.6575 135.11 71.8703 135.481C72.1349 135.959 72.3077 136.462 72.3877 136.993C72.4665 137.523 72.4806 138.053 72.4265 138.584C72.4265 138.822 72.4265 139.2 72.4265 139.717C72.4265 140.235 72.4206 140.825 72.4065 141.487C72.3936 142.15 72.3936 142.839 72.4065 143.555C72.4206 144.272 72.4206 144.935 72.4065 145.544C72.3936 146.154 72.3877 146.677 72.3877 147.116C72.3877 147.554 72.3877 147.825 72.3877 147.931C72.3877 148.011 72.3607 148.097 72.3077 148.19C72.2548 148.283 72.2019 148.328 72.149 148.328C71.9891 148.356 71.7703 148.368 71.4928 148.368C71.2141 148.368 70.9284 148.368 70.6367 148.368C70.3451 148.368 70.0805 148.368 69.8418 148.368C69.6031 148.368 69.4702 148.368 69.4444 148.368C69.2056 148.368 69.0199 148.356 68.887 148.328C68.7541 148.303 68.6612 148.236 68.6083 148.13C68.5554 148.024 68.5224 147.865 68.5095 147.652C68.4954 147.441 68.4895 147.149 68.4895 146.777C68.4895 146.38 68.4825 145.77 68.4695 144.948C68.4566 144.126 68.4495 143.244 68.4495 142.303C68.4495 141.361 68.4425 140.466 68.4295 139.617C68.4166 138.769 68.3966 138.119 68.3696 137.669C68.2908 136.98 68.0321 136.429 67.5946 136.018C67.1572 135.607 66.6727 135.336 66.1424 135.203C65.9566 135.176 65.7578 135.137 65.5462 135.083C65.3333 135.03 65.1416 135.024 64.9688 135.064C64.7971 135.103 64.6572 135.203 64.5513 135.362C64.4455 135.521 64.3926 135.773 64.3926 136.118C64.3926 136.489 64.3855 137.005 64.3726 137.669C64.3596 138.332 64.3455 139.068 64.3326 139.876C64.3197 140.685 64.3126 141.514 64.3126 142.362C64.3126 143.211 64.3056 144 64.2926 144.729C64.2797 145.458 64.2726 146.101 64.2726 146.659C64.2726 147.215 64.2726 147.586 64.2726 147.772C64.2726 147.984 64.2138 148.13 64.0939 148.21C63.9751 148.288 63.8352 148.341 63.6764 148.368C63.5177 148.368 63.2719 148.381 62.9403 148.408C62.6087 148.434 62.2642 148.448 61.9067 148.448C61.548 148.448 61.2164 148.441 60.9118 148.428C60.6073 148.414 60.4015 148.381 60.2957 148.328C60.2427 148.303 60.2086 148.25 60.1957 148.17C60.1828 148.09 60.1757 148.011 60.1757 147.931V123.828C60.1757 123.589 60.2027 123.411 60.2557 123.291C60.3086 123.172 60.4673 123.112 60.7331 123.112C61.2105 123.112 61.7209 123.105 62.2641 123.092C62.8074 123.079 63.3048 123.059 63.7564 123.032C64.1539 123.032 64.3397 123.232 64.3126 123.629C64.3126 124.027 64.3126 124.604 64.3126 125.359C64.3126 126.115 64.3197 126.89 64.3326 127.686C64.3455 128.481 64.3596 129.211 64.3726 129.873C64.3855 130.537 64.3926 130.961 64.3926 131.147V131.146ZM47.6874 123.628C47.8202 123.628 48.0978 123.628 48.5223 123.628C48.9468 123.628 49.3913 123.634 49.8546 123.648C50.3191 123.661 50.7295 123.688 51.0881 123.727C51.4456 123.767 51.6385 123.827 51.6643 123.907C51.7443 124.118 51.8701 124.589 52.043 125.318C52.2147 126.048 52.4205 126.936 52.6592 127.984C52.8979 129.03 53.1566 130.184 53.4341 131.443C53.7128 132.704 53.9986 133.989 54.2902 135.302C54.5818 136.615 54.8664 137.9 55.1451 139.161C55.4238 140.42 55.6825 141.56 55.9212 142.581C56.1599 143.602 56.3516 144.457 56.4974 145.146C56.6432 145.836 56.7432 146.26 56.7961 146.42C56.9278 146.95 56.9419 147.335 56.8361 147.572C56.7291 147.811 56.4116 148.024 55.8812 148.21C55.3509 148.395 54.8064 148.554 54.2502 148.687C53.8786 148.793 53.6199 148.793 53.4741 148.687C53.3283 148.58 53.2154 148.356 53.1366 148.011C53.0037 147.321 52.8579 146.645 52.6992 145.981C52.5392 145.319 52.3934 144.643 52.2617 143.953C52.1818 143.661 51.983 143.515 51.6643 143.515C50.9753 143.515 50.2462 143.522 49.4771 143.535C48.7081 143.549 47.9661 143.555 47.2499 143.555C47.1441 143.555 47.0371 143.602 46.9312 143.695C46.8254 143.787 46.7454 143.887 46.6925 143.993C46.6396 144.126 46.5667 144.357 46.4738 144.689C46.3809 145.021 46.288 145.365 46.1951 145.724C46.1022 146.081 46.0234 146.406 45.9564 146.697C45.8905 146.989 45.8447 147.162 45.8176 147.215C45.606 147.745 45.3602 148.077 45.0815 148.21C44.8028 148.341 44.3995 148.356 43.8691 148.25C43.6034 148.196 43.3447 148.157 43.093 148.13C42.8414 148.103 42.5827 148.064 42.3169 148.011C41.7078 147.931 41.482 147.612 41.6407 147.056C41.6678 146.95 41.7666 146.559 41.9394 145.883C42.1123 145.206 42.3369 144.344 42.6156 143.297C42.8943 142.25 43.1988 141.069 43.5305 139.757C43.8621 138.445 44.2066 137.098 44.5653 135.72C44.9228 134.341 45.2802 132.981 45.6389 131.643C45.9964 130.304 46.3151 129.077 46.5938 127.964C46.8713 126.85 47.11 125.908 47.3087 125.139C47.5086 124.37 47.6344 123.867 47.6874 123.628ZM49.4371 131.981C49.3043 132.458 49.1726 133.016 49.0397 133.652C48.9068 134.288 48.7739 134.944 48.6422 135.62C48.5093 136.296 48.3765 136.96 48.2436 137.609C48.1119 138.259 47.979 138.822 47.8461 139.3C47.7661 139.617 47.8732 139.777 48.1648 139.777C48.5352 139.777 48.9468 139.77 49.3972 139.757C49.8487 139.744 50.2591 139.724 50.6307 139.697C51.0023 139.697 51.214 139.644 51.2669 139.538C51.3198 139.433 51.3198 139.207 51.2669 138.862C51.1869 138.544 51.1081 138.146 51.0282 137.669C50.9482 137.191 50.8694 136.694 50.7895 136.178C50.7095 135.66 50.6307 135.163 50.5507 134.685C50.472 134.208 50.4049 133.81 50.352 133.492C50.2191 132.83 50.1004 132.352 49.9945 132.061C49.8875 131.769 49.8017 131.589 49.7358 131.523C49.6688 131.457 49.61 131.483 49.5571 131.603C49.503 131.722 49.4642 131.848 49.4371 131.981ZM34.3218 128.123C34.3218 127.725 34.1501 127.526 33.8055 127.526C33.2482 127.579 32.6449 127.585 31.9958 127.546C31.3455 127.506 30.7423 127.512 30.186 127.566C30.132 127.566 30.0661 127.625 29.9861 127.745C29.9073 127.864 29.8674 127.964 29.8674 128.043C29.8674 128.255 29.8674 128.865 29.8674 129.872C29.8674 130.88 29.8674 132.087 29.8674 133.492C29.8674 134.898 29.8603 136.396 29.8474 137.987C29.8344 139.578 29.8274 141.062 29.8274 142.442C29.8274 143.821 29.8203 144.988 29.8074 145.943C29.7945 146.896 29.7874 147.427 29.7874 147.534C29.7615 147.612 29.7216 147.699 29.6686 147.792C29.6157 147.884 29.5487 147.957 29.4699 148.011C28.5409 148.356 27.5731 148.448 26.5654 148.288C26.0621 148.21 25.8104 147.878 25.8104 147.295C25.8104 147.135 25.8104 146.539 25.8104 145.505C25.8104 144.47 25.8163 143.204 25.8304 141.706C25.8433 140.208 25.8563 138.577 25.8704 136.814C25.8833 135.05 25.8892 133.373 25.8892 131.782C25.8892 130.191 25.8833 128.786 25.8704 127.566C25.8563 126.346 25.8504 125.524 25.8504 125.099C25.8504 125.02 25.8433 124.888 25.8304 124.702C25.8163 124.516 25.8234 124.324 25.8504 124.126C25.8763 123.927 25.9292 123.754 26.0091 123.608C26.0891 123.462 26.2349 123.389 26.4466 123.389C26.5524 123.389 26.904 123.382 27.5002 123.369C28.0976 123.356 28.8137 123.349 29.6486 123.349C30.4836 123.349 31.3784 123.342 32.3333 123.329C33.2881 123.317 34.183 123.304 35.0179 123.289C35.854 123.277 36.569 123.269 37.1663 123.269C37.7625 123.269 38.1271 123.269 38.26 123.269C38.4187 123.297 38.5257 123.442 38.5786 123.707C38.6315 123.973 38.6574 124.131 38.6574 124.184C38.6574 124.37 38.6515 124.815 38.6374 125.518C38.6245 126.22 38.6174 127.089 38.6174 128.123C38.6174 129.157 38.6174 130.317 38.6174 131.603C38.6174 132.889 38.6174 134.202 38.6174 135.54C38.6174 136.88 38.6174 138.206 38.6174 139.518C38.6174 140.831 38.6116 142.044 38.5986 143.158C38.5845 144.272 38.5786 145.226 38.5786 146.021C38.5786 146.817 38.5786 147.374 38.5786 147.692C38.5786 148.17 38.4987 148.481 38.3399 148.627C38.18 148.773 37.8625 148.819 37.3851 148.766C37.0405 148.766 36.6819 148.766 36.3114 148.766C35.9399 148.766 35.5812 148.753 35.2366 148.726C34.8662 148.673 34.6134 148.574 34.4817 148.428C34.3488 148.283 34.283 148.024 34.283 147.652C34.283 147.467 34.283 146.91 34.283 145.981C34.283 145.054 34.283 143.934 34.283 142.621C34.283 141.308 34.283 139.896 34.283 138.385C34.283 136.874 34.283 135.429 34.283 134.049C34.283 132.67 34.2889 131.443 34.3018 130.37C34.3159 129.296 34.3218 128.547 34.3218 128.123ZM8.54899 136.078C8.33615 135.706 8.05863 135.389 7.7129 135.123C7.36836 134.858 6.97089 134.698 6.52051 134.645C6.14892 134.62 5.79026 134.62 5.44572 134.645C5.10117 134.672 4.74369 134.698 4.3721 134.725C4.02755 134.725 3.85469 134.911 3.85469 135.283C3.88173 135.733 3.90173 136.184 3.91466 136.635C3.9276 137.085 3.94759 137.536 3.97463 137.987C3.97463 139.048 3.97463 140.109 3.97463 141.169C3.97463 142.23 3.9617 143.291 3.93465 144.351C3.93465 144.749 4.13338 144.935 4.53085 144.908C4.92949 144.882 5.32695 144.882 5.72441 144.908C6.12188 144.935 6.52051 144.935 6.91798 144.908C7.44832 144.855 7.90576 144.643 8.29028 144.272C8.67481 143.9 8.93352 143.462 9.06522 142.959C9.11931 142.72 9.19222 142.336 9.28394 141.806C9.37684 141.275 9.42976 140.678 9.44387 140.016C9.4568 139.353 9.40389 138.669 9.28394 137.967C9.16517 137.264 8.9194 136.635 8.54899 136.078ZM5.1682 126.333C4.95536 126.359 4.76368 126.373 4.59082 126.373C4.41913 126.373 4.22628 126.399 4.01461 126.452C3.93465 126.479 3.85469 126.539 3.7759 126.631C3.69594 126.724 3.65596 126.81 3.65596 126.889C3.683 127.446 3.68888 127.997 3.67595 128.54C3.66301 129.084 3.683 129.634 3.73592 130.191C3.73592 130.563 3.92172 130.721 4.29213 130.668C4.55789 130.641 4.8166 130.635 5.06824 130.648C5.31989 130.661 5.56566 130.641 5.80438 130.588C6.33472 130.456 6.73924 130.257 7.01676 129.992C7.29545 129.726 7.47419 129.422 7.55415 129.077C7.63412 128.733 7.62001 128.374 7.51417 128.004C7.40834 127.632 7.23548 127.261 6.99794 126.889C6.75923 126.544 6.4676 126.379 6.12188 126.393C5.77733 126.406 5.45983 126.386 5.1682 126.333Z" fill="black"/>
<path fill-rule="evenodd" clip-rule="evenodd" d="M45.0152 35.1928C45.034 36.0524 49.7848 56.2748 50.1575 58.141L52.0073 70.2977C52.2236 72.0263 53.5513 81.7877 53.9311 82.5579L90.0144 75.8105C90.1402 75.0943 85.3495 56.9568 84.3511 53.0328L84.0031 51.8474C83.8267 51.4382 83.9337 51.6405 83.7808 51.4194C83.5433 52.3613 83.04 54.6591 82.3803 54.9942C81.6583 55.3623 80.8175 55.0883 80.5658 54.4521C80.2836 53.736 80.6176 53.1209 80.8328 52.4272C83.8467 42.667 83.0094 45.535 82.7566 34.7718C82.5873 27.5398 83.6703 28.8416 79.4217 29.4719C67.8694 31.1876 56.2912 33.6441 45.0152 35.1939V35.1928ZM38.4065 85.6294L42.8221 84.7146C43.0232 83.6621 41.9225 74.9791 41.7038 73.3116C41.2111 69.5592 41.0194 65.6728 40.4362 61.9404C39.8835 58.3926 38.9839 54.8931 38.2924 51.3818C37.5998 47.8693 36.8649 44.2968 36.104 40.7549L30.5654 39.7213C30.6336 40.6973 35.596 59.8614 35.9418 61.1949C36.6861 64.0477 37.7974 82.8837 38.4065 85.6271V85.6294ZM38.6629 40.007C38.7487 41.3229 40.3926 48.576 40.7807 50.5551C41.4839 54.1558 42.3353 57.5671 42.9362 61.1314L45.4668 84.0549C46.3017 84.0749 50.7914 83.2376 51.2641 82.9425C49.2791 69.4346 48.3643 60.7433 45.1775 47.8681C44.7177 46.0101 44.2873 44.0675 43.8993 42.2189C43.6911 41.2241 42.9009 37.3471 42.5622 36.6862C41.451 37.3012 40.0493 38.9346 38.6629 40.007Z" fill="#30BA29"/>
</svg>
